<svg xmlns="http://www.w3.org/2000/svg" xmlns:xlink="http://www.w3.org/1999/xlink" viewBox="0 0 358.24 159.5"><defs><style>.cls-1{fill:none}.cls-3{fill:#27173a}.cls-4,.cls-5{fill:#fd960a;stroke:#fff;stroke-miterlimit:10;stroke-width:.75px}.cls-5{fill:#ffba2e}.cls-6{fill:#fff}.cls-7{fill:#ca286a}.cls-14{mix-blend-mode:overlay}.cls-11,.cls-14{opacity:.52}</style><clipPath id="clip-path"><path class="cls-1" d="M-8.37 245.95h1439v854h-1439z"/></clipPath><clipPath id="clip-path-2"><path class="cls-1" d="M-11.37 243.95h1443v869h-1443z"/></clipPath><clipPath id="clip-path-3"><path class="cls-1" d="M417.63-649.05h375v800h-375z"/></clipPath><image id="image" width="6000" height="4162" xlink:href="../../../../../Downloads/shutterstock_514437685.jpg"/></defs><g style="isolation:isolate"><g id="圖層_1" data-name="圖層 1"><path class="cls-3" d="M6.38 125.14a13.58 13.58 0 0 1 2.75-.49h10.73A10.61 10.61 0 0 1 26 126.6a6.29 6.29 0 0 1 1.64 3.93v4.35a5.44 5.44 0 0 1-2.55 4.4 24.23 24.23 0 0 1-9.74 1.56l-3.06.19a7.06 7.06 0 0 0-3 .73 3.24 3.24 0 0 0-.88 2.71.84.84 0 0 0 .95 1h17.26a1 1 0 0 1 1.15 1.14v3a1 1 0 0 1-1.15 1.15H3.25a1 1 0 0 1-1.15-1.15v-4.91a9.45 9.45 0 0 1 2.06-6.11 6.2 6.2 0 0 1 3.06-1.72 81.25 81.25 0 0 1 9.17-1.07 24.53 24.53 0 0 0 3.05-.34c1.63-.28 2.34-1.31 2.14-3.1a2.28 2.28 0 0 0-1.68-2.9h-9.66a2.41 2.41 0 0 0-2.1 3.17A1 1 0 0 1 7 133.78H3.25a1 1 0 0 1-1.15-1.15V130q.07-3.33 4.28-4.86zM30.56 132.44q.57-7.41 8-7.79h9.35a13 13 0 0 1 3.06.72 7 7 0 0 1 2.94 2.26 10.07 10.07 0 0 1 1.68 5.27v10.42a7.38 7.38 0 0 1-3 6 13.19 13.19 0 0 1-6.15 2h-8.63a7.73 7.73 0 0 1-5.92-3.09 10.37 10.37 0 0 1-1.33-4.44zm8.89-1.76c-1.85.44-2.8 1.44-2.82 3V142c.1 1.88 1.17 3 3.21 3.25h6.53q3-.66 3.17-4v-7a3.44 3.44 0 0 0-2.91-3.48zM58.63 132.44q.57-7.41 8-7.79H76a13 13 0 0 1 3.06.72 7 7 0 0 1 2.94 2.26 10.07 10.07 0 0 1 1.68 5.27v10.42a7.35 7.35 0 0 1-3 6 13.12 13.12 0 0 1-6.14 2h-8.66a7.73 7.73 0 0 1-5.88-3.14 10.37 10.37 0 0 1-1.33-4.44zm8.9-1.76c-1.86.44-2.81 1.44-2.83 3V142c.1 1.88 1.17 3 3.21 3.25h6.53q3-.66 3.17-4v-7a3.44 3.44 0 0 0-2.9-3.48zM89.3 122.36a1.36 1.36 0 0 1 1.37-1.23h3.48c.76 0 1 .39.87 1.15l-2.67 10.81c-.18.69 0 1 .46 1s.73.38.73 1.15v21.19a1 1 0 0 1-1.15 1.15H89a1 1 0 0 1-1.14-1.15V137c0-.63-.19-1-.58-1s-.61-.38-.76-1.15l-.36-1.85c-.2-.94-.14-1.45.2-1.53a1.82 1.82 0 0 0 1.18-1.64zm7.44 28.34a1.23 1.23 0 0 1 1.34-1.15h2c.76 0 1.09.38 1 1.15l-.53 4.2c-.31 1.65-1.42 2.56-3.33 2.71a1.36 1.36 0 0 1-1.52-1.15l-.35-1.94c-.15-.77-.11-1.15.12-1.15.76-.23 1.12-.61 1.07-1.15a11.23 11.23 0 0 1 .2-1.52zm9.09-29c0-.49.36-.73 1.07-.73h3.52c.76 0 1.14.22 1.14.65s.32.73 1 .73h8.29a1 1 0 0 1 1.15 1.15v1.34a1 1 0 0 1-1.14 1.15h-1a1.7 1.7 0 0 0-1.49 1.14.8.8 0 0 1-.19.38c-.36.77-.23 1.15.38 1.15h3.17a1 1 0 0 1 1.15 1.14v1.3a1 1 0 0 1-1.15 1.15H96.4a1 1 0 0 1-1.15-1.15v-1.3a1 1 0 0 1 1.15-1.14h3.21c.63 0 .84-.41.61-1.22l-.15-.54a1.2 1.2 0 0 0-1.23-.91h-1.22a1 1 0 0 1-1.14-1.15v-1.34a1 1 0 0 1 1.14-1.14h7.26c.64 0 .95-.22.95-.65zm-9.47 13.71c0-.79.37-1.19 1.11-1.19h23.34a1 1 0 0 1 1.14 1.15v8.56a2.87 2.87 0 0 1-2.9 2.9H97.51a1 1 0 0 1-1.15-1.15zm19.86 2.79c0-.77-.35-1.15-1-1.15h-12.17c-.64 0-1 .38-1 1.15s.32 1.14 1 1.14h12.22c.63.01.95-.34.95-1.13zm0 4.24c0-.49-.29-.73-.88-.73h-12.29c-.64 0-1 .38-1 1.15s.32 1.14 1 1.14h11.38c1.19.24 1.79-.28 1.79-1.55zm-13.44 7.83c0-.79.37-1.19 1.11-1.19h3.51a1 1 0 0 1 1.15 1.15c0 1.19 0 2.43.07 3.7a1.52 1.52 0 0 0 1.76.69h4.35a1 1 0 0 1 1.15 1.15v.68a1 1 0 0 1-1.15 1.15h-9c-1.6 0-2.59-1-2.94-2.9zm9.93-23.34c.28-.64.09-1-.57-1h-5.66c-.63 0-.84.4-.61 1.22l.12.53a1.2 1.2 0 0 0 1.22.92H111c.61 0 1.09-.38 1.45-1.15zm-1.91 23c-.28-.79 0-1.18.72-1.18h1.61q1.14 0 1.26.3a1.19 1.19 0 0 0 1 .88c.26 0 .39.42.39 1.18v.42a1 1 0 0 1-1.15 1.15c-1.99.32-3.25-.62-3.83-2.68zm6.34.46c-.1-.82.21-1.22 1-1.22h2a1.18 1.18 0 0 1 1.3 1.14 15.4 15.4 0 0 0 .27 1.91 1.06 1.06 0 0 0 .84 1c.38.12.57.49.57 1.1v2.1a1 1 0 0 1-1.15 1.15 4.17 4.17 0 0 1-2.59-.54 3.59 3.59 0 0 1-1.76-2.9zM128.41 122.2c0-.81.35-1.22 1.07-1.22H133a1 1 0 0 1 1.14 1.15v.8a.84.84 0 0 0 1 .95h.84a1 1 0 0 1 1.15 1.15v2a4.16 4.16 0 0 1-.39 1.91l-2.9 6.11c-.79 1.41-1.12 2.41-1 3v18.37a1 1 0 0 1-1.15 1.15h-3.47a1 1 0 0 1-1.15-1.15v-14.7c0-.64-.2-1-.61-1s-.64-.38-.76-1.14a20.86 20.86 0 0 1-.35-2.26c-.13-.76 0-1.14.31-1.14a2.32 2.32 0 0 0 2-.84q1.34-3 2.79-6c.28-.66.1-1-.53-1h-3.25a1 1 0 0 1-1.15-1.15V125a1 1 0 0 1 1.15-1.15h.84a.84.84 0 0 0 1-.95zm5.8 24.6c-.1-.81.22-1.22 1-1.22h.53q1.06 0 1.11 1.26c0 1 .05 2.09.15 3.13a1.45 1.45 0 0 0 1 1.11c.22 0 .34.42.34 1.11v2a1 1 0 0 1-1.15 1.15 1.94 1.94 0 0 1-1.52-.58 3.59 3.59 0 0 1-.77-1.87zm1.64-11.23c.13-1 .56-1.45 1.3-1.45s1.17.38 1.07 1.15l-.69 5.72c-.2 1.35-.86 2-2 2.11-.46 0-.77-.39-.92-1.15a10.09 10.09 0 0 1-.27-1.57c-.15-.79-.12-1.18.08-1.18.79 0 1.17-.45 1.15-1.34s.16-1.52.28-2.29zM148 122.28c0-.87.36-1.3 1.07-1.3h3.51c.77 0 1.15.42 1.15 1.26s.32 1.3.95 1.3h1.15c.64 0 .88-.28.73-.84s.1-1 .76-1h2c.77 0 1.23.26 1.38.8s.41 1 .69 1 .57.38.57 1.15v2.06a1 1 0 0 1-1.15 1.14h-6.15c-.63 0-.95.39-.95 1.15s.32 1.15.95 1.15h5.73a1 1 0 0 1 1.15 1.14v23.3c-.26 2.21-1.63 3.21-4.13 3a1.27 1.27 0 0 1-1.37-1.15l-.23-1.14c-.18-.84 0-1.28.5-1.3.89-.21 1.22-.87 1-2 0-.86-.32-1.3-1-1.3h-1.68a.85.85 0 0 0-.95 1v4.77a1 1 0 0 1-1.15 1.15h-3.43a1 1 0 0 1-1.15-1.15v-4.77a.85.85 0 0 0-1-1h-1.65a.85.85 0 0 0-1 1v4.77a1 1 0 0 1-1.15 1.15h-1.95a1 1 0 0 1-1.14-1.15v-25.14a1 1 0 0 1 1.14-1.14h5.8c.63 0 1-.39 1-1.15s-.32-1.15-1-1.15h-6.19a1 1 0 0 1-1.15-1.14v-2.06a1 1 0 0 1 1.15-1.15H147c.64 0 1-.42 1-1.26zm0 13.06a.84.84 0 0 0-1-1h-1.65a.84.84 0 0 0-1 1v2.14a.85.85 0 0 0 1 1H147a.85.85 0 0 0 1-1zm0 8.29c0-.66-.31-1-.92-1h-1.68a.84.84 0 0 0-1 1v2a.84.84 0 0 0 1 .95h1.6a.84.84 0 0 0 1-.95zm9.32-8.29a.85.85 0 0 0-1-1h-1.68a.84.84 0 0 0-.95 1v2.14a.85.85 0 0 0 .95 1h1.68a.85.85 0 0 0 1-1zm0 8.29c0-.66-.31-1-.92-1h-1.72a.84.84 0 0 0-.95 1v2a.84.84 0 0 0 .95.95h1.68a.85.85 0 0 0 1-.95zM184.66 122c0-.81.36-1.22 1.07-1.22h3.52a1 1 0 0 1 1.14 1.15v1a.84.84 0 0 0 1 .95H199a1 1 0 0 1 1.14 1.15v29.68a2.86 2.86 0 0 1-2.59 2.86h-3.25a1.23 1.23 0 0 1-1.34-1.15l-.3-1.91c-.15-1 0-1.45.42-1.45 1.2 0 1.69-.6 1.49-1.87v-21.81a.85.85 0 0 0-1-.95h-2.21a.85.85 0 0 0-1 .95v25q-.15 2.44-3.17 3.25h-21.74a1 1 0 0 1-1.14-1.15v-2.21c0-.77.17-1.15.53-1.15s.57-.32.57-.95v-29.43a1 1 0 0 1 1.15-1.15H180a1 1 0 0 1 1.14 1.15v29.41c0 .63.36.95 1.07.95a2 2 0 0 0 2.48-1.3v-22.42c0-.63-.29-.95-.87-.95s-.84-.38-.84-1.15V125c0-.76.28-1.15.84-1.15s.87-.31.87-.95zm-9 5.12c0-.66-.31-1-.92-1h-2.9a.84.84 0 0 0-1 1v4a.84.84 0 0 0 1 1h2.87a.85.85 0 0 0 1-1zm0 10.39c0-.66-.31-1-.92-1h-2.9a.83.83 0 0 0-1 .95v4.13a.84.84 0 0 0 1 .95h2.87a.84.84 0 0 0 1-.95zm0 10.58c0-.69-.29-1-.88-1h-2.94a.84.84 0 0 0-1 1v4.13a.84.84 0 0 0 1 .95h2.87a.84.84 0 0 0 1-.95zM204.94 147.83a1.13 1.13 0 0 1 1.23-1.18h1.64c.76 0 1.11.38 1 1.14l-.76 7.41a2.88 2.88 0 0 1-2.72 2.29c-.84.11-1.33-.3-1.48-1.22a6.73 6.73 0 0 1-.27-1.26c-.18-.86-.15-1.33.07-1.41a1.47 1.47 0 0 0 .81-1.53zm-1.41-6.11a1 1 0 0 1 1.15-1.15h17.83a1 1 0 0 1 1.15 1.15v1.6a1 1 0 0 1-1.15 1.15h-4.92a.85.85 0 0 0-1 1v9a3.58 3.58 0 0 1-2.71 3.05 27.16 27.16 0 0 1-2.86.08 1.23 1.23 0 0 1-1.34-1.15l-.31-1.94c-.1-.77 0-1.15.23-1.15a1.67 1.67 0 0 0 1.26-2.1v-5.84a.85.85 0 0 0-1-1h-5.27a1 1 0 0 1-1.15-1.15zm7.22-19.78c0-.64.36-1 1.07-1h3.51c.77 0 1.15.31 1.15.92a.84.84 0 0 0 1 .95h4.47a1 1 0 0 1 1.15 1.15v1.6a1 1 0 0 1-1.15 1.15h-4.47c-.63 0-1 .42-1 1.26s.32 1.26 1 1.26h4.32a1 1 0 0 1 1.15 1.15v1.29a1 1 0 0 1-1.15 1.15h-16.36a1 1 0 0 1-1.14-1.15v-1.29a1 1 0 0 1 1.14-1.15h4.36c.63 0 .95-.42.95-1.26s-.32-1.26-.95-1.26h-5a1 1 0 0 1-1.15-1.15V124a1 1 0 0 1 1.15-1.15h5c.63 0 .95-.3.95-.91zm-6.61 14.36c0-.82.36-1.23 1.07-1.23h16.54a1 1 0 0 1 1.15 1.15v1a1 1 0 0 1-1.15 1.15h-16.46a1 1 0 0 1-1.15-1.15zm23.8-1.19c.12-1 .56-1.45 1.3-1.45h3.17c.76 0 1.09.38 1 1.15l-.54 4.43c-.07.63.21.95.84.95h2.64a1.14 1.14 0 0 1 1.26 1.15c.33 3.44.7 6.87 1.11 10.31-.08.54.26 1 1 1.34q.42.1.42 1.26v2.21a1 1 0 0 1-1.15 1.15 7.65 7.65 0 0 1-3-.23 3.83 3.83 0 0 1-2.3-3.44q-.52-3.78-.95-7.6c-.23-.76-.48-.79-.76-.07l-.92 7.37c-.21 2.49-1.43 3.82-3.67 4h-5.12q-3.09-.65-3.13-3.44l-.61-6.11c-.07-.94.27-1.41 1-1.41h1.61a1.13 1.13 0 0 1 1.26 1.14q.23 2.52.57 5.16a2.89 2.89 0 0 0 .61.57c.33.26.5.22.5-.11s0-.32.15-.35a1.7 1.7 0 0 0 1.49-1.91q1.08-8.04 2.22-16.07zm-1.45-12.91a1.31 1.31 0 0 1 1.33-1.22H231c.77 0 1.06.32.88 1s0 1.07.65 1.07h6.07a1 1 0 0 1 1.15 1.14v10.92a1 1 0 0 1-1.15 1.15h-2.25a1 1 0 0 1-1.15-1.15v-6.6a.84.84 0 0 0-.95-1h-2.71c-.64 0-1.05.41-1.22 1.23a3.52 3.52 0 0 1-4.09 2.9 1.28 1.28 0 0 1-1.38-1.15l-.3-1.91c-.21-1-.1-1.51.3-1.64a3.52 3.52 0 0 0 1-1.68c.15-1.02.38-2.04.64-3.06zM242.37 137.82c0-.81.36-1.22 1.07-1.22H278a1 1 0 0 1 1.14 1.15V140a1 1 0 0 1-1.14 1.15h-34.48a1 1 0 0 1-1.15-1.15zM286.45 137.33c.15-.92.6-1.38 1.34-1.38h3.43c.77 0 1.08.39 1 1.15l-3.17 18a3.08 3.08 0 0 1-1.57 2.1 7.29 7.29 0 0 1-3.89.46 1.27 1.27 0 0 1-1.38-1.15l-.3-1.91c-.18-1-.07-1.45.34-1.45a1.41 1.41 0 0 0 1.72-1.26q1.15-7.31 2.48-14.56zM282.09 126c0-.81.36-1.22 1.07-1.22H291a1 1 0 0 1 1.15 1.15v2.25a1 1 0 0 1-1.15 1.15h-7.75a1 1 0 0 1-1.15-1.15zm19.25 11.42c.28-1 .81-1.49 1.57-1.49h3.4c.76 0 1 .39.8 1.15l-.72 2.67c-.23.82-.07 1.22.49 1.22h3.86a1.45 1.45 0 0 1 1.49 1.15l2.37 8.79c.17 1.73 1 2.45 2.56 2.17.84 0 1.26.38 1.26 1.15v2.21a1 1 0 0 1-1.15 1.15H313c-1.35-.08-2.34-1-3-2.83q-1.61-6.1-3.1-12.22a3.52 3.52 0 0 0-.57-1.34c-.18 0-.4.31-.65 1q-1.76 5.91-3.4 11.95a5.38 5.38 0 0 1-1 2.29 4 4 0 0 1-2.33 1.15h-3.48a1.27 1.27 0 0 1-1.37-1.15l-.31-1.91c-.18-1 .13-1.45.92-1.45a2 2 0 0 0 2.44-1.14zm-2.82-15.39a1.49 1.49 0 0 1 1.49-1.22h3.4c.76 0 1 .38.8 1.14a11.11 11.11 0 0 0-.5 1.72c-.2.67 0 1 .69 1h12.3a1 1 0 0 1 1.14 1.14V136a1 1 0 0 1-1.14 1.15h-3.17a1 1 0 0 1-1.15-1.15v-5.84a.85.85 0 0 0-.95-1h-8.37c-.63 0-1.07.41-1.3 1.23a3.7 3.7 0 0 1-3.36 3.36h-2.33a1.28 1.28 0 0 1-1.37-1.15l-.31-1.91c-.18-1 .16-1.45 1-1.45a1.37 1.37 0 0 0 .76-.38 2.09 2.09 0 0 0 .76-1.49c.49-1.75 1.02-3.54 1.61-5.32zM350.57 121.17c0-.25.4-.38 1.11-.38h3.52a1 1 0 0 1 1.14 1.15 3.27 3.27 0 0 1-2.56 3.43h-10.92a2.6 2.6 0 0 0-1.87 1.15c-.56.81-.51 1.22.15 1.22h14.67a1 1 0 0 1 1.14 1.15v.68a1 1 0 0 1-1.14 1.15h-17a2.56 2.56 0 0 0-1.87 1.15l-.27.34c-.51.69-.43 1 .23 1h19.17a1 1 0 0 1 1.15 1.15v1a1 1 0 0 1-1.15 1.15H334.5c-.72-.31-1.42.2-2.1 1.52-.49.72-.42 1.07.19 1.07h22.34a1 1 0 0 1 1.14 1.15v14.25c0 1.75-1 2.76-2.94 3h-28.72a1 1 0 0 1-1.14-1.14v-10.59a3 3 0 0 1 .23-1.49c.23-.28-.06-.42-.84-.42a1.25 1.25 0 0 1-1.34-1.15l-.34-1.56c-.16-.79.13-1.19.87-1.19a2.66 2.66 0 0 0 3.06-1.64l.57-.76c.54-.69.47-1-.19-1h-3.36a1 1 0 0 1-1.15-1.15v-1a1 1 0 0 1 1.15-1.15h5.88a2.4 2.4 0 0 0 1.8-1.14l.26-.35c.51-.69.44-1-.22-1h-7.11a1 1 0 0 1-1.14-1.15v-.68a1 1 0 0 1 1.14-1.15h9.51a2.4 2.4 0 0 0 1.8-1.14c.53-.82.47-1.23-.19-1.23h-10.78a1.22 1.22 0 0 1-1.33-1.14l-.12-.73c-.1-.76.23-1.14 1-1.14h26.16a1.5 1.5 0 0 0 1.98-1.24zm-.26 22.31c0-.82-.31-1.22-.92-1.22h-19.1c-.61 0-1 .06-1.1.19s-.19.51-.19 1.14.31 1 .95 1h19.4q.96.03.96-1.11zm0 4.89c0-.82-.31-1.23-.92-1.23H330c-.64 0-.95.4-.95 1.19s.31 1.18.95 1.18h19.4q.91 0 .91-1.14zm0 4.43c0-.51-.3-.77-.88-.77H330c-.64 0-.95.4-.95 1.19s.31 1.18.95 1.18h18.6c1.15.23 1.73-.31 1.71-1.6zM2.45 72.13c0-1.49.65-2.23 2-2.23h9a1.85 1.85 0 0 1 2.08 2.1v19.1q-.42 1.68 1.4 4.47A6.35 6.35 0 0 0 21.41 99h46a1.86 1.86 0 0 1 2.1 2.1v4.06a1.86 1.86 0 0 1-2.1 2.1h-46a8.12 8.12 0 0 1-4.2-1.68c-1.3-1.07-2.19-1.26-2.66-.56a5.09 5.09 0 0 1-3.78 2.17l-5.24.07a2.24 2.24 0 0 1-2.45-2.1 30.62 30.62 0 0 1-.63-3.5q-.36-2.1.42-2.1Q5.6 99.22 5 96.13V79.34c0-1.16-.45-1.75-1.33-1.75s-1.26-.7-1.26-2.1zm2-28.33c0-1.45.67-2.17 2-2.17h6.22a1.86 1.86 0 0 1 2.1 2.1v4.06a1.85 1.85 0 0 1-2.1 2.09H6.51a1.85 1.85 0 0 1-2.1-2.09zm0 14c0-1.44.67-2.17 2-2.17h6.22a1.86 1.86 0 0 1 2.1 2.1v4.06a1.86 1.86 0 0 1-2.1 2.1H6.51a1.86 1.86 0 0 1-2.1-2.1zm16.26-14.7c0-1.45.68-2.17 2-2.17h17.66a1.86 1.86 0 0 1 2.1 2.1v6.36c-.19 3.18-2 5-5.32 5.39h-6.36c-1.17 0-1.75.47-1.75 1.4q-.15 3.49 3.36 2.87h7.69a1.86 1.86 0 0 1 2.1 2.1v1.05c0 1.4-.54 2.1-1.61 2.1s-1.75.72-1.75 2.17.59 2.17 1.75 2.17h10.85c1.16 0 1.75-.7 1.75-2.1A2.14 2.14 0 0 0 51 64.16a5 5 0 0 1-4.55-5.11V43a1.86 1.86 0 0 1 2.1-2.1h17.5a1.86 1.86 0 0 1 2.1 2.1v6.6Q68 54 62.83 54.78h-6.37c-1.16 0-1.75.47-1.75 1.4q-.14 3.49 3.43 2.87h9a1.86 1.86 0 0 1 2.1 2.1v1.05a1.86 1.86 0 0 1-2.1 2.1h-1.72c-1.17 0-1.75.72-1.75 2.17s.58 2.17 1.75 2.17h1.47a1.86 1.86 0 0 1 2.1 2.1v2.09a1.86 1.86 0 0 1-2.1 2.1h-1.47a1.55 1.55 0 0 0-1.75 1.75V78a1.54 1.54 0 0 0 1.75 1.75h1.47a1.86 1.86 0 0 1 2.1 2.1V84a1.86 1.86 0 0 1-2.1 2.1H22.74a1.86 1.86 0 0 1-2.1-2.1v-2.14a1.86 1.86 0 0 1 2.1-2.1h3.78A1.55 1.55 0 0 0 28.27 78v-1.32a1.55 1.55 0 0 0-1.75-1.75H23a1.86 1.86 0 0 1-2.1-2.1v-2.09a1.86 1.86 0 0 1 2.1-2.1h3.5c1.16 0 1.75-.73 1.75-2.17a1.92 1.92 0 0 0-2.15-2.17l-2.31-.56A5.23 5.23 0 0 1 20.71 59zm7.07 47.79a3.34 3.34 0 0 1 2.94-1.19h6.85c1.4 0 1.52.7.35 2.1a8.11 8.11 0 0 1-3.29 2.79q-4.19 1.83-10.84 1.19c-1.4 0-2.29-.49-2.66-1.47-.47-1.16-.07-1.74 1.19-1.74h1.19a4.13 4.13 0 0 0 4.27-1.68zm6.36-43.8c0-1-.56-1.54-1.67-1.54h-1.68c-1.17 0-1.75.74-1.75 2.24s.6 2.3 1.82 2.3q2.16.42 3-1.05a5 5 0 0 0 .28-1.95zm19 30.29c0-1.63-.56-2.45-1.68-2.45H40.58a1.55 1.55 0 0 0-1.75 1.75V78a1.55 1.55 0 0 0 1.75 1.75h10.85c1.16.01 1.75-.75 1.75-2.37zM51.08 91.8c-.8-1.4-.49-2.1.91-2.1h7.41q2.1 0 2.73 1a4.19 4.19 0 0 0 4.27 1.82c1.4 0 2.1.53 2.1 1.6s-.7 1.61-2.1 1.61h-9.24a6.45 6.45 0 0 1-6.08-3.93zm8.81-44.71c0-1-.56-1.54-1.68-1.54h-1.75c-1.16 0-1.75.74-1.75 2.24s.61 2.3 1.82 2.3q3.36.84 3.36-3zM73.89 88c0-1.45.67-2.17 2-2.17h62.69a1.86 1.86 0 0 1 2.1 2.1v2.45a1.86 1.86 0 0 1-2.1 2.1h-23.13a1.54 1.54 0 0 0-1.75 1.74v7.63c-.33 2.85-2.06 4.66-5.18 5.46h-9.31a2.24 2.24 0 0 1-2.44-2.1l-.28-2.1c-.28-1.59.28-2.38 1.68-2.38q4.76 1 4.75-3.85v-2.71a1.54 1.54 0 0 0-1.75-1.74H76a1.85 1.85 0 0 1-2.09-2.1zm.28-44.5c0-1.45.67-2.17 2-2.17h62.14a1.86 1.86 0 0 1 2.1 2.1v2.45a1.86 1.86 0 0 1-2.1 2.1h-15.17c-1.16 0-1.75.77-1.75 2.3s.59 2.31 1.75 2.31H137a1.86 1.86 0 0 1 2.1 2.1v12.13q-.07 4.68-5.39 5.45h-56a1.85 1.85 0 0 1-2.09-2.09V54.64a1.85 1.85 0 0 1 2.09-2.1h13.53c1.16 0 1.75-.77 1.75-2.31s-.59-2.3-1.75-2.3h-15a1.85 1.85 0 0 1-2.09-2.1zm6.36 55c.56-1.54 1.5-2.31 2.8-2.31h6.37q2.1 0 1.26 2.1l-1.89 4.9c-.93 2.75-2.71 4.13-5.32 4.13h-5.81a2.42 2.42 0 0 1-2.58-2.1l-.49-2.1c-.33-1.59.16-2.38 1.46-2.38q2.94.65 4.2-2.3zm-4.13-20c0-1.49.66-2.24 2-2.24h57.73a1.86 1.86 0 0 1 2.1 2.1v1.54a1.86 1.86 0 0 1-2.1 2.1H78.5a1.86 1.86 0 0 1-2.1-2.1zM93 60.87a1.55 1.55 0 0 0-1.75-1.75h-3.86a1.54 1.54 0 0 0-1.75 1.75V64a1.55 1.55 0 0 0 1.75 1.75h3.85A1.55 1.55 0 0 0 93 64zm17.9-10.64c0-1.53-.58-2.3-1.75-2.3h-3.92c-1.17 0-1.75.77-1.75 2.3s.58 2.31 1.75 2.31h3.92c1.17 0 1.75-.77 1.75-2.31zm0 10.64a1.54 1.54 0 0 0-1.75-1.75h-3.92a1.54 1.54 0 0 0-1.75 1.75V64a1.55 1.55 0 0 0 1.75 1.75h3.92A1.55 1.55 0 0 0 110.9 64zm18.19 0a1.54 1.54 0 0 0-1.75-1.75h-4.2a1.55 1.55 0 0 0-1.75 1.75V64a1.55 1.55 0 0 0 1.75 1.75 42 42 0 0 0 4.76-.14q1.82-1.46 1.19-4.74zm-5.88 38c-.56-1.82-.18-2.73 1.12-2.73h6.3a2.43 2.43 0 0 1 2.59 2.1 3.53 3.53 0 0 0 1.68 2.31 20.06 20.06 0 0 0 3.43.14 1.86 1.86 0 0 1 2.1 2.1v2.38a1.86 1.86 0 0 1-2.1 2.1H129a5.8 5.8 0 0 1-3.85-2.8c-.72-1.88-1.38-3.74-1.94-5.61zM147.21 68.78q0-1.47 1-1.47c.75 0 1.12.7 1.12 2.1.05 1.81 0 3.7-.14 5.66A2.63 2.63 0 0 1 147 77q-1.19.08-1.47-1.89a4.16 4.16 0 0 1-.21-1.33c-.23-1.4-.14-2.14.28-2.24 1.4-.22 1.89-1.13 1.61-2.76zm3.71 14.69q1.68-2.73 3.64-2.73h6.79c1.4 0 2 .16 1.82.49s.18.7 1.39.7h43.8a1.86 1.86 0 0 1 2.1 2.1v3.57a3.24 3.24 0 0 1-2.1 3.08l-14.69 7c-1.44.7-1.52 1.33-.21 1.89a19.19 19.19 0 0 0 3.43.56h13.57a1.86 1.86 0 0 1 2.1 2.1v2.94a1.86 1.86 0 0 1-2.1 2.1h-20.92a18.23 18.23 0 0 1-7.27-2.66 4.23 4.23 0 0 0-3.92.28 15.71 15.71 0 0 1-5.67 2.1h-23.3a2.34 2.34 0 0 1-2.52-2.1l-.56-2.89c-.23-1.45.33-2.17 1.68-2.17h17.14a23.92 23.92 0 0 0 3.64-.56c1.22-.42 1-1-.7-1.75L160.79 94q-2.1-1.05 0-1H175a9 9 0 0 1 3.57.63 3.17 3.17 0 0 0 3.22-.07l6.21-2.74q1.68-1 1.68-1.26c-.09-.19-.84-.35-2.24-.49h-27q-1.68 0-3.15 2.1a6 6 0 0 1-4.06 2.37h-4a2.43 2.43 0 0 1-2.59-2.09l-.49-2.1a2.09 2.09 0 0 1 1.82-2.8 4.79 4.79 0 0 0 2.95-3.08zm-2.31-39.6c3-2.66 5.13-3.8 6.44-3.43h5.39c1.4 0 1.4.51 0 1.54l-2.87 2.17c-1.22 1-1.22 1.54 0 1.54h4.69a1.85 1.85 0 0 1 2.09 2.1v1.81a4.43 4.43 0 0 1-2.09 3.64l-4.9 3.76c-1.36 1-1.4 1.54-.14 1.54a21.39 21.39 0 0 0 3.43-.14 2.11 2.11 0 0 0 1.4-1.68c0-.28.53-.42 1.61-.42s1.6.87 1.6 2.59a5.44 5.44 0 0 1-3.28 5 1.94 1.94 0 0 0-1.47 2.1v9.23a1.86 1.86 0 0 1-2.1 2.1h-4.62a1.86 1.86 0 0 1-2.1-2.1v-9.17a1.54 1.54 0 0 0-1.75-1.75h-1.61a1.86 1.86 0 0 1-2.1-2.1v-1.89a4.64 4.64 0 0 1 2.1-3.71l4.9-3.64c1.35-1 1.4-1.54.14-1.54h-4.76a1.86 1.86 0 0 1-2.1-2.1v-1.81a4.44 4.44 0 0 1 2.1-3.64zm14.56 25.54c0-1.4.25-2.1.77-2.1s.76.7.76 2.1v4.68c0 1.4-.25 2.1-.76 2.1s-.77-.7-.77-2.1zm10.63-28.2c0-.93.65-1.4 2-1.4h6.44q2.1 0 2.1 1.26c0 .93.58 1.4 1.74 1.4h2.31a1.86 1.86 0 0 1 2.1 2.1v.7a1.86 1.86 0 0 1-2.1 2.1H170a1.86 1.86 0 0 1-2.1-2.1v-.7a1.86 1.86 0 0 1 2.1-2.1h2.1c1.12 0 1.7-.42 1.7-1.26zM169 52.82a1.83 1.83 0 0 1 2-2.1h16.3a1.83 1.83 0 0 1 2.1 2c0 1.36-.7 2-2.1 2h-16.23c-1.4.06-2.07-.59-2.07-1.9zm0 7.56c0-1.4.66-2.1 2-2.1h16.3a2 2 0 1 1 0 4.06h-16.23c-1.4 0-2.07-.65-2.07-1.96zm.07 7.84c0-1.5.66-2.24 2-2.24h16.51a1.86 1.86 0 0 1 2.1 2.1 13.37 13.37 0 0 1-.84 6.85 5.13 5.13 0 0 1-4.54 2.66h-13.16a1.86 1.86 0 0 1-2.1-2.1zM182.48 71c0-.8-.54-1.19-1.61-1.19h-2.94c-1.17 0-1.75.67-1.75 2s.77 2 2.31 2a4.47 4.47 0 0 0 3.29-.49 2.82 2.82 0 0 0 .7-2.32zm11.75-2.17q0-1.47 1.05-1.47t1.05 2.1v4.84a3.07 3.07 0 0 1-2.33 2.38q-.84.07-1.26-2.1l-.14-.84q-.35-2.44.21-2.52a2 2 0 0 0 1.42-2.44zm4.9-27.5a5.22 5.22 0 0 1 3.08-.84h5.59q2.1 0 0 1.47l-3.28 2.31c-1.26.93-1.26 1.4 0 1.4h4.68a1.86 1.86 0 0 1 2.1 2.1v1.83a4.44 4.44 0 0 1-2.1 3.64L204.31 57c-1.36 1-1.4 1.54-.14 1.54a21.39 21.39 0 0 0 3.43-.14c1-.42 1.51-1 1.46-1.75.05-.23.59-.35 1.61-.35s1.61.7 1.61 2.1q.5 3.44-3.43 5.53a1.94 1.94 0 0 0-1.33 2.1v9.16a1.85 1.85 0 0 1-2.09 2.1h-4.62a1.86 1.86 0 0 1-2.1-2.1v-9.14A1.54 1.54 0 0 0 197 64.3h-1.61a1.86 1.86 0 0 1-2.1-2.1v-1.89a4.64 4.64 0 0 1 2.1-3.71l4.9-3.64c1.35-1 1.4-1.54.14-1.54h-4.76a1.86 1.86 0 0 1-2.1-2.1v-1.88a4.28 4.28 0 0 1 2.1-3.57zm10.77 28.08q0-2.1 1-2.1c.75 0 1.12.7 1.12 2.1v5q0 2.1-1 2.1c-.74 0-1.12-.7-1.12-2.1zM218.3 43c0-1.49.65-2.24 2-2.24h19.45a1.86 1.86 0 0 1 2.1 2.1V47a1.85 1.85 0 0 1-2.1 2.09h-2.59a1.55 1.55 0 0 0-1.75 1.75v16.47a1.55 1.55 0 0 0 1.75 1.75h1.4a1.85 1.85 0 0 1 2.1 2.09v4.06a1.86 1.86 0 0 1-2.1 2.1h-1.4a1.55 1.55 0 0 0-1.75 1.75v18.19a1.54 1.54 0 0 0 1.71 1.75h6.93a5 5 0 0 0 3.57-2l1.82-4.13a3.09 3.09 0 0 1 3-2.09h6.72c1.4 0 1.8.7 1.19 2.09q-2.1 4.83-4 9.66c-1.35 2.84-3.36 4.41-6 4.69h-30.79a1.86 1.86 0 0 1-2.1-2.1v-4.02a1.86 1.86 0 0 1 2.1-2.1h3.5a1.55 1.55 0 0 0 1.75-1.75V79.06a1.55 1.55 0 0 0-1.75-1.75H221a1.86 1.86 0 0 1-2.1-2.1v-4.06a1.85 1.85 0 0 1 2.1-2.09h2.1a1.55 1.55 0 0 0 1.75-1.75V50.79a1.55 1.55 0 0 0-1.79-1.79h-2.66a1.85 1.85 0 0 1-2.1-2zm28.34.14c0-1.45.67-2.17 2-2.17h31.86a1.86 1.86 0 0 1 2.1 2.1v38.51a5.62 5.62 0 0 1-2.66 4.62c-.61.28-.91 1-.91 2v7.48q-.27 4 3.43 3.29c1.21 0 1.82.7 1.82 2.1v4.06a1.86 1.86 0 0 1-2.1 2.1h-8.33c-2.93 0-4.73-1.77-5.38-5.32V88.58a1.55 1.55 0 0 0-1.75-1.75h-18a1.86 1.86 0 0 1-2.1-2.1zm25.47 7.48c0-1.26-.54-1.89-1.61-1.89h-11.62a1.55 1.55 0 0 0-1.75 1.75V53a1.54 1.54 0 0 0 1.75 1.75h11.48a1.55 1.55 0 0 0 1.75-1.75zm0 12.6c0-1.26-.54-1.89-1.61-1.89h-11.62a1.54 1.54 0 0 0-1.75 1.75v2.24a1.55 1.55 0 0 0 1.75 1.75h11.48a1.55 1.55 0 0 0 1.75-1.75zm0 12.38c-.05-1.3-.63-2-1.75-2h-11.48a1.55 1.55 0 0 0-1.75 1.75v2a1.54 1.54 0 0 0 1.75 1.75h9.94c2.66.26 3.75-.9 3.29-3.47zM296.17 43.87q1.54-2.59 3.57-2.59h44.78a4.11 4.11 0 0 1 3.5 2.1c1.07 1.63 2.22 3.26 3.43 4.9.88 1.67 2 2.33 3.29 1.95.79 0 1.19.7 1.19 2.1v4.13q0 2.1-1.47 2.1c-1.08 0-1.61.58-1.61 1.75v1.75a1.86 1.86 0 0 1-2.1 2.1h-21.34a1.54 1.54 0 0 0-1.75 1.75V69a1.55 1.55 0 0 0 1.75 1.75h21.34a1.85 1.85 0 0 1 2.1 2.09v3.5a1.86 1.86 0 0 1-2.1 2.1h-21.34a1.55 1.55 0 0 0-1.75 1.75v17.06a1.54 1.54 0 0 0 1.75 1.75h23.86a1.86 1.86 0 0 1 2.1 2.1v4.06a1.86 1.86 0 0 1-2.1 2.1h-62.06a1.86 1.86 0 0 1-2.1-2.1v-4.06a1.86 1.86 0 0 1 2.1-2.1h24.21a1.55 1.55 0 0 0 1.75-1.75V80.18a1.55 1.55 0 0 0-1.75-1.75h-21.69a1.86 1.86 0 0 1-2.1-2.1v-3.5a1.85 1.85 0 0 1 2.1-2.09h21.69a1.55 1.55 0 0 0 1.75-1.74v-3.09a1.55 1.55 0 0 0-1.75-1.75h-21.69a1.86 1.86 0 0 1-2.1-2.1v-1.75c0-1.17-.52-1.75-1.54-1.75s-1.54-.7-1.54-2.1v-4.13a1.86 1.86 0 0 1 2.1-2.1q2.24.29 3.15-2.16 1.32-2.07 2.37-4.2zm-3 41.42c-.42-1.59 0-2.38 1.33-2.38h6.92a3.1 3.1 0 0 1 3 2.1 3.34 3.34 0 0 0 4.2 2.45H310a1.86 1.86 0 0 1 2.1 2.1V92a1.85 1.85 0 0 1-2.1 2.1h-9.87a6.35 6.35 0 0 1-4.69-2.37 28.57 28.57 0 0 1-1.81-5zM341.3 51.7c-.84-1.4-1.77-2.1-2.8-2.1h-32.11c-1.12 0-2.05.7-2.8 2.1l-1 2.1c-.65 1.4-.47 2.1.56 2.1h38.48c1.17 0 1.5-.6 1-1.82zm-1.89 33.38a3.89 3.89 0 0 1 3.36-2.17h7.28q2.1 0 .84 2.1-1.47 2.44-2.73 4.9a6.42 6.42 0 0 1-5.32 4.19H336a2.43 2.43 0 0 1-2.6-2.1 10.64 10.64 0 0 1-.49-2.1c-.33-1.64.14-2.45 1.4-2.45 2.05.43 3.75-.37 5.1-2.37z"/><path class="cls-4" transform="rotate(-135 172.071 22.774)" d="M169.93 20.57h4.29v4.41h-4.29z"/><path class="cls-4" transform="rotate(-135 186.026 8.353)" d="M184.15 6.64h3.74v3.43h-3.74z"/><path class="cls-5" d="M167.11 17.92v.18a2.45 2.45 0 0 0 0 .27.86.86 0 0 0 0 .16V19.01l.06.35v.15l.06.26v.16c0 .05.05.16.07.25s0 .1.05.15l.09.26v.12c.05.13.1.25.16.37a3.59 3.59 0 0 0 .17.34l.07.12c0 .08.09.15.14.23l.08.13.15.21.09.12.18.22.08.1.28.3.3.28.1.08.21.17.12.09.22.15.12.08.24.15.11.06.34.18.37.16h.13a2 2 0 0 0 .26.09l.15.05.25.07h.15l.27.05H175.18l.36-.05h.2l.26-.05h.21l.25-.06.22-.06.25-.07.21-.06.28-.09.31-.11.31-.11.22-.09.24-.1.23-.11.23-.1.23-.11.23-.12.23-.12.24-.14.35-.2.28-.17a1.64 1.64 0 0 1 .22-.14l.16-.11a16.07 16.07 0 0 0 2.46-2 15.7 15.7 0 0 0 3.64-5.58v-.07c0-.1.07-.19.1-.29v-.09c.06-.19.12-.38.17-.56 0-.1.05-.2.08-.3 0-.2.09-.39.13-.59.06-.32.1-.63.13-.94V11a8.72 8.72 0 0 0 0-.9 6.19 6.19 0 0 0-.15-.86 5.91 5.91 0 0 0-.24-.82q-.15-.41-.33-.78a6.65 6.65 0 0 0-.43-.73A6.91 6.91 0 0 0 186 5.9a6 6 0 0 0-.88-.72 6.52 6.52 0 0 0-.72-.43 5.37 5.37 0 0 0-.78-.33c-.27-.09-.55-.17-.83-.24a8.3 8.3 0 0 0-.87-.14h-1.82c-.32 0-.63.08-1 .13-.2 0-.4.08-.6.12l-.3.07-.56.16h-.09l-.29.1h-.07l-.38.14h-.09a15.65 15.65 0 0 0-5.11 3.45 16.57 16.57 0 0 0-1.9 2.27l-.08.12-.11.17a1.64 1.64 0 0 0-.14.22c-.06.09-.12.18-.17.27l-.21.35c0 .09-.09.17-.13.25l-.12.23-.12.23a1.63 1.63 0 0 0-.11.23 1.63 1.63 0 0 0-.11.23c0 .07-.07.15-.1.23a2.44 2.44 0 0 0-.1.24l-.09.22-.12.3c0 .11-.07.21-.1.32a1.43 1.43 0 0 0-.09.27 1.87 1.87 0 0 0-.07.22c0 .08-.05.16-.07.25a1.6 1.6 0 0 0 0 .21l-.06.25c0 .07 0 .14-.05.21s0 .18 0 .26v.2c0 .12 0 .25-.05.37v.51a1.15 1.15 0 0 1 0 .19v.45a1.13 1.13 0 0 0-.4.44z"/><ellipse class="cls-4" cx="180.02" cy="16.88" rx="11.99" ry="8.57" transform="rotate(-45 180.023 16.882)"/><ellipse class="cls-5" cx="180.1" cy="17.03" rx="8.56" ry="6.28" transform="rotate(-45 180.104 17.029)"/><path class="cls-4" d="M175.84 20.53a4.08 4.08 0 0 1-.81-2.42l1.9-.55a2.69 2.69 0 0 0 .65 1.84c.46.45.82.45 1.23 0 .85-.84-1.38-3.3.47-5.15a2.7 2.7 0 0 1 3.43-.63l1.1-1.1 1 1-1.08 1.07a3.2 3.2 0 0 1 .48 2.26l-1.8.27a1.83 1.83 0 0 0-.44-1.45c-.39-.39-.7-.46-1.13 0-.8.8 1.5 3.18-.43 5.1a2.78 2.78 0 0 1-3.5.68l-1.11 1.15-1-1z"/><path class="cls-4" transform="rotate(-90 240.665 15.945)" d="M238.52 13.74h4.29v4.41h-4.29z"/><path class="cls-4" transform="rotate(-90 260.735 15.615)" d="M258.86 13.9h3.74v3.43h-3.74z"/><path class="cls-5" d="M240.59 9l-.13.13-.18.2-.1.12-.25.32-.05.06-.21.29-.08.13-.15.22a.64.64 0 0 1-.08.14l-.12.23-.08.14c0 .08-.07.16-.11.25l-.06.12-.15.38a2.53 2.53 0 0 0-.12.36.93.93 0 0 1 0 .13l-.06.26v.15c0 .08 0 .17-.05.26s0 .1 0 .15v1.77c0 .05 0 .17.05.26v.15l.06.26a.93.93 0 0 1 0 .13 2.53 2.53 0 0 0 .12.36l.15.38.06.12c0 .09.07.17.11.25l.08.14.12.23a.64.64 0 0 1 .08.14l.15.22.08.13.21.29v.06l.26.32.1.12.18.2.13.13.18.18.14.14.19.17.14.13.25.2.15.12.3.23.17.11.21.15.19.12.21.13.2.12.22.12.2.11.26.13.29.14.3.14.22.09.24.1.24.09.23.09.25.08.24.08.25.08.27.08.39.1.32.08.25.05h.2a16.31 16.31 0 0 0 3.17.3 15.52 15.52 0 0 0 6.58-1.29h.07l.28-.14h.08l.52-.28.27-.16q.25-.15.51-.33c.26-.19.52-.38.76-.58a8.18 8.18 0 0 0 .68-.63c.21-.22.41-.44.59-.67a7.11 7.11 0 0 0 .5-.72 5.52 5.52 0 0 0 .42-.75 5.94 5.94 0 0 0 .32-.79 5.8 5.8 0 0 0 .21-.82 6 6 0 0 0 0-2.28 5.8 5.8 0 0 0-.21-.82 5.94 5.94 0 0 0-.32-.79 5.52 5.52 0 0 0-.42-.75q-.24-.37-.51-.72c-.19-.23-.39-.45-.6-.67a8.18 8.18 0 0 0-.68-.63c-.24-.2-.49-.39-.76-.58q-.25-.18-.51-.33l-.2-.45-.52-.28h-.08l-.4-.2h-.06l-.37-.17h-.1a15.57 15.57 0 0 0-6-1.17 16.6 16.6 0 0 0-3 .26H247.05l-.25.05-.32.08-.39.1-.27.08-.25.08-.24.08-.25.08-.23.09-.24.09-.24.1-.22.09-.3.14-.29.14-.26.13-.2.11-.22.12-.2.12-.21.13-.19.12-.22.15-.16.11-.3.23-.15.12-.25.2-.14.13-.19.17-.14.14z"/><ellipse class="cls-4" cx="250.46" cy="17.4" rx="11.99" ry="8.57"/><ellipse class="cls-5" cx="250.41" cy="17.56" rx="8.56" ry="6.28"/><path class="cls-4" d="M244.92 17a4 4 0 0 1 1.14-2.28l1.73.95a2.71 2.71 0 0 0-.84 1.76c0 .65.26.9.84.9 1.19 0 1.36-3.31 4-3.31a2.69 2.69 0 0 1 2.87 2h1.56v1.43h-1.53a3.24 3.24 0 0 1-1.25 1.94l-1.47-1.09a1.85 1.85 0 0 0 .72-1.33c0-.55-.18-.82-.78-.82-1.13 0-1.19 3.3-3.91 3.3a2.79 2.79 0 0 1-3-2h-1.58V17z"/><path class="cls-4" transform="rotate(-45 314.997 8.924)" d="M312.85 6.72h4.29v4.41h-4.29z"/><path class="cls-4" transform="rotate(-45 329.421 22.89)" d="M327.55 21.17h3.74v3.43h-3.74z"/><path class="cls-5" d="M319.85 4h-1.09l-.35.06h-.15l-.26.14h-.16l-.24.07-.16.05-.25.09h-.13l-.37.16-.34.17-.11.07-.24.14-.12.08-.22.15-.12.09-.21.17-.1.09a2.68 2.68 0 0 0-.3.28 2.68 2.68 0 0 0-.28.3l-.09.1-.17.21-.09.12-.15.22a.83.83 0 0 0-.08.12c-.05.08-.1.16-.14.24l-.07.11c-.06.11-.12.23-.17.34-.06.12-.11.25-.16.37s0 .09-.05.13l-.09.26c0 .05 0 .1-.05.15a2.17 2.17 0 0 0-.07.24 1.24 1.24 0 0 0 0 .16l-.06.26v.15l-.06.35v.08c0 .03 0 .27-.05.4a.86.86 0 0 1 0 .16v.27a1.28 1.28 0 0 1 0 .19v.44a2.44 2.44 0 0 0 0 .27v.5a1.36 1.36 0 0 1 0 .2l.06.36v.2c0 .09 0 .17.05.26s0 .14.05.21 0 .17 0 .25l.06.22c0 .08.05.16.07.24l.06.22.09.28c0 .1.07.2.11.31l.12.3a2.18 2.18 0 0 0 .09.23 1.6 1.6 0 0 0 .1.23 2.44 2.44 0 0 0 .1.24c0 .07.07.15.1.23l.12.23c0 .07.07.15.11.23l.12.23.14.24.21.35c.05.09.11.18.16.28l.15.22.11.16a16.48 16.48 0 0 0 2 2.46 15.48 15.48 0 0 0 5.59 3.63h.07l.28.1h.1l.55.17.3.08h.05l.59.12c.32.06.63.1.94.13h.93a8.69 8.69 0 0 0 .89 0 8.13 8.13 0 0 0 .86-.15 5.54 5.54 0 0 0 .82-.24c.26-.1.52-.21.78-.34a5.83 5.83 0 0 0 .73-.43 7.57 7.57 0 0 0 .88-.73 7.57 7.57 0 0 0 .73-.88 6.52 6.52 0 0 0 .43-.72 7.67 7.67 0 0 0 .34-.78 7.08 7.08 0 0 0 .24-.82 8.79 8.79 0 0 0 .15-.87 8.69 8.69 0 0 0 .05-.89v-.93c0-.31-.07-.62-.13-.94 0-.19-.07-.39-.12-.59v-.05c0-.1-.05-.2-.08-.3-.05-.19-.11-.38-.17-.56v-.1l-.1-.28v-.07l-.15-.38v-.1a15.8 15.8 0 0 0-3.45-5.12 17.45 17.45 0 0 0-2.27-1.9L327 6.3l-.16-.11-.22-.14-.28-.17-.34-.21-.25-.14-.22-.12-.23-.11-.3-.11-.22-.11-.24-.1-.23-.1a2.18 2.18 0 0 0-.23-.09l-.3-.12-.31-.11-.28-.09-.19-.06-.24-.07h-.22l-.25-.06-.21-.05h-.46l-.36-.23H319.85z"/><ellipse class="cls-4" cx="320.89" cy="16.88" rx="8.57" ry="11.99" transform="rotate(-45 320.893 16.882)"/><ellipse class="cls-5" cx="320.74" cy="16.96" rx="6.28" ry="8.56" transform="rotate(-45 320.746 16.963)"/><path class="cls-4" d="M317.24 12.7a4.08 4.08 0 0 1 2.42-.81l.56 1.89a2.74 2.74 0 0 0-1.85.66c-.45.46-.45.82 0 1.23.85.84 3.3-1.38 5.15.47a2.69 2.69 0 0 1 .63 3.43l1.1 1.09-1 1-1.08-1.08a3.26 3.26 0 0 1-2.26.48l-.26-1.8a1.85 1.85 0 0 0 1.45-.44c.39-.39.45-.7 0-1.13-.81-.8-3.19 1.5-5.11-.43a2.79 2.79 0 0 1-.68-3.5l-1.12-1.12 1-1z"/><path class="cls-6" d="M95.4 3h19.79v25.9H95.4z"/><path class="cls-3" d="M115.69 29.4H94.9V2.5h20.79zm-19.79-1h18.79V3.5H95.9z"/><path class="cls-7" d="M105.38 23.48a7 7 0 1 1 7-7 7 7 0 0 1-7 7zm0-12.67a5.64 5.64 0 1 0 5.62 5.64 5.65 5.65 0 0 0-5.62-5.64z"/><path class="cls-7" d="M104.78 10.29h1.39v12.15h-1.39z"/><path class="cls-7" transform="rotate(-33.61 102.76 18.118)" d="M99.35 17.43h6.82v1.39h-6.82z"/><path class="cls-6" d="M26.4 3h19.79v25.9H26.4z"/><path class="cls-3" d="M46.69 29.4H25.9V2.5h20.79zm-19.79-1h18.79V3.5H26.9z"/><path class="cls-7" d="M36.38 23.48a7 7 0 1 1 7-7 7 7 0 0 1-7 7zm0-12.67A5.64 5.64 0 1 0 42 16.45a5.65 5.65 0 0 0-5.62-5.64z"/><path class="cls-7" d="M35.78 10.29h1.39v12.15h-1.39z"/><path class="cls-7" transform="rotate(-33.61 33.764 18.128)" d="M30.35 17.43h6.82v1.39h-6.82z"/><g clip-path="url(#clip-path)"><g clip-path="url(#clip-path-2)"><use class="cls-11" transform="matrix(.2 -.07 .06 .17 -323.37 313.14)" xlink:href="#image"/><use class="cls-11" transform="matrix(.25 .04 -.03 .18 46.81 -316.05)" xlink:href="#image"/></g></g><g clip-path="url(#clip-path-3)"><path d="M944.63 229.93s-28-23.15-69.22-30.12c-43.5-7.36-116.89-.45-130.53 10.57-22.64 18.29-31.18-2.12-33.82-11.1s-6.87-20.08-26.42-15.28c0 0-3.7-11.62-22.2-8.45s-22.19-15.86-19-28.54-4.76-23.78-17.44-27.48-22.73 4.23-39.64 1.59-22.72-13.74-17.44-32.24 3.7-30.12-15.32-32.23c0 0 3.17-29.07-29.59-40.69s-46 13.21-65 7.92-47.9-56.73-58.67-66.77c-46.26-43.12-105-34.28-161.53-6.27l-5.51 222.64s21.07 36.67 101.94 32.94c51-2.36 69.79-18.82 87.81-32 7.7-5.62 33.82-3.17 32.24 30.12-.87 18.17 46 18 54.43 47.56 7.17 25.1 29.06 22.73 41.75 13.74s13.21-25.89 7.92-33.29-16.38-31.18 7.93-32.24 33.82 4.23 38.58 15.86c0 0-4.23 46.5 22.72 61.3s52.32 3.7 62.36-3.17c0 0 .53 22.19 15.32 22.19 0 0 7.4 33.82 56.55 24.84s42.8-51.79 68.17-77.68c27.28-27.84 48.09-28.52 113.61-13.72z" fill="#fecd0e"/><use class="cls-14" transform="matrix(.13 -.08 .07 .11 279.21 -81.74)" xlink:href="#image"/><use class="cls-14" transform="matrix(.12 .02 -.02 .11 314.23 -506.05)" xlink:href="#image"/></g></g></g></svg>