<svg xmlns="http://www.w3.org/2000/svg" xmlns:xlink="http://www.w3.org/1999/xlink" viewBox="0 0 130 82"><defs><style>.cls-1,.cls-35,.cls-5,.cls-79{mask:url(#mask);}.cls-1{filter:url(#luminosity-noclip-42);}.cls-10,.cls-101,.cls-106,.cls-111,.cls-116,.cls-12,.cls-121,.cls-129,.cls-14,.cls-16,.cls-18,.cls-2,.cls-20,.cls-22,.cls-24,.cls-26,.cls-28,.cls-30,.cls-32,.cls-34,.cls-36,.cls-38,.cls-4,.cls-40,.cls-42,.cls-44,.cls-46,.cls-48,.cls-50,.cls-52,.cls-54,.cls-56,.cls-58,.cls-6,.cls-60,.cls-62,.cls-64,.cls-66,.cls-68,.cls-70,.cls-72,.cls-74,.cls-76,.cls-78,.cls-8,.cls-80,.cls-82,.cls-94{mix-blend-mode:multiply;}.cls-2{fill:url(#linear-gradient);}.cls-13,.cls-3,.cls-57,.cls-7{mask:url(#mask-2);}.cls-3{filter:url(#luminosity-noclip-47);}.cls-4{fill:url(#linear-gradient-2);}.cls-5{filter:url(#luminosity-noclip-48);}.cls-6{fill:url(#linear-gradient-3);}.cls-7{filter:url(#luminosity-noclip-49);}.cls-8{fill:url(#linear-gradient-4);}.cls-15,.cls-9{mask:url(#mask-5);}.cls-9{filter:url(#luminosity-noclip-50);}.cls-10{fill:url(#linear-gradient-5);}.cls-11,.cls-17{mask:url(#mask-6);}.cls-11{filter:url(#luminosity-noclip-51);}.cls-12{fill:url(#linear-gradient-6);}.cls-13{filter:url(#luminosity-noclip-43);}.cls-14{fill:url(#linear-gradient-7);}.cls-15{filter:url(#luminosity-noclip-52);}.cls-16{fill:url(#linear-gradient-8);}.cls-17{filter:url(#luminosity-noclip-53);}.cls-18{fill:url(#linear-gradient-9);}.cls-19,.cls-23,.cls-27,.cls-31{mask:url(#mask-10);}.cls-19{filter:url(#luminosity-noclip-54);}.cls-20{fill:url(#linear-gradient-10);}.cls-21,.cls-25,.cls-29,.cls-33{mask:url(#mask-11);}.cls-21{filter:url(#luminosity-noclip-55);}.cls-22{fill:url(#linear-gradient-11);}.cls-23{filter:url(#luminosity-noclip-56);}.cls-24{fill:url(#linear-gradient-12);}.cls-25{filter:url(#luminosity-noclip-57);}.cls-26{fill:url(#linear-gradient-13);}.cls-27{filter:url(#luminosity-noclip-58);}.cls-28{fill:url(#linear-gradient-14);}.cls-29{filter:url(#luminosity-noclip-59);}.cls-30{fill:url(#linear-gradient-15);}.cls-31{filter:url(#luminosity-noclip-60);}.cls-32{fill:url(#linear-gradient-16);}.cls-33{filter:url(#luminosity-noclip-61);}.cls-34{fill:url(#linear-gradient-17);}.cls-35{filter:url(#luminosity-noclip-44);}.cls-36{fill:url(#linear-gradient-18);}.cls-37,.cls-41{mask:url(#mask-19);}.cls-37{filter:url(#luminosity-noclip-62);}.cls-38{fill:url(#linear-gradient-19);}.cls-39,.cls-43{mask:url(#mask-20);}.cls-39{filter:url(#luminosity-noclip-63);}.cls-40{fill:url(#linear-gradient-20);}.cls-41{filter:url(#luminosity-noclip-64);}.cls-42{fill:url(#linear-gradient-21);}.cls-43{filter:url(#luminosity-noclip-65);}.cls-44{fill:url(#linear-gradient-22);}.cls-45,.cls-49,.cls-53,.cls-59,.cls-63,.cls-67{mask:url(#mask-23);}.cls-45{filter:url(#luminosity-noclip-66);}.cls-46{fill:url(#linear-gradient-23);}.cls-47,.cls-51,.cls-55,.cls-61,.cls-65,.cls-69{mask:url(#mask-24);}.cls-47{filter:url(#luminosity-noclip-67);}.cls-48{fill:url(#linear-gradient-24);}.cls-49{filter:url(#luminosity-noclip-68);}.cls-50{fill:url(#linear-gradient-25);}.cls-51{filter:url(#luminosity-noclip-69);}.cls-52{fill:url(#linear-gradient-26);}.cls-53{filter:url(#luminosity-noclip-70);}.cls-54{fill:url(#linear-gradient-27);}.cls-55{filter:url(#luminosity-noclip-71);}.cls-56{fill:url(#linear-gradient-28);}.cls-57{filter:url(#luminosity-noclip-45);}.cls-58{fill:url(#linear-gradient-29);}.cls-59{filter:url(#luminosity-noclip-72);}.cls-60{fill:url(#linear-gradient-30);}.cls-61{filter:url(#luminosity-noclip-73);}.cls-62{fill:url(#linear-gradient-31);}.cls-63{filter:url(#luminosity-noclip-74);}.cls-64{fill:url(#linear-gradient-32);}.cls-65{filter:url(#luminosity-noclip-75);}.cls-66{fill:url(#linear-gradient-33);}.cls-67{filter:url(#luminosity-noclip-76);}.cls-68{fill:url(#linear-gradient-34);}.cls-69{filter:url(#luminosity-noclip-77);}.cls-70{fill:url(#linear-gradient-35);}.cls-71{mask:url(#mask-36);filter:url(#luminosity-noclip-78);}.cls-72{fill:url(#linear-gradient-36);}.cls-73{mask:url(#mask-37);filter:url(#luminosity-noclip-79);}.cls-74{fill:url(#linear-gradient-37);}.cls-75{mask:url(#mask-38);filter:url(#luminosity-noclip-80);}.cls-76{fill:url(#linear-gradient-38);}.cls-77{mask:url(#mask-39);filter:url(#luminosity-noclip-81);}.cls-78{fill:url(#linear-gradient-39);}.cls-79{filter:url(#luminosity-noclip-46);}.cls-80{fill:url(#linear-gradient-40);}.cls-81{mask:url(#mask-41);filter:url(#luminosity-noclip-82);}.cls-82{fill:url(#linear-gradient-41);}.cls-83{fill:none;}.cls-84{isolation:isolate;}.cls-85{fill:#faece9;}.cls-86{fill:#536070;}.cls-87{fill:#a7b9c6;}.cls-88{fill:#67717f;}.cls-89{fill:#ced6dd;}.cls-90{mask:url(#mask-42);}.cls-91{fill:url(#linear-gradient-42);}.cls-92{fill:url(#radial-gradient);}.cls-93{mask:url(#mask-43);}.cls-101,.cls-106,.cls-111,.cls-116,.cls-121,.cls-94{opacity:0.48;}.cls-94{fill:url(#linear-gradient-43);}.cls-95{fill:#373e4f;}.cls-96{fill:#e1e8ef;}.cls-97{mask:url(#mask-44);}.cls-98{fill:url(#linear-gradient-44);}.cls-99{fill:url(#radial-gradient-2);}.cls-100{mask:url(#mask-45);}.cls-101{fill:url(#linear-gradient-45);}.cls-102{mask:url(#mask-46);}.cls-103{fill:url(#linear-gradient-46);}.cls-104{fill:url(#radial-gradient-3);}.cls-105{mask:url(#mask-47);}.cls-106{fill:url(#linear-gradient-47);}.cls-107{mask:url(#mask-48);}.cls-108{fill:url(#linear-gradient-48);}.cls-109{fill:url(#radial-gradient-4);}.cls-110{mask:url(#mask-49);}.cls-111{fill:url(#linear-gradient-49);}.cls-112{mask:url(#mask-50);}.cls-113{fill:url(#linear-gradient-50);}.cls-114{fill:url(#radial-gradient-5);}.cls-115{mask:url(#mask-51);}.cls-116{fill:url(#linear-gradient-51);}.cls-117{mask:url(#mask-52);}.cls-118{fill:url(#linear-gradient-52);}.cls-119{fill:url(#radial-gradient-6);}.cls-120{mask:url(#mask-53);}.cls-121{fill:url(#linear-gradient-53);}.cls-122{fill:#b04c06;}.cls-123{fill:#ef9e0f;}.cls-124{fill:#e37d00;}.cls-125{fill:#ffee72;}.cls-126{mask:url(#mask-54);}.cls-127{fill:url(#linear-gradient-54);}.cls-128{fill:url(#radial-gradient-7);}.cls-129{opacity:0.62;}.cls-130{mask:url(#mask-55);}.cls-131{fill:url(#linear-gradient-55);}.cls-132{fill:#ae5406;}.cls-133{fill:#feef4e;}.cls-134{mask:url(#mask-56);}.cls-135{fill:url(#linear-gradient-56);}.cls-136{fill:url(#radial-gradient-8);}.cls-137{mask:url(#mask-57);}.cls-138{fill:url(#linear-gradient-57);}.cls-139{mask:url(#mask-58);}.cls-140{fill:url(#linear-gradient-58);}.cls-141{fill:url(#radial-gradient-9);}.cls-142{mask:url(#mask-59);}.cls-143{fill:url(#linear-gradient-59);}.cls-144{mask:url(#mask-60);}.cls-145{fill:url(#linear-gradient-60);}.cls-146{fill:url(#radial-gradient-10);}.cls-147{mask:url(#mask-61);}.cls-148{fill:url(#linear-gradient-61);}.cls-149{mask:url(#mask-62);}.cls-150{fill:url(#linear-gradient-62);}.cls-151{fill:url(#radial-gradient-11);}.cls-152{mask:url(#mask-63);}.cls-153{fill:url(#linear-gradient-63);}.cls-154{mask:url(#mask-64);}.cls-155{fill:url(#linear-gradient-64);}.cls-156{fill:url(#radial-gradient-12);}.cls-157{mask:url(#mask-65);}.cls-158{fill:url(#linear-gradient-65);}.cls-159{mask:url(#mask-66);}.cls-160{fill:url(#linear-gradient-66);}.cls-161{fill:url(#radial-gradient-13);}.cls-162{mask:url(#mask-67);}.cls-163{fill:url(#linear-gradient-67);}.cls-164{mask:url(#mask-68);}.cls-165{fill:url(#linear-gradient-68);}.cls-166{fill:url(#radial-gradient-14);}.cls-167{mask:url(#mask-69);}.cls-168{fill:url(#linear-gradient-69);}.cls-169{mask:url(#mask-70);}.cls-170{fill:url(#linear-gradient-70);}.cls-171{fill:url(#radial-gradient-15);}.cls-172{mask:url(#mask-71);}.cls-173{fill:url(#linear-gradient-71);}.cls-174{mask:url(#mask-72);}.cls-175{fill:url(#linear-gradient-72);}.cls-176{fill:url(#radial-gradient-16);}.cls-177{mask:url(#mask-73);}.cls-178{fill:url(#linear-gradient-73);}.cls-179{mask:url(#mask-74);}.cls-180{fill:url(#linear-gradient-74);}.cls-181{fill:url(#radial-gradient-17);}.cls-182{mask:url(#mask-75);}.cls-183{fill:url(#linear-gradient-75);}.cls-184{mask:url(#mask-76);}.cls-185{fill:url(#linear-gradient-76);}.cls-186{fill:url(#radial-gradient-18);}.cls-187{mask:url(#mask-77);}.cls-188{fill:url(#linear-gradient-77);}.cls-189{mask:url(#mask-78);}.cls-190{fill:url(#linear-gradient-78);}.cls-191{fill:url(#radial-gradient-19);}.cls-192{mask:url(#mask-79);}.cls-193{fill:url(#linear-gradient-79);}.cls-194{mask:url(#mask-80);}.cls-195{fill:url(#linear-gradient-80);}.cls-196{mask:url(#mask-81);}.cls-197{fill:url(#linear-gradient-81);}.cls-198{fill:url(#radial-gradient-20);}.cls-199{opacity:0.74;}.cls-200{fill:#fff;}.cls-201{mask:url(#mask-82);}.cls-202{fill:url(#linear-gradient-82);}.cls-203{clip-path:url(#clip-path);}.cls-204{fill:#fecd0e;}.cls-205{mix-blend-mode:overlay;}.cls-206{filter:url(#luminosity-noclip-41);}.cls-207{filter:url(#luminosity-noclip-39);}.cls-208{filter:url(#luminosity-noclip-38);}.cls-209{filter:url(#luminosity-noclip-37);}.cls-210{filter:url(#luminosity-noclip-36);}.cls-211{filter:url(#luminosity-noclip-24);}.cls-212{filter:url(#luminosity-noclip-23);}.cls-213{filter:url(#luminosity-noclip-20);}.cls-214{filter:url(#luminosity-noclip-19);}.cls-215{filter:url(#luminosity-noclip-11);}.cls-216{filter:url(#luminosity-noclip-10);}.cls-217{filter:url(#luminosity-noclip-6);}.cls-218{filter:url(#luminosity-noclip-5);}.cls-219{filter:url(#luminosity-noclip-2);}.cls-220{filter:url(#luminosity-noclip);}</style><filter id="luminosity-noclip" x="33.61" y="-7694.8" width="17.43" height="32766" filterUnits="userSpaceOnUse" color-interpolation-filters="sRGB"><feFlood flood-color="#fff" result="bg"/><feBlend in="SourceGraphic" in2="bg"/></filter><mask id="mask" x="33.61" y="-7694.8" width="17.43" height="32766" maskUnits="userSpaceOnUse"><g class="cls-220"/></mask><linearGradient id="linear-gradient" x1="3579.21" y1="-4347.73" x2="3572.11" y2="-4360.03" gradientTransform="translate(4396.46 3634.8) rotate(-90)" gradientUnits="userSpaceOnUse"><stop offset="0.46" stop-color="#fff"/><stop offset="0.51" stop-color="#f8f8f8"/><stop offset="0.58" stop-color="#e6e6e6"/><stop offset="0.66" stop-color="#c7c7c7"/><stop offset="0.75" stop-color="#9d9d9d"/><stop offset="0.84" stop-color="#676767"/><stop offset="0.95" stop-color="#262626"/><stop offset="1"/></linearGradient><filter id="luminosity-noclip-2" x="36.18" y="-7694.8" width="11.57" height="32766" filterUnits="userSpaceOnUse" color-interpolation-filters="sRGB"><feFlood flood-color="#fff" result="bg"/><feBlend in="SourceGraphic" in2="bg"/></filter><mask id="mask-2" x="36.18" y="-7694.8" width="11.57" height="32766" maskUnits="userSpaceOnUse"><g class="cls-219"/></mask><linearGradient id="linear-gradient-2" x1="3602.01" y1="-4356.39" x2="3597.3" y2="-4364.55" gradientTransform="matrix(0.01, -0.99, 1, 0, 4382.1, 3603.65)" gradientUnits="userSpaceOnUse"><stop offset="0.24" stop-color="#fff"/><stop offset="1"/></linearGradient><linearGradient id="linear-gradient-3" x1="3593.74" y1="-4347.73" x2="3586.64" y2="-4360.03" xlink:href="#linear-gradient"/><linearGradient id="linear-gradient-4" x1="3606.97" y1="-4356.41" x2="3602.26" y2="-4364.57" xlink:href="#linear-gradient-2"/><filter id="luminosity-noclip-5" x="84" y="-7694.8" width="17.43" height="32766" filterUnits="userSpaceOnUse" color-interpolation-filters="sRGB"><feFlood flood-color="#fff" result="bg"/><feBlend in="SourceGraphic" in2="bg"/></filter><mask id="mask-5" x="84" y="-7694.8" width="17.43" height="32766" maskUnits="userSpaceOnUse"><g class="cls-218"/></mask><linearGradient id="linear-gradient-5" x1="3586" y1="-4297.34" x2="3578.9" y2="-4309.64" xlink:href="#linear-gradient"/><filter id="luminosity-noclip-6" x="86.57" y="-7694.8" width="11.57" height="32766" filterUnits="userSpaceOnUse" color-interpolation-filters="sRGB"><feFlood flood-color="#fff" result="bg"/><feBlend in="SourceGraphic" in2="bg"/></filter><mask id="mask-6" x="86.57" y="-7694.8" width="11.57" height="32766" maskUnits="userSpaceOnUse"><g class="cls-217"/></mask><linearGradient id="linear-gradient-6" x1="3599.13" y1="-4305.98" x2="3594.42" y2="-4314.14" xlink:href="#linear-gradient-2"/><linearGradient id="linear-gradient-7" x1="3592.25" y1="-4356.33" x2="3587.54" y2="-4364.49" xlink:href="#linear-gradient-2"/><linearGradient id="linear-gradient-8" x1="3590.9" y1="-4297.34" x2="3583.79" y2="-4309.64" xlink:href="#linear-gradient"/><linearGradient id="linear-gradient-9" x1="3604.09" y1="-4306.01" x2="3599.38" y2="-4314.17" xlink:href="#linear-gradient-2"/><filter id="luminosity-noclip-10" x="67.61" y="-7694.8" width="17.43" height="32766" filterUnits="userSpaceOnUse" color-interpolation-filters="sRGB"><feFlood flood-color="#fff" result="bg"/><feBlend in="SourceGraphic" in2="bg"/></filter><mask id="mask-10" x="67.61" y="-7694.8" width="17.43" height="32766" maskUnits="userSpaceOnUse"><g class="cls-216"/></mask><linearGradient id="linear-gradient-10" x1="3498.68" y1="-3429.82" x2="3491.58" y2="-3442.12" gradientTransform="translate(3512.55 3552.46) rotate(-90)" gradientUnits="userSpaceOnUse"><stop offset="0.58" stop-color="#fff"/><stop offset="0.62" stop-color="#f8f8f8"/><stop offset="0.67" stop-color="#e6e6e6"/><stop offset="0.74" stop-color="#c7c7c7"/><stop offset="0.81" stop-color="#9d9d9d"/><stop offset="0.88" stop-color="#676767"/><stop offset="0.96" stop-color="#262626"/><stop offset="1"/></linearGradient><filter id="luminosity-noclip-11" x="70.18" y="-7694.8" width="11.57" height="32766" filterUnits="userSpaceOnUse" color-interpolation-filters="sRGB"><feFlood flood-color="#fff" result="bg"/><feBlend in="SourceGraphic" in2="bg"/></filter><mask id="mask-11" x="70.18" y="-7694.8" width="11.57" height="32766" maskUnits="userSpaceOnUse"><g class="cls-215"/></mask><linearGradient id="linear-gradient-11" x1="3510.68" y1="-3437.95" x2="3505.97" y2="-3446.11" gradientTransform="matrix(0.01, -0.99, 1, 0, 3498.18, 3521.31)" xlink:href="#linear-gradient-2"/><linearGradient id="linear-gradient-12" x1="3503.89" y1="-3429.82" x2="3496.79" y2="-3442.12" xlink:href="#linear-gradient-10"/><linearGradient id="linear-gradient-13" x1="3515.96" y1="-3437.98" x2="3511.25" y2="-3446.14" gradientTransform="matrix(0.01, -0.99, 1, 0, 3498.18, 3521.31)" xlink:href="#linear-gradient-2"/><linearGradient id="linear-gradient-14" x1="3508.79" y1="-3429.82" x2="3501.69" y2="-3442.12" xlink:href="#linear-gradient-10"/><linearGradient id="linear-gradient-15" x1="3520.92" y1="-3438.01" x2="3516.21" y2="-3446.17" gradientTransform="matrix(0.01, -0.99, 1, 0, 3498.18, 3521.31)" xlink:href="#linear-gradient-2"/><linearGradient id="linear-gradient-16" x1="3513.84" y1="-3429.82" x2="3506.74" y2="-3442.12" xlink:href="#linear-gradient-10"/><linearGradient id="linear-gradient-17" x1="3526.04" y1="-3438.04" x2="3521.33" y2="-3446.2" gradientTransform="matrix(0.01, -0.99, 1, 0, 3498.18, 3521.31)" xlink:href="#linear-gradient-2"/><linearGradient id="linear-gradient-18" x1="3584.11" y1="-4347.73" x2="3577" y2="-4360.03" xlink:href="#linear-gradient"/><filter id="luminosity-noclip-19" x="79.61" y="-7694.8" width="17.43" height="32766" filterUnits="userSpaceOnUse" color-interpolation-filters="sRGB"><feFlood flood-color="#fff" result="bg"/><feBlend in="SourceGraphic" in2="bg"/></filter><mask id="mask-19" x="79.61" y="-7694.8" width="17.43" height="32766" maskUnits="userSpaceOnUse"><g class="cls-214"/></mask><linearGradient id="linear-gradient-19" x1="3495.36" y1="-3417.81" x2="3488.26" y2="-3430.11" xlink:href="#linear-gradient-10"/><filter id="luminosity-noclip-20" x="82.18" y="-7694.8" width="11.57" height="32766" filterUnits="userSpaceOnUse" color-interpolation-filters="sRGB"><feFlood flood-color="#fff" result="bg"/><feBlend in="SourceGraphic" in2="bg"/></filter><mask id="mask-20" x="82.18" y="-7694.8" width="11.57" height="32766" maskUnits="userSpaceOnUse"><g class="cls-213"/></mask><linearGradient id="linear-gradient-20" x1="3507.32" y1="-3425.93" x2="3502.61" y2="-3434.09" gradientTransform="matrix(0.01, -0.99, 1, 0, 3498.18, 3521.31)" xlink:href="#linear-gradient-2"/><linearGradient id="linear-gradient-21" x1="3500.58" y1="-3417.81" x2="3493.47" y2="-3430.11" xlink:href="#linear-gradient-10"/><linearGradient id="linear-gradient-22" x1="3512.6" y1="-3425.96" x2="3507.89" y2="-3434.12" gradientTransform="matrix(0.01, -0.99, 1, 0, 3498.18, 3521.31)" xlink:href="#linear-gradient-2"/><filter id="luminosity-noclip-23" x="50.23" y="-7694.8" width="17.43" height="32766" filterUnits="userSpaceOnUse" color-interpolation-filters="sRGB"><feFlood flood-color="#fff" result="bg"/><feBlend in="SourceGraphic" in2="bg"/></filter><mask id="mask-23" x="50.23" y="-7694.8" width="17.43" height="32766" maskUnits="userSpaceOnUse"><g class="cls-212"/></mask><linearGradient id="linear-gradient-23" x1="3492.84" y1="-3447.19" x2="3485.73" y2="-3459.49" xlink:href="#linear-gradient-10"/><filter id="luminosity-noclip-24" x="52.8" y="-7694.8" width="11.57" height="32766" filterUnits="userSpaceOnUse" color-interpolation-filters="sRGB"><feFlood flood-color="#fff" result="bg"/><feBlend in="SourceGraphic" in2="bg"/></filter><mask id="mask-24" x="52.8" y="-7694.8" width="11.57" height="32766" maskUnits="userSpaceOnUse"><g class="cls-211"/></mask><linearGradient id="linear-gradient-24" x1="3504.76" y1="-3455.3" x2="3500.05" y2="-3463.45" gradientTransform="matrix(0.01, -0.99, 1, 0, 3498.18, 3521.31)" xlink:href="#linear-gradient-2"/><linearGradient id="linear-gradient-25" x1="3498.05" y1="-3447.19" x2="3490.94" y2="-3459.49" xlink:href="#linear-gradient-10"/><linearGradient id="linear-gradient-26" x1="3510.04" y1="-3455.33" x2="3505.33" y2="-3463.48" gradientTransform="matrix(0.01, -0.99, 1, 0, 3498.18, 3521.31)" xlink:href="#linear-gradient-2"/><linearGradient id="linear-gradient-27" x1="3502.95" y1="-3447.19" x2="3495.84" y2="-3459.49" xlink:href="#linear-gradient-10"/><linearGradient id="linear-gradient-28" x1="3515" y1="-3455.35" x2="3510.29" y2="-3463.51" gradientTransform="matrix(0.01, -0.99, 1, 0, 3498.18, 3521.31)" xlink:href="#linear-gradient-2"/><linearGradient id="linear-gradient-29" x1="3597.21" y1="-4356.36" x2="3592.5" y2="-4364.52" xlink:href="#linear-gradient-2"/><linearGradient id="linear-gradient-30" x1="3508.16" y1="-3447.19" x2="3501.05" y2="-3459.49" xlink:href="#linear-gradient-10"/><linearGradient id="linear-gradient-31" x1="3520.28" y1="-3455.38" x2="3515.57" y2="-3463.54" gradientTransform="matrix(0.01, -0.99, 1, 0, 3498.18, 3521.31)" xlink:href="#linear-gradient-2"/><linearGradient id="linear-gradient-32" x1="3513.05" y1="-3447.19" x2="3505.95" y2="-3459.49" xlink:href="#linear-gradient-10"/><linearGradient id="linear-gradient-33" x1="3525.24" y1="-3455.41" x2="3520.53" y2="-3463.57" gradientTransform="matrix(0.01, -0.99, 1, 0, 3498.18, 3521.31)" xlink:href="#linear-gradient-2"/><linearGradient id="linear-gradient-34" x1="3518.11" y1="-3447.19" x2="3511.01" y2="-3459.49" xlink:href="#linear-gradient-10"/><linearGradient id="linear-gradient-35" x1="3530.36" y1="-3455.44" x2="3525.65" y2="-3463.6" gradientTransform="matrix(0.01, -0.99, 1, 0, 3498.18, 3521.31)" xlink:href="#linear-gradient-2"/><filter id="luminosity-noclip-36" x="68.45" y="-7694.8" width="16.37" height="32766" filterUnits="userSpaceOnUse" color-interpolation-filters="sRGB"><feFlood flood-color="#fff" result="bg"/><feBlend in="SourceGraphic" in2="bg"/></filter><mask id="mask-36" x="68.45" y="-7694.8" width="16.37" height="32766" maskUnits="userSpaceOnUse"><g class="cls-210"/></mask><linearGradient id="linear-gradient-36" x1="6408.24" y1="-3411.49" x2="6401.34" y2="-3423.45" gradientTransform="matrix(-0.63, -0.77, 0.77, -0.63, 6776.79, 2856.88)" xlink:href="#linear-gradient-10"/><filter id="luminosity-noclip-37" x="71.06" y="-7694.8" width="10.93" height="32766" filterUnits="userSpaceOnUse" color-interpolation-filters="sRGB"><feFlood flood-color="#fff" result="bg"/><feBlend in="SourceGraphic" in2="bg"/></filter><mask id="mask-37" x="71.06" y="-7694.8" width="10.93" height="32766" maskUnits="userSpaceOnUse"><g class="cls-209"/></mask><linearGradient id="linear-gradient-37" x1="6457.64" y1="-3436.52" x2="6453.06" y2="-3444.44" gradientTransform="matrix(-0.62, -0.77, 0.77, -0.63, 6745.96, 2841.86)" xlink:href="#linear-gradient-2"/><filter id="luminosity-noclip-38" x="49.3" y="-7694.8" width="14.17" height="32766" filterUnits="userSpaceOnUse" color-interpolation-filters="sRGB"><feFlood flood-color="#fff" result="bg"/><feBlend in="SourceGraphic" in2="bg"/></filter><mask id="mask-38" x="49.3" y="-7694.8" width="14.17" height="32766" maskUnits="userSpaceOnUse"><g class="cls-208"/></mask><linearGradient id="linear-gradient-38" x1="1891.96" y1="-3738.44" x2="1885.18" y2="-3750.18" gradientTransform="translate(2572.09 3384.32) rotate(-63.62)" xlink:href="#linear-gradient-10"/><filter id="luminosity-noclip-39" x="45.38" y="-7694.8" width="17.56" height="32766" filterUnits="userSpaceOnUse" color-interpolation-filters="sRGB"><feFlood flood-color="#fff" result="bg"/><feBlend in="SourceGraphic" in2="bg"/></filter><mask id="mask-39" x="45.38" y="-7694.8" width="17.56" height="32766" maskUnits="userSpaceOnUse"><g class="cls-207"/></mask><linearGradient id="linear-gradient-39" x1="3247.94" y1="-3414.6" x2="3262.19" y2="-3414.6" gradientTransform="translate(-1476.11 4491.51) rotate(-24.7)" gradientUnits="userSpaceOnUse"><stop offset="0"/><stop offset="0.49" stop-color="#b3b3b3"/><stop offset="0.95"/></linearGradient><linearGradient id="linear-gradient-40" x1="3588.84" y1="-4347.73" x2="3581.74" y2="-4360.03" xlink:href="#linear-gradient"/><filter id="luminosity-noclip-41" x="50.95" y="-7694.8" width="9.4" height="32766" filterUnits="userSpaceOnUse" color-interpolation-filters="sRGB"><feFlood flood-color="#fff" result="bg"/><feBlend in="SourceGraphic" in2="bg"/></filter><mask id="mask-41" x="50.95" y="-7694.8" width="9.4" height="32766" maskUnits="userSpaceOnUse"><g class="cls-206"/></mask><linearGradient id="linear-gradient-41" x1="1890.46" y1="-3741.11" x2="1885.97" y2="-3748.9" gradientTransform="translate(2572.09 3384.32) rotate(-63.62)" xlink:href="#linear-gradient-2"/><filter id="luminosity-noclip-42" x="33.61" y="56.61" width="17.43" height="6.44" filterUnits="userSpaceOnUse" color-interpolation-filters="sRGB"><feFlood flood-color="#fff" result="bg"/><feBlend in="SourceGraphic" in2="bg"/></filter><mask id="mask-42" x="33.61" y="56.61" width="17.43" height="6.44" maskUnits="userSpaceOnUse"><g class="cls-1"><path class="cls-2" d="M41.2,56.61c5.43,0,9.84,1.47,9.84,3.28,0,1.52-3.09,2.79-7.29,3.17L33.61,57.81A21.44,21.44,0,0,1,41.2,56.61Z"/></g></mask><linearGradient id="linear-gradient-42" x1="3579.21" y1="-4347.73" x2="3572.11" y2="-4360.03" gradientTransform="translate(4396.46 3634.8) rotate(-90)" gradientUnits="userSpaceOnUse"><stop offset="0.46" stop-color="#a4a1b6"/><stop offset="0.62" stop-color="#aaa8b9"/><stop offset="0.84" stop-color="#bbbac3"/><stop offset="1" stop-color="#ccc"/></linearGradient><radialGradient id="radial-gradient" cx="4778.52" cy="-6383.78" r="8.42" gradientTransform="matrix(0, -0.62, 0.62, 0, 4015.33, 3043.51)" gradientUnits="userSpaceOnUse"><stop offset="0.43" stop-color="#9999a1"/><stop offset="0.66" stop-color="#97979f"/><stop offset="0.75" stop-color="#909099"/><stop offset="0.81" stop-color="#85858f"/><stop offset="0.86" stop-color="#747480"/><stop offset="0.88" stop-color="#666674"/></radialGradient><filter id="luminosity-noclip-43" x="36.18" y="57.62" width="11.57" height="4.4" filterUnits="userSpaceOnUse" color-interpolation-filters="sRGB"><feFlood flood-color="#fff" result="bg"/><feBlend in="SourceGraphic" in2="bg"/></filter><mask id="mask-43" x="36.18" y="57.62" width="11.57" height="4.4" maskUnits="userSpaceOnUse"><g class="cls-13"><path class="cls-14" d="M41.23,57.62c3.62,0,6.53,1,6.52,2.24,0,1-2.07,1.91-4.87,2.16,3.71-2.2-1.51-4-6.7-3.58A13.88,13.88,0,0,1,41.23,57.62Z"/></g></mask><linearGradient id="linear-gradient-43" x1="3592.25" y1="-4356.33" x2="3587.54" y2="-4364.49" gradientTransform="matrix(0.01, -0.99, 1, 0, 4382.1, 3603.65)" gradientUnits="userSpaceOnUse"><stop offset="0.24" stop-color="#33334c"/><stop offset="1" stop-color="#8d99ad"/></linearGradient><filter id="luminosity-noclip-44" x="33.61" y="51.72" width="17.43" height="6.44" filterUnits="userSpaceOnUse" color-interpolation-filters="sRGB"><feFlood flood-color="#fff" result="bg"/><feBlend in="SourceGraphic" in2="bg"/></filter><mask id="mask-44" x="33.61" y="51.72" width="17.43" height="6.44" maskUnits="userSpaceOnUse"><g class="cls-35"><path class="cls-36" d="M41.2,51.72C46.63,51.72,51,53.18,51,55c0,1.52-3.09,2.79-7.29,3.17L33.61,52.91A21.46,21.46,0,0,1,41.2,51.72Z"/></g></mask><linearGradient id="linear-gradient-44" x1="3584.11" y1="-4347.73" x2="3577" y2="-4360.03" xlink:href="#linear-gradient-42"/><radialGradient id="radial-gradient-2" cx="4786.38" cy="-6383.78" r="8.42" xlink:href="#radial-gradient"/><filter id="luminosity-noclip-45" x="36.18" y="52.72" width="11.57" height="4.4" filterUnits="userSpaceOnUse" color-interpolation-filters="sRGB"><feFlood flood-color="#fff" result="bg"/><feBlend in="SourceGraphic" in2="bg"/></filter><mask id="mask-45" x="36.18" y="52.72" width="11.57" height="4.4" maskUnits="userSpaceOnUse"><g class="cls-57"><path class="cls-58" d="M41.23,52.72c3.62,0,6.53,1,6.52,2.24,0,1-2.07,1.91-4.87,2.17,3.71-2.2-1.51-4-6.7-3.59A13.88,13.88,0,0,1,41.23,52.72Z"/></g></mask><linearGradient id="linear-gradient-45" x1="3597.21" y1="-4356.36" x2="3592.5" y2="-4364.52" xlink:href="#linear-gradient-43"/><filter id="luminosity-noclip-46" x="33.61" y="46.98" width="17.43" height="6.44" filterUnits="userSpaceOnUse" color-interpolation-filters="sRGB"><feFlood flood-color="#fff" result="bg"/><feBlend in="SourceGraphic" in2="bg"/></filter><mask id="mask-46" x="33.61" y="46.98" width="17.43" height="6.44" maskUnits="userSpaceOnUse"><g class="cls-79"><path class="cls-80" d="M41.2,47C46.63,47,51,48.45,51,50.25c0,1.52-3.09,2.8-7.29,3.17L33.61,48.17A21.46,21.46,0,0,1,41.2,47Z"/></g></mask><linearGradient id="linear-gradient-46" x1="3588.84" y1="-4347.73" x2="3581.74" y2="-4360.03" xlink:href="#linear-gradient-42"/><radialGradient id="radial-gradient-3" cx="4793.98" cy="-6383.78" r="8.42" gradientTransform="matrix(0, -0.62, 0.62, 0, 4015.32, 3043.51)" xlink:href="#radial-gradient"/><filter id="luminosity-noclip-47" x="36.18" y="47.99" width="11.57" height="4.4" filterUnits="userSpaceOnUse" color-interpolation-filters="sRGB"><feFlood flood-color="#fff" result="bg"/><feBlend in="SourceGraphic" in2="bg"/></filter><mask id="mask-47" x="36.18" y="47.99" width="11.57" height="4.4" maskUnits="userSpaceOnUse"><g class="cls-3"><path class="cls-4" d="M41.23,48c3.62,0,6.53,1,6.52,2.23,0,1-2.07,1.91-4.87,2.17,3.71-2.2-1.51-4-6.7-3.59A13.9,13.9,0,0,1,41.23,48Z"/></g></mask><linearGradient id="linear-gradient-47" x1="3602.01" y1="-4356.39" x2="3597.3" y2="-4364.55" xlink:href="#linear-gradient-43"/><filter id="luminosity-noclip-48" x="33.61" y="42.08" width="17.43" height="6.44" filterUnits="userSpaceOnUse" color-interpolation-filters="sRGB"><feFlood flood-color="#fff" result="bg"/><feBlend in="SourceGraphic" in2="bg"/></filter><mask id="mask-48" x="33.61" y="42.08" width="17.43" height="6.44" maskUnits="userSpaceOnUse"><g class="cls-5"><path class="cls-6" d="M41.2,42.08c5.43,0,9.84,1.47,9.84,3.28,0,1.51-3.09,2.79-7.29,3.16L33.61,43.27A21.7,21.7,0,0,1,41.2,42.08Z"/></g></mask><linearGradient id="linear-gradient-48" x1="3593.74" y1="-4347.73" x2="3586.64" y2="-4360.03" xlink:href="#linear-gradient-42"/><radialGradient id="radial-gradient-4" cx="4801.84" cy="-6383.78" r="8.42" gradientTransform="matrix(0, -0.62, 0.62, 0, 4015.31, 3043.51)" xlink:href="#radial-gradient"/><filter id="luminosity-noclip-49" x="36.18" y="43.09" width="11.57" height="4.4" filterUnits="userSpaceOnUse" color-interpolation-filters="sRGB"><feFlood flood-color="#fff" result="bg"/><feBlend in="SourceGraphic" in2="bg"/></filter><mask id="mask-49" x="36.18" y="43.09" width="11.57" height="4.4" maskUnits="userSpaceOnUse"><g class="cls-7"><path class="cls-8" d="M41.23,43.09c3.62,0,6.53,1,6.52,2.24,0,1-2.07,1.91-4.87,2.16,3.71-2.2-1.51-4-6.7-3.59A14.12,14.12,0,0,1,41.23,43.09Z"/></g></mask><linearGradient id="linear-gradient-49" x1="3606.97" y1="-4356.41" x2="3602.26" y2="-4364.57" xlink:href="#linear-gradient-43"/><filter id="luminosity-noclip-50" x="84" y="49.82" width="17.43" height="6.44" filterUnits="userSpaceOnUse" color-interpolation-filters="sRGB"><feFlood flood-color="#fff" result="bg"/><feBlend in="SourceGraphic" in2="bg"/></filter><mask id="mask-50" x="84" y="49.82" width="17.43" height="6.44" maskUnits="userSpaceOnUse"><g class="cls-9"><path class="cls-10" d="M91.59,49.82c5.43,0,9.84,1.47,9.84,3.28,0,1.51-3.09,2.79-7.29,3.16L84,51A21.61,21.61,0,0,1,91.59,49.82Z"/></g></mask><linearGradient id="linear-gradient-50" x1="3586" y1="-4297.34" x2="3578.9" y2="-4309.64" xlink:href="#linear-gradient-42"/><radialGradient id="radial-gradient-5" cx="4789.42" cy="-6302.93" r="8.42" gradientTransform="translate(4015.32 3043.44) rotate(-89.92) scale(0.62)" xlink:href="#radial-gradient"/><filter id="luminosity-noclip-51" x="86.57" y="50.83" width="11.57" height="4.4" filterUnits="userSpaceOnUse" color-interpolation-filters="sRGB"><feFlood flood-color="#fff" result="bg"/><feBlend in="SourceGraphic" in2="bg"/></filter><mask id="mask-51" x="86.57" y="50.83" width="11.57" height="4.4" maskUnits="userSpaceOnUse"><g class="cls-11"><path class="cls-12" d="M91.62,50.83c3.62,0,6.53,1,6.52,2.24,0,1-2.08,1.91-4.87,2.16,3.71-2.2-1.51-4-6.7-3.59A14.12,14.12,0,0,1,91.62,50.83Z"/></g></mask><linearGradient id="linear-gradient-51" x1="3599.13" y1="-4305.98" x2="3594.42" y2="-4314.14" xlink:href="#linear-gradient-43"/><filter id="luminosity-noclip-52" x="84" y="44.93" width="17.43" height="6.44" filterUnits="userSpaceOnUse" color-interpolation-filters="sRGB"><feFlood flood-color="#fff" result="bg"/><feBlend in="SourceGraphic" in2="bg"/></filter><mask id="mask-52" x="84" y="44.93" width="17.43" height="6.44" maskUnits="userSpaceOnUse"><g class="cls-15"><path class="cls-16" d="M91.59,44.93c5.43,0,9.84,1.46,9.84,3.27,0,1.52-3.09,2.79-7.29,3.17L84,46.12A21.38,21.38,0,0,1,91.59,44.93Z"/></g></mask><linearGradient id="linear-gradient-52" x1="3590.9" y1="-4297.34" x2="3583.79" y2="-4309.64" xlink:href="#linear-gradient-42"/><radialGradient id="radial-gradient-6" cx="4797.27" cy="-6302.93" r="8.42" gradientTransform="translate(4015.32 3043.44) rotate(-89.92) scale(0.62)" xlink:href="#radial-gradient"/><filter id="luminosity-noclip-53" x="86.57" y="45.93" width="11.57" height="4.4" filterUnits="userSpaceOnUse" color-interpolation-filters="sRGB"><feFlood flood-color="#fff" result="bg"/><feBlend in="SourceGraphic" in2="bg"/></filter><mask id="mask-53" x="86.57" y="45.93" width="11.57" height="4.4" maskUnits="userSpaceOnUse"><g class="cls-17"><path class="cls-18" d="M91.62,45.93c3.62,0,6.53,1,6.52,2.24,0,1-2.08,1.91-4.87,2.16,3.71-2.2-1.51-4-6.7-3.58A13.88,13.88,0,0,1,91.62,45.93Z"/></g></mask><linearGradient id="linear-gradient-53" x1="3604.09" y1="-4306.01" x2="3599.38" y2="-4314.17" xlink:href="#linear-gradient-43"/><filter id="luminosity-noclip-54" x="67.61" y="54.8" width="17.43" height="6.44" filterUnits="userSpaceOnUse" color-interpolation-filters="sRGB"><feFlood flood-color="#fff" result="bg"/><feBlend in="SourceGraphic" in2="bg"/></filter><mask id="mask-54" x="67.61" y="54.8" width="17.43" height="6.44" maskUnits="userSpaceOnUse"><g class="cls-19"><path class="cls-20" d="M75.2,54.8c5.43,0,9.84,1.47,9.84,3.28,0,1.51-3.09,2.79-7.29,3.16L67.61,56A21.61,21.61,0,0,1,75.2,54.8Z"/></g></mask><linearGradient id="linear-gradient-54" x1="3498.68" y1="-3429.82" x2="3491.58" y2="-3442.12" gradientTransform="translate(3512.55 3552.46) rotate(-90)" gradientUnits="userSpaceOnUse"><stop offset="0.58" stop-color="#ffb700"/><stop offset="0.65" stop-color="#ffba07"/><stop offset="0.74" stop-color="#ffc319"/><stop offset="0.84" stop-color="#ffd237"/><stop offset="0.96" stop-color="#ffe661"/><stop offset="1" stop-color="#ffee72"/></linearGradient><radialGradient id="radial-gradient-7" cx="4649.3" cy="-4910.88" r="8.42" gradientTransform="translate(3131.54 2959.85) rotate(-89.92) scale(0.62)" gradientUnits="userSpaceOnUse"><stop offset="0.43" stop-color="#f7b000"/><stop offset="0.7" stop-color="#f7ae00"/><stop offset="0.8" stop-color="#f6a701"/><stop offset="0.88" stop-color="#f49c03"/><stop offset="0.91" stop-color="#f39404"/></radialGradient><filter id="luminosity-noclip-55" x="70.18" y="55.81" width="11.57" height="4.4" filterUnits="userSpaceOnUse" color-interpolation-filters="sRGB"><feFlood flood-color="#fff" result="bg"/><feBlend in="SourceGraphic" in2="bg"/></filter><mask id="mask-55" x="70.18" y="55.81" width="11.57" height="4.4" maskUnits="userSpaceOnUse"><g class="cls-21"><path class="cls-22" d="M75.23,55.81c3.61,0,6.53,1,6.52,2.24,0,1-2.08,1.91-4.87,2.16,3.71-2.2-1.51-4-6.7-3.59A14.12,14.12,0,0,1,75.23,55.81Z"/></g></mask><linearGradient id="linear-gradient-55" x1="3510.68" y1="-3437.95" x2="3505.97" y2="-3446.11" gradientTransform="matrix(0.01, -0.99, 1, 0, 3498.18, 3521.31)" gradientUnits="userSpaceOnUse"><stop offset="0.24" stop-color="#ef7c07"/><stop offset="1" stop-color="#f7b000"/></linearGradient><filter id="luminosity-noclip-56" x="67.61" y="49.59" width="17.43" height="6.44" filterUnits="userSpaceOnUse" color-interpolation-filters="sRGB"><feFlood flood-color="#fff" result="bg"/><feBlend in="SourceGraphic" in2="bg"/></filter><mask id="mask-56" x="67.61" y="49.59" width="17.43" height="6.44" maskUnits="userSpaceOnUse"><g class="cls-23"><path class="cls-24" d="M75.2,49.59c5.43,0,9.84,1.47,9.84,3.28C85,54.38,82,55.66,77.75,56L67.61,50.78A21.38,21.38,0,0,1,75.2,49.59Z"/></g></mask><linearGradient id="linear-gradient-56" x1="3503.89" y1="-3429.82" x2="3496.79" y2="-3442.12" xlink:href="#linear-gradient-54"/><radialGradient id="radial-gradient-8" cx="4657.66" cy="-4910.88" r="8.42" gradientTransform="translate(3131.53 2959.85) rotate(-89.92) scale(0.62)" xlink:href="#radial-gradient-7"/><filter id="luminosity-noclip-57" x="70.18" y="50.6" width="11.57" height="4.4" filterUnits="userSpaceOnUse" color-interpolation-filters="sRGB"><feFlood flood-color="#fff" result="bg"/><feBlend in="SourceGraphic" in2="bg"/></filter><mask id="mask-57" x="70.18" y="50.6" width="11.57" height="4.4" maskUnits="userSpaceOnUse"><g class="cls-25"><path class="cls-26" d="M75.23,50.6c3.61,0,6.53,1,6.52,2.24,0,1-2.08,1.9-4.87,2.16,3.71-2.2-1.51-4-6.7-3.59A13.9,13.9,0,0,1,75.23,50.6Z"/></g></mask><linearGradient id="linear-gradient-57" x1="3515.96" y1="-3437.98" x2="3511.25" y2="-3446.14" xlink:href="#linear-gradient-55"/><filter id="luminosity-noclip-58" x="67.61" y="44.69" width="17.43" height="6.44" filterUnits="userSpaceOnUse" color-interpolation-filters="sRGB"><feFlood flood-color="#fff" result="bg"/><feBlend in="SourceGraphic" in2="bg"/></filter><mask id="mask-58" x="67.61" y="44.69" width="17.43" height="6.44" maskUnits="userSpaceOnUse"><g class="cls-27"><path class="cls-28" d="M75.2,44.69C80.63,44.69,85,46.16,85,48c0,1.51-3.09,2.79-7.29,3.16L67.61,45.89A21.36,21.36,0,0,1,75.2,44.69Z"/></g></mask><linearGradient id="linear-gradient-58" x1="3508.79" y1="-3429.82" x2="3501.69" y2="-3442.12" xlink:href="#linear-gradient-54"/><radialGradient id="radial-gradient-9" cx="4665.52" cy="-4910.88" r="8.42" gradientTransform="translate(3131.52 2959.85) rotate(-89.92) scale(0.62)" xlink:href="#radial-gradient-7"/><filter id="luminosity-noclip-59" x="70.18" y="45.7" width="11.57" height="4.4" filterUnits="userSpaceOnUse" color-interpolation-filters="sRGB"><feFlood flood-color="#fff" result="bg"/><feBlend in="SourceGraphic" in2="bg"/></filter><mask id="mask-59" x="70.18" y="45.7" width="11.57" height="4.4" maskUnits="userSpaceOnUse"><g class="cls-29"><path class="cls-30" d="M75.23,45.7c3.61,0,6.53,1,6.52,2.24,0,1-2.08,1.91-4.87,2.16,3.71-2.2-1.51-4-6.7-3.58A13.88,13.88,0,0,1,75.23,45.7Z"/></g></mask><linearGradient id="linear-gradient-59" x1="3520.92" y1="-3438.01" x2="3516.21" y2="-3446.17" xlink:href="#linear-gradient-55"/><filter id="luminosity-noclip-60" x="67.61" y="39.64" width="17.43" height="6.44" filterUnits="userSpaceOnUse" color-interpolation-filters="sRGB"><feFlood flood-color="#fff" result="bg"/><feBlend in="SourceGraphic" in2="bg"/></filter><mask id="mask-60" x="67.61" y="39.64" width="17.43" height="6.44" maskUnits="userSpaceOnUse"><g class="cls-31"><path class="cls-32" d="M75.2,39.64c5.43,0,9.84,1.47,9.84,3.27,0,1.52-3.09,2.8-7.29,3.17L67.61,40.83A21.38,21.38,0,0,1,75.2,39.64Z"/></g></mask><linearGradient id="linear-gradient-60" x1="3513.84" y1="-3429.82" x2="3506.74" y2="-3442.12" xlink:href="#linear-gradient-54"/><radialGradient id="radial-gradient-10" cx="4673.63" cy="-4910.88" r="8.42" gradientTransform="translate(3131.52 2959.85) rotate(-89.92) scale(0.62)" xlink:href="#radial-gradient-7"/><filter id="luminosity-noclip-61" x="70.18" y="40.65" width="11.57" height="4.4" filterUnits="userSpaceOnUse" color-interpolation-filters="sRGB"><feFlood flood-color="#fff" result="bg"/><feBlend in="SourceGraphic" in2="bg"/></filter><mask id="mask-61" x="70.18" y="40.65" width="11.57" height="4.4" maskUnits="userSpaceOnUse"><g class="cls-33"><path class="cls-34" d="M75.23,40.65c3.61,0,6.53,1,6.52,2.23,0,1-2.08,1.91-4.87,2.17,3.71-2.2-1.51-4-6.7-3.59A13.9,13.9,0,0,1,75.23,40.65Z"/></g></mask><linearGradient id="linear-gradient-61" x1="3526.04" y1="-3438.04" x2="3521.33" y2="-3446.2" xlink:href="#linear-gradient-55"/><filter id="luminosity-noclip-62" x="79.61" y="58.12" width="17.43" height="6.44" filterUnits="userSpaceOnUse" color-interpolation-filters="sRGB"><feFlood flood-color="#fff" result="bg"/><feBlend in="SourceGraphic" in2="bg"/></filter><mask id="mask-62" x="79.61" y="58.12" width="17.43" height="6.44" maskUnits="userSpaceOnUse"><g class="cls-37"><path class="cls-38" d="M87.2,58.12c5.44,0,9.84,1.47,9.84,3.28,0,1.51-3.09,2.79-7.28,3.16L79.61,59.31A21.46,21.46,0,0,1,87.2,58.12Z"/></g></mask><linearGradient id="linear-gradient-62" x1="3495.36" y1="-3417.81" x2="3488.26" y2="-3430.11" xlink:href="#linear-gradient-54"/><radialGradient id="radial-gradient-11" cx="4643.98" cy="-4891.62" r="8.42" gradientTransform="translate(3131.54 2959.83) rotate(-89.92) scale(0.62)" xlink:href="#radial-gradient-7"/><filter id="luminosity-noclip-63" x="82.18" y="59.13" width="11.57" height="4.4" filterUnits="userSpaceOnUse" color-interpolation-filters="sRGB"><feFlood flood-color="#fff" result="bg"/><feBlend in="SourceGraphic" in2="bg"/></filter><mask id="mask-63" x="82.18" y="59.13" width="11.57" height="4.4" maskUnits="userSpaceOnUse"><g class="cls-39"><path class="cls-40" d="M87.24,59.13c3.61,0,6.53,1,6.51,2.24,0,1-2.07,1.9-4.86,2.16,3.7-2.2-1.52-4-6.71-3.59A14,14,0,0,1,87.24,59.13Z"/></g></mask><linearGradient id="linear-gradient-63" x1="3507.32" y1="-3425.93" x2="3502.61" y2="-3434.09" xlink:href="#linear-gradient-55"/><filter id="luminosity-noclip-64" x="79.61" y="52.91" width="17.43" height="6.44" filterUnits="userSpaceOnUse" color-interpolation-filters="sRGB"><feFlood flood-color="#fff" result="bg"/><feBlend in="SourceGraphic" in2="bg"/></filter><mask id="mask-64" x="79.61" y="52.91" width="17.43" height="6.44" maskUnits="userSpaceOnUse"><g class="cls-41"><path class="cls-42" d="M87.2,52.91c5.44,0,9.84,1.46,9.84,3.27C97,57.7,94,59,89.76,59.35L79.61,54.1A21.46,21.46,0,0,1,87.2,52.91Z"/></g></mask><linearGradient id="linear-gradient-64" x1="3500.58" y1="-3417.81" x2="3493.47" y2="-3430.11" xlink:href="#linear-gradient-54"/><radialGradient id="radial-gradient-12" cx="4652.34" cy="-4891.62" r="8.42" gradientTransform="translate(3131.54 2959.83) rotate(-89.92) scale(0.62)" xlink:href="#radial-gradient-7"/><filter id="luminosity-noclip-65" x="82.18" y="53.91" width="11.57" height="4.4" filterUnits="userSpaceOnUse" color-interpolation-filters="sRGB"><feFlood flood-color="#fff" result="bg"/><feBlend in="SourceGraphic" in2="bg"/></filter><mask id="mask-65" x="82.18" y="53.91" width="11.57" height="4.4" maskUnits="userSpaceOnUse"><g class="cls-43"><path class="cls-44" d="M87.24,53.91c3.61,0,6.53,1,6.51,2.24,0,1-2.07,1.91-4.86,2.17,3.7-2.2-1.52-4-6.71-3.59A14,14,0,0,1,87.24,53.91Z"/></g></mask><linearGradient id="linear-gradient-65" x1="3512.6" y1="-3425.96" x2="3507.89" y2="-3434.12" xlink:href="#linear-gradient-55"/><filter id="luminosity-noclip-66" x="50.23" y="60.65" width="17.43" height="6.44" filterUnits="userSpaceOnUse" color-interpolation-filters="sRGB"><feFlood flood-color="#fff" result="bg"/><feBlend in="SourceGraphic" in2="bg"/></filter><mask id="mask-66" x="50.23" y="60.65" width="17.43" height="6.44" maskUnits="userSpaceOnUse"><g class="cls-45"><path class="cls-46" d="M57.82,60.65c5.44,0,9.84,1.46,9.84,3.27,0,1.52-3.09,2.79-7.28,3.17L50.23,61.84A21.46,21.46,0,0,1,57.82,60.65Z"/></g></mask><linearGradient id="linear-gradient-66" x1="3492.84" y1="-3447.19" x2="3485.73" y2="-3459.49" xlink:href="#linear-gradient-54"/><radialGradient id="radial-gradient-13" cx="4639.92" cy="-4938.76" r="8.42" gradientTransform="matrix(0, -0.62, 0.62, 0, 3131.55, 2959.88)" xlink:href="#radial-gradient-7"/><filter id="luminosity-noclip-67" x="52.8" y="61.65" width="11.57" height="4.4" filterUnits="userSpaceOnUse" color-interpolation-filters="sRGB"><feFlood flood-color="#fff" result="bg"/><feBlend in="SourceGraphic" in2="bg"/></filter><mask id="mask-67" x="52.8" y="61.65" width="11.57" height="4.4" maskUnits="userSpaceOnUse"><g class="cls-47"><path class="cls-48" d="M57.86,61.65c3.61,0,6.53,1,6.51,2.24,0,1-2.07,1.91-4.86,2.17,3.7-2.2-1.52-4-6.71-3.59A14,14,0,0,1,57.86,61.65Z"/></g></mask><linearGradient id="linear-gradient-67" x1="3504.76" y1="-3455.3" x2="3500.05" y2="-3463.45" xlink:href="#linear-gradient-55"/><filter id="luminosity-noclip-68" x="50.23" y="55.43" width="17.43" height="6.44" filterUnits="userSpaceOnUse" color-interpolation-filters="sRGB"><feFlood flood-color="#fff" result="bg"/><feBlend in="SourceGraphic" in2="bg"/></filter><mask id="mask-68" x="50.23" y="55.43" width="17.43" height="6.44" maskUnits="userSpaceOnUse"><g class="cls-49"><path class="cls-50" d="M57.82,55.43c5.44,0,9.84,1.47,9.84,3.28,0,1.52-3.09,2.79-7.28,3.17L50.23,56.63A21.44,21.44,0,0,1,57.82,55.43Z"/></g></mask><linearGradient id="linear-gradient-68" x1="3498.05" y1="-3447.19" x2="3490.94" y2="-3459.49" xlink:href="#linear-gradient-54"/><radialGradient id="radial-gradient-14" cx="4648.29" cy="-4938.76" r="8.42" gradientTransform="translate(3131.54 2959.88) rotate(-89.92) scale(0.62)" xlink:href="#radial-gradient-7"/><filter id="luminosity-noclip-69" x="52.8" y="56.44" width="11.57" height="4.4" filterUnits="userSpaceOnUse" color-interpolation-filters="sRGB"><feFlood flood-color="#fff" result="bg"/><feBlend in="SourceGraphic" in2="bg"/></filter><mask id="mask-69" x="52.8" y="56.44" width="11.57" height="4.4" maskUnits="userSpaceOnUse"><g class="cls-51"><path class="cls-52" d="M57.86,56.44c3.61,0,6.53,1,6.51,2.24,0,1-2.07,1.91-4.86,2.16,3.7-2.2-1.52-4-6.71-3.58A14,14,0,0,1,57.86,56.44Z"/></g></mask><linearGradient id="linear-gradient-69" x1="3510.04" y1="-3455.33" x2="3505.33" y2="-3463.48" xlink:href="#linear-gradient-55"/><filter id="luminosity-noclip-70" x="50.23" y="50.54" width="17.43" height="6.44" filterUnits="userSpaceOnUse" color-interpolation-filters="sRGB"><feFlood flood-color="#fff" result="bg"/><feBlend in="SourceGraphic" in2="bg"/></filter><mask id="mask-70" x="50.23" y="50.54" width="17.43" height="6.44" maskUnits="userSpaceOnUse"><g class="cls-53"><path class="cls-54" d="M57.82,50.54c5.44,0,9.84,1.46,9.84,3.27,0,1.52-3.09,2.79-7.28,3.17L50.23,51.73A21.46,21.46,0,0,1,57.82,50.54Z"/></g></mask><linearGradient id="linear-gradient-70" x1="3502.95" y1="-3447.19" x2="3495.84" y2="-3459.49" xlink:href="#linear-gradient-54"/><radialGradient id="radial-gradient-15" cx="4656.14" cy="-4938.76" r="8.42" gradientTransform="translate(3131.53 2959.88) rotate(-89.92) scale(0.62)" xlink:href="#radial-gradient-7"/><filter id="luminosity-noclip-71" x="52.8" y="51.54" width="11.57" height="4.4" filterUnits="userSpaceOnUse" color-interpolation-filters="sRGB"><feFlood flood-color="#fff" result="bg"/><feBlend in="SourceGraphic" in2="bg"/></filter><mask id="mask-71" x="52.8" y="51.54" width="11.57" height="4.4" maskUnits="userSpaceOnUse"><g class="cls-55"><path class="cls-56" d="M57.86,51.54c3.61,0,6.53,1,6.51,2.24,0,1-2.07,1.91-4.86,2.17,3.7-2.2-1.52-4-6.71-3.59A14,14,0,0,1,57.86,51.54Z"/></g></mask><linearGradient id="linear-gradient-71" x1="3515" y1="-3455.35" x2="3510.29" y2="-3463.51" xlink:href="#linear-gradient-55"/><filter id="luminosity-noclip-72" x="50.23" y="45.33" width="17.43" height="6.44" filterUnits="userSpaceOnUse" color-interpolation-filters="sRGB"><feFlood flood-color="#fff" result="bg"/><feBlend in="SourceGraphic" in2="bg"/></filter><mask id="mask-72" x="50.23" y="45.33" width="17.43" height="6.44" maskUnits="userSpaceOnUse"><g class="cls-59"><path class="cls-60" d="M57.82,45.33c5.44,0,9.84,1.46,9.84,3.27,0,1.52-3.09,2.79-7.28,3.17L50.23,46.52A21.46,21.46,0,0,1,57.82,45.33Z"/></g></mask><linearGradient id="linear-gradient-72" x1="3508.16" y1="-3447.19" x2="3501.05" y2="-3459.49" xlink:href="#linear-gradient-54"/><radialGradient id="radial-gradient-16" cx="4664.51" cy="-4938.76" r="8.42" gradientTransform="translate(3131.52 2959.88) rotate(-89.92) scale(0.62)" xlink:href="#radial-gradient-7"/><filter id="luminosity-noclip-73" x="52.8" y="46.33" width="11.57" height="4.4" filterUnits="userSpaceOnUse" color-interpolation-filters="sRGB"><feFlood flood-color="#fff" result="bg"/><feBlend in="SourceGraphic" in2="bg"/></filter><mask id="mask-73" x="52.8" y="46.33" width="11.57" height="4.4" maskUnits="userSpaceOnUse"><g class="cls-61"><path class="cls-62" d="M57.86,46.33c3.61,0,6.53,1,6.51,2.24,0,1-2.07,1.91-4.86,2.16,3.7-2.2-1.52-4-6.71-3.58A14,14,0,0,1,57.86,46.33Z"/></g></mask><linearGradient id="linear-gradient-73" x1="3520.28" y1="-3455.38" x2="3515.57" y2="-3463.54" xlink:href="#linear-gradient-55"/><filter id="luminosity-noclip-74" x="50.23" y="40.43" width="17.43" height="6.44" filterUnits="userSpaceOnUse" color-interpolation-filters="sRGB"><feFlood flood-color="#fff" result="bg"/><feBlend in="SourceGraphic" in2="bg"/></filter><mask id="mask-74" x="50.23" y="40.43" width="17.43" height="6.44" maskUnits="userSpaceOnUse"><g class="cls-63"><path class="cls-64" d="M57.82,40.43c5.44,0,9.84,1.47,9.84,3.27,0,1.52-3.09,2.8-7.28,3.17L50.23,41.62A21.46,21.46,0,0,1,57.82,40.43Z"/></g></mask><linearGradient id="linear-gradient-74" x1="3513.05" y1="-3447.19" x2="3505.95" y2="-3459.49" xlink:href="#linear-gradient-54"/><radialGradient id="radial-gradient-17" cx="4672.37" cy="-4938.76" r="8.42" gradientTransform="matrix(0, -0.62, 0.62, 0, 3131.52, 2959.88)" xlink:href="#radial-gradient-7"/><filter id="luminosity-noclip-75" x="52.8" y="41.44" width="11.57" height="4.4" filterUnits="userSpaceOnUse" color-interpolation-filters="sRGB"><feFlood flood-color="#fff" result="bg"/><feBlend in="SourceGraphic" in2="bg"/></filter><mask id="mask-75" x="52.8" y="41.44" width="11.57" height="4.4" maskUnits="userSpaceOnUse"><g class="cls-65"><path class="cls-66" d="M57.86,41.44c3.61,0,6.53,1,6.51,2.23,0,1-2.07,1.91-4.86,2.17,3.7-2.2-1.52-4-6.71-3.59A14,14,0,0,1,57.86,41.44Z"/></g></mask><linearGradient id="linear-gradient-75" x1="3525.24" y1="-3455.41" x2="3520.53" y2="-3463.57" xlink:href="#linear-gradient-55"/><filter id="luminosity-noclip-76" x="50.23" y="35.37" width="17.43" height="6.44" filterUnits="userSpaceOnUse" color-interpolation-filters="sRGB"><feFlood flood-color="#fff" result="bg"/><feBlend in="SourceGraphic" in2="bg"/></filter><mask id="mask-76" x="50.23" y="35.37" width="17.43" height="6.44" maskUnits="userSpaceOnUse"><g class="cls-67"><path class="cls-68" d="M57.82,35.37c5.44,0,9.84,1.47,9.84,3.28,0,1.52-3.09,2.79-7.28,3.16L50.23,36.57A21.44,21.44,0,0,1,57.82,35.37Z"/></g></mask><linearGradient id="linear-gradient-76" x1="3518.11" y1="-3447.19" x2="3511.01" y2="-3459.49" xlink:href="#linear-gradient-54"/><radialGradient id="radial-gradient-18" cx="4680.48" cy="-4938.76" r="8.42" gradientTransform="matrix(0, -0.62, 0.62, 0, 3131.51, 2959.88)" xlink:href="#radial-gradient-7"/><filter id="luminosity-noclip-77" x="52.8" y="36.38" width="11.57" height="4.4" filterUnits="userSpaceOnUse" color-interpolation-filters="sRGB"><feFlood flood-color="#fff" result="bg"/><feBlend in="SourceGraphic" in2="bg"/></filter><mask id="mask-77" x="52.8" y="36.38" width="11.57" height="4.4" maskUnits="userSpaceOnUse"><g class="cls-69"><path class="cls-70" d="M57.86,36.38c3.61,0,6.53,1,6.51,2.24,0,1-2.07,1.91-4.86,2.16,3.7-2.2-1.52-4-6.71-3.58A14,14,0,0,1,57.86,36.38Z"/></g></mask><linearGradient id="linear-gradient-77" x1="3530.36" y1="-3455.44" x2="3525.65" y2="-3463.6" xlink:href="#linear-gradient-55"/><filter id="luminosity-noclip-78" x="68.45" y="55.6" width="16.37" height="9.87" filterUnits="userSpaceOnUse" color-interpolation-filters="sRGB"><feFlood flood-color="#fff" result="bg"/><feBlend in="SourceGraphic" in2="bg"/></filter><mask id="mask-78" x="68.45" y="55.6" width="16.37" height="9.87" maskUnits="userSpaceOnUse"><g class="cls-71"><path class="cls-72" d="M73.09,58.93c4.2-3.44,9.13-4.37,11-2.08,1.57,1.92.5,5.49-2.36,8.62l-13.28-.23A14.08,14.08,0,0,1,73.09,58.93Z"/></g></mask><linearGradient id="linear-gradient-78" x1="6408.24" y1="-3411.49" x2="6401.34" y2="-3423.45" gradientTransform="matrix(-0.63, -0.77, 0.77, -0.63, 6776.79, 2856.88)" xlink:href="#linear-gradient-54"/><radialGradient id="radial-gradient-19" cx="9317.86" cy="-4881.86" r="9.13" gradientTransform="translate(3101.22 5879.05) rotate(-89.83) scale(0.62)" xlink:href="#radial-gradient-7"/><filter id="luminosity-noclip-79" x="71.06" y="58.03" width="10.93" height="6.71" filterUnits="userSpaceOnUse" color-interpolation-filters="sRGB"><feFlood flood-color="#fff" result="bg"/><feBlend in="SourceGraphic" in2="bg"/></filter><mask id="mask-79" x="71.06" y="58.03" width="10.93" height="6.71" maskUnits="userSpaceOnUse"><g class="cls-73"><path class="cls-74" d="M74.13,60.21c2.8-2.29,6.09-2.87,7.36-1.29,1.07,1.32.37,3.72-1.53,5.82.6-5.14-5.29-4.09-8.9-.3A9.22,9.22,0,0,1,74.13,60.21Z"/></g></mask><linearGradient id="linear-gradient-79" x1="6457.64" y1="-3436.52" x2="6453.06" y2="-3444.44" gradientTransform="matrix(-0.62, -0.77, 0.77, -0.63, 6745.96, 2841.86)" xlink:href="#linear-gradient-55"/><filter id="luminosity-noclip-80" x="49.3" y="21.43" width="14.17" height="15.31" filterUnits="userSpaceOnUse" color-interpolation-filters="sRGB"><feFlood flood-color="#fff" result="bg"/><feBlend in="SourceGraphic" in2="bg"/></filter><mask id="mask-80" x="49.3" y="21.43" width="14.17" height="15.31" maskUnits="userSpaceOnUse"><g class="cls-75"><path class="cls-76" d="M57.23,22.8c4.87,2.42,7.42,7.19,5.7,10.66-1.44,2.9-5.42,4-9.54,2.83L49.3,21.72A11.64,11.64,0,0,1,57.23,22.8Z"/></g></mask><linearGradient id="linear-gradient-80" x1="1891.96" y1="-3738.44" x2="1885.18" y2="-3750.18" gradientTransform="translate(2572.09 3384.32) rotate(-63.62)" xlink:href="#linear-gradient-54"/><filter id="luminosity-noclip-81" x="45.38" y="21.86" width="17.56" height="14.38" filterUnits="userSpaceOnUse" color-interpolation-filters="sRGB"><feFlood flood-color="#fff" result="bg"/><feBlend in="SourceGraphic" in2="bg"/></filter><mask id="mask-81" x="45.38" y="21.86" width="17.56" height="14.38" maskUnits="userSpaceOnUse"><g class="cls-77"><ellipse class="cls-78" cx="54.16" cy="29.05" rx="6.59" ry="9.24" transform="translate(4.07 64.66) rotate(-63.62)"/></g></mask><linearGradient id="linear-gradient-81" x1="3247.94" y1="-3414.6" x2="3262.19" y2="-3414.6" gradientTransform="translate(-1476.11 4491.51) rotate(-24.7)" gradientUnits="userSpaceOnUse"><stop offset="0" stop-color="#ffc300"/><stop offset="0.49" stop-color="#fdffd0"/><stop offset="0.95" stop-color="#ffc300"/></linearGradient><radialGradient id="radial-gradient-20" cx="2070.71" cy="-5406.87" r="9.88" gradientTransform="translate(-1236.28 3398.55) scale(0.62)" xlink:href="#radial-gradient-7"/><filter id="luminosity-noclip-82" x="50.95" y="23.86" width="9.4" height="10.37" filterUnits="userSpaceOnUse" color-interpolation-filters="sRGB"><feFlood flood-color="#fff" result="bg"/><feBlend in="SourceGraphic" in2="bg"/></filter><mask id="mask-82" x="50.95" y="23.86" width="9.4" height="10.37" maskUnits="userSpaceOnUse"><g class="cls-81"><path class="cls-82" d="M56.25,24.75c3.23,1.61,4.9,4.83,3.73,7.2-1,2-3.66,2.75-6.4,2C59,31.36,56,25.61,51,24.07A7.68,7.68,0,0,1,56.25,24.75Z"/></g></mask><linearGradient id="linear-gradient-82" x1="1890.46" y1="-3741.11" x2="1885.97" y2="-3748.9" gradientTransform="translate(2572.09 3384.32) rotate(-63.62)" xlink:href="#linear-gradient-55"/><clipPath id="clip-path"><rect class="cls-83" x="-420.5" y="-926.2" width="1439" height="854"/></clipPath></defs><title>img_leaderboard_lower</title><g class="cls-84"><g id="_1" data-name=" 1"><ellipse class="cls-85" cx="65" cy="63.14" rx="65" ry="13.51"/><rect class="cls-86" x="47.05" y="60.45" width="4.31" height="3.62" transform="translate(111.46 13.05) rotate(90)"/><rect class="cls-87" x="30.6" y="60.85" width="4.31" height="2.81" transform="translate(95.01 29.5) rotate(90)"/><ellipse class="cls-88" cx="41.18" cy="64.21" rx="9.84" ry="3.28"/><path class="cls-86" d="M43.78,67.38C48,67,51,65.73,51,64.21S48,61.42,43.78,61L43.6,67.4Z"/><path class="cls-87" d="M36.05,61.41c-2.82.58-4.7,1.62-4.7,2.8s1.88,2.23,4.7,2.8l.16,0Z"/><ellipse class="cls-89" cx="41.18" cy="59.9" rx="9.84" ry="3.28"/><g class="cls-90"><path class="cls-91" d="M41.2,56.61c5.43,0,9.84,1.47,9.84,3.28,0,1.52-3.09,2.79-7.29,3.17L33.61,57.81A21.44,21.44,0,0,1,41.2,56.61Z"/></g><ellipse class="cls-92" cx="41.25" cy="59.82" rx="7.02" ry="2.4" transform="matrix(1, 0, 0, 1, -0.09, 0.06)"/><g class="cls-93"><path class="cls-94" d="M41.23,57.62c3.62,0,6.53,1,6.52,2.24,0,1-2.07,1.91-4.87,2.16,3.71-2.2-1.51-4-6.7-3.58A13.88,13.88,0,0,1,41.23,57.62Z"/></g><path class="cls-95" d="M41.64,61.83c-3.88,0-7-1.09-7-2.43a1,1,0,0,1,.21-.6,1.33,1.33,0,0,0-.61,1c0,1.35,3.15,2.44,7,2.44,3.28,0,6-.79,6.81-1.84C47,61.24,44.5,61.83,41.64,61.83Z"/><path class="cls-95" d="M45.72,60.23a1.79,1.79,0,0,1-.93,1l-1.42-.43c.49-.32.68-.57.68-.81s-.2-.42-.68-.42c-1,0-1.12,1.52-3.26,1.52-1.24,0-2.1-.33-2.35-.9H36.48v-.66h1.25a1.76,1.76,0,0,1,1-.89l1.2.5c-.39.21-.59.39-.59.61s.15.38.64.38c.93,0,1-1.52,3.21-1.52,1.19,0,2.12.3,2.43.92H47v.66Z"/><path class="cls-96" d="M45.45,60a1.83,1.83,0,0,1-.93,1l-1.42-.44c.49-.32.68-.56.68-.81s-.2-.41-.68-.41c-1,0-1.12,1.51-3.26,1.51-1.24,0-2.1-.33-2.36-.9H36.21v-.66h1.25a1.76,1.76,0,0,1,1-.89l1.2.5c-.39.21-.59.39-.59.61s.15.38.64.38c.93,0,1-1.52,3.21-1.52,1.19,0,2.12.3,2.43.92h1.3V60Z"/><rect class="cls-86" x="47.05" y="55.55" width="4.31" height="3.62" transform="translate(106.57 8.15) rotate(90)"/><rect class="cls-87" x="30.6" y="55.95" width="4.31" height="2.81" transform="translate(90.11 24.61) rotate(90)"/><ellipse class="cls-88" cx="41.18" cy="59.32" rx="9.84" ry="3.28"/><path class="cls-86" d="M43.78,62.48C48,62.1,51,60.83,51,59.32S48,56.53,43.78,56.15L43.6,62.5Z"/><path class="cls-87" d="M36.05,56.51c-2.82.58-4.7,1.62-4.7,2.81s1.88,2.22,4.7,2.8l.16,0Z"/><ellipse class="cls-89" cx="41.18" cy="55" rx="9.84" ry="3.28"/><g class="cls-97"><path class="cls-98" d="M41.2,51.72C46.63,51.72,51,53.18,51,55c0,1.52-3.09,2.79-7.29,3.17L33.61,52.91A21.46,21.46,0,0,1,41.2,51.72Z"/></g><ellipse class="cls-99" cx="41.25" cy="54.93" rx="7.02" ry="2.4" transform="matrix(1, 0, 0, 1, -0.08, 0.06)"/><g class="cls-100"><path class="cls-101" d="M41.23,52.72c3.62,0,6.53,1,6.52,2.24,0,1-2.07,1.91-4.87,2.17,3.71-2.2-1.51-4-6.7-3.59A13.88,13.88,0,0,1,41.23,52.72Z"/></g><path class="cls-95" d="M41.64,56.94c-3.88,0-7-1.09-7-2.44a1,1,0,0,1,.21-.59,1.3,1.3,0,0,0-.61,1c0,1.34,3.15,2.43,7,2.43,3.28,0,6-.78,6.81-1.84C47,56.34,44.5,56.94,41.64,56.94Z"/><path class="cls-95" d="M45.72,55.33a1.83,1.83,0,0,1-.93,1.05l-1.42-.44c.49-.32.68-.56.68-.81s-.2-.41-.68-.41c-1,0-1.12,1.52-3.26,1.52-1.24,0-2.1-.34-2.35-.91H36.48v-.66h1.25a1.79,1.79,0,0,1,1-.89l1.2.5c-.39.21-.59.4-.59.61s.15.38.64.38c.93,0,1-1.52,3.21-1.52,1.19,0,2.12.3,2.43.92H47v.66Z"/><path class="cls-96" d="M45.45,55.05a1.8,1.8,0,0,1-.93,1.05l-1.42-.44c.49-.31.68-.56.68-.81s-.2-.41-.68-.41c-1,0-1.12,1.52-3.26,1.52-1.24,0-2.1-.34-2.36-.91H36.21v-.66h1.25a1.76,1.76,0,0,1,1-.89l1.2.5c-.39.22-.59.4-.59.62s.15.37.64.37c.93,0,1-1.52,3.21-1.52,1.19,0,2.12.3,2.43.92h1.3v.66Z"/><rect class="cls-86" x="47.05" y="50.81" width="4.31" height="3.62" transform="translate(101.83 3.41) rotate(90)"/><rect class="cls-87" x="30.6" y="51.21" width="4.31" height="2.81" transform="translate(85.37 19.87) rotate(90)"/><ellipse class="cls-88" cx="41.18" cy="54.58" rx="9.84" ry="3.28"/><path class="cls-86" d="M43.78,57.74C48,57.36,51,56.09,51,54.58S48,51.79,43.78,51.41l-.18,6.35Z"/><path class="cls-87" d="M36.05,51.77c-2.82.58-4.7,1.62-4.7,2.81s1.88,2.22,4.7,2.8l.16,0Z"/><ellipse class="cls-89" cx="41.18" cy="50.26" rx="9.84" ry="3.28"/><g class="cls-102"><path class="cls-103" d="M41.2,47C46.63,47,51,48.45,51,50.25c0,1.52-3.09,2.8-7.29,3.17L33.61,48.17A21.46,21.46,0,0,1,41.2,47Z"/></g><ellipse class="cls-104" cx="41.25" cy="50.19" rx="7.02" ry="2.4" transform="matrix(1, 0, 0, 1, -0.07, 0.06)"/><g class="cls-105"><path class="cls-106" d="M41.23,48c3.62,0,6.53,1,6.52,2.23,0,1-2.07,1.91-4.87,2.17,3.71-2.2-1.51-4-6.7-3.59A13.9,13.9,0,0,1,41.23,48Z"/></g><path class="cls-95" d="M41.64,52.2c-3.88,0-7-1.09-7-2.44a1,1,0,0,1,.21-.59,1.3,1.3,0,0,0-.61,1c0,1.34,3.15,2.43,7,2.43,3.28,0,6-.78,6.81-1.84C47,51.6,44.5,52.2,41.64,52.2Z"/><path class="cls-95" d="M45.72,50.59a1.8,1.8,0,0,1-.93,1l-1.42-.44c.49-.32.68-.56.68-.81s-.2-.41-.68-.41c-1,0-1.12,1.52-3.26,1.52-1.24,0-2.1-.34-2.35-.91H36.48v-.66h1.25a1.79,1.79,0,0,1,1-.89l1.2.5c-.39.21-.59.4-.59.62s.15.37.64.37c.93,0,1-1.52,3.21-1.52,1.19,0,2.12.3,2.43.92H47v.66Z"/><path class="cls-96" d="M45.45,50.31a1.78,1.78,0,0,1-.93,1l-1.42-.44c.49-.31.68-.56.68-.81s-.2-.41-.68-.41c-1,0-1.12,1.52-3.26,1.52-1.24,0-2.1-.34-2.36-.91H36.21v-.66h1.25a1.76,1.76,0,0,1,1-.89l1.2.5c-.39.22-.59.4-.59.62s.15.37.64.37c.93,0,1-1.51,3.21-1.51,1.19,0,2.12.3,2.43.91h1.3v.66Z"/><rect class="cls-86" x="47.05" y="45.91" width="4.31" height="3.62" transform="translate(96.93 -1.49) rotate(90)"/><rect class="cls-87" x="30.6" y="46.32" width="4.31" height="2.81" transform="translate(80.47 14.97) rotate(90)"/><ellipse class="cls-88" cx="41.18" cy="49.68" rx="9.84" ry="3.28"/><path class="cls-86" d="M43.78,52.85C48,52.47,51,51.19,51,49.68S48,46.89,43.78,46.51l-.18,6.35Z"/><path class="cls-87" d="M36.05,46.88c-2.82.58-4.7,1.61-4.7,2.8s1.88,2.22,4.7,2.8l.16,0Z"/><ellipse class="cls-89" cx="41.18" cy="45.37" rx="9.84" ry="3.28"/><g class="cls-107"><path class="cls-108" d="M41.2,42.08c5.43,0,9.84,1.47,9.84,3.28,0,1.51-3.09,2.79-7.29,3.16L33.61,43.27A21.7,21.7,0,0,1,41.2,42.08Z"/></g><ellipse class="cls-109" cx="41.25" cy="45.29" rx="7.02" ry="2.4" transform="matrix(1, 0, 0, 1, -0.07, 0.06)"/><g class="cls-110"><path class="cls-111" d="M41.23,43.09c3.62,0,6.53,1,6.52,2.24,0,1-2.07,1.91-4.87,2.16,3.71-2.2-1.51-4-6.7-3.59A14.12,14.12,0,0,1,41.23,43.09Z"/></g><path class="cls-95" d="M41.64,47.3c-3.88,0-7-1.09-7-2.43a1,1,0,0,1,.21-.6,1.31,1.31,0,0,0-.61,1c0,1.34,3.15,2.43,7,2.43,3.28,0,6-.78,6.81-1.84C47,46.71,44.5,47.3,41.64,47.3Z"/><path class="cls-95" d="M45.72,45.69a1.78,1.78,0,0,1-.93,1.05l-1.42-.43c.49-.32.68-.57.68-.82s-.2-.41-.68-.41c-1,0-1.12,1.52-3.26,1.52-1.24,0-2.1-.34-2.35-.91H36.48V45h1.25a1.75,1.75,0,0,1,1-.88l1.2.5c-.39.21-.59.39-.59.61s.15.38.64.38c.93,0,1-1.52,3.21-1.52,1.19,0,2.12.3,2.43.91H47v.66Z"/><path class="cls-96" d="M45.45,45.42a1.79,1.79,0,0,1-.93,1L43.1,46c.49-.32.68-.57.68-.81s-.2-.42-.68-.42c-1,0-1.12,1.52-3.26,1.52-1.24,0-2.1-.33-2.36-.9H36.21v-.66h1.25a1.73,1.73,0,0,1,1-.89l1.2.5c-.39.21-.59.39-.59.61s.15.38.64.38c.93,0,1-1.52,3.21-1.52,1.19,0,2.12.3,2.43.92h1.3v.66Z"/><rect class="cls-86" x="97.44" y="53.65" width="4.31" height="3.62" transform="translate(155.06 -44.14) rotate(90)"/><rect class="cls-87" x="80.98" y="54.06" width="4.31" height="2.81" transform="translate(138.6 -27.68) rotate(90)"/><ellipse class="cls-88" cx="91.57" cy="57.42" rx="9.84" ry="3.28"/><path class="cls-86" d="M94.17,60.59c4.17-.38,7.23-1.66,7.23-3.17s-3.06-2.79-7.23-3.17L94,60.6Z"/><path class="cls-87" d="M86.44,54.62c-2.82.58-4.71,1.61-4.71,2.8s1.89,2.22,4.71,2.8l.16,0Z"/><ellipse class="cls-89" cx="91.57" cy="53.11" rx="9.84" ry="3.28"/><g class="cls-112"><path class="cls-113" d="M91.59,49.82c5.43,0,9.84,1.47,9.84,3.28,0,1.51-3.09,2.79-7.29,3.16L84,51A21.61,21.61,0,0,1,91.59,49.82Z"/></g><ellipse class="cls-114" cx="91.64" cy="53.03" rx="7.02" ry="2.4" transform="translate(-0.08 0.13) rotate(-0.08)"/><g class="cls-115"><path class="cls-116" d="M91.62,50.83c3.62,0,6.53,1,6.52,2.24,0,1-2.08,1.91-4.87,2.16,3.71-2.2-1.51-4-6.7-3.59A14.12,14.12,0,0,1,91.62,50.83Z"/></g><path class="cls-95" d="M92,55c-3.88,0-7-1.09-7-2.43a1,1,0,0,1,.21-.6,1.31,1.31,0,0,0-.61,1c0,1.34,3.15,2.43,7,2.43,3.28,0,6-.78,6.81-1.84C97.35,54.45,94.89,55,92,55Z"/><path class="cls-95" d="M96.11,53.43a1.78,1.78,0,0,1-.93,1l-1.42-.43c.49-.32.68-.57.68-.82s-.21-.41-.68-.41c-1,0-1.12,1.52-3.26,1.52-1.24,0-2.1-.34-2.36-.91H86.87v-.66h1.25a1.72,1.72,0,0,1,1-.88l1.2.5c-.39.21-.59.39-.59.61s.15.38.64.38c.93,0,1-1.52,3.21-1.52,1.19,0,2.12.3,2.43.91h1.29v.66Z"/><path class="cls-96" d="M95.84,53.16a1.79,1.79,0,0,1-.93,1l-1.42-.43c.49-.32.68-.57.68-.81s-.21-.42-.68-.42c-1,0-1.12,1.52-3.26,1.52-1.24,0-2.1-.33-2.36-.9H86.6V52.5h1.25a1.73,1.73,0,0,1,1-.89l1.2.5c-.39.21-.59.39-.59.61s.15.38.64.38c.93,0,1-1.52,3.21-1.52,1.19,0,2.12.3,2.43.92h1.29v.66Z"/><rect class="cls-86" x="97.44" y="48.76" width="4.31" height="3.62" transform="translate(150.16 -49.03) rotate(90)"/><rect class="cls-87" x="80.98" y="49.16" width="4.31" height="2.81" transform="translate(133.71 -32.58) rotate(90)"/><ellipse class="cls-88" cx="91.57" cy="52.52" rx="9.84" ry="3.28"/><path class="cls-86" d="M94.17,55.69c4.17-.38,7.23-1.65,7.23-3.17s-3.06-2.78-7.23-3.16L94,55.71Z"/><path class="cls-87" d="M86.44,49.72c-2.82.58-4.71,1.62-4.71,2.8s1.89,2.23,4.71,2.81l.16,0Z"/><ellipse class="cls-89" cx="91.57" cy="48.21" rx="9.84" ry="3.28"/><g class="cls-117"><path class="cls-118" d="M91.59,44.93c5.43,0,9.84,1.46,9.84,3.27,0,1.52-3.09,2.79-7.29,3.17L84,46.12A21.38,21.38,0,0,1,91.59,44.93Z"/></g><ellipse class="cls-119" cx="91.64" cy="48.13" rx="7.02" ry="2.4" transform="translate(-0.07 0.13) rotate(-0.08)"/><g class="cls-120"><path class="cls-121" d="M91.62,45.93c3.62,0,6.53,1,6.52,2.24,0,1-2.08,1.91-4.87,2.16,3.71-2.2-1.51-4-6.7-3.58A13.88,13.88,0,0,1,91.62,45.93Z"/></g><path class="cls-95" d="M92,50.14c-3.88,0-7-1.09-7-2.43a1,1,0,0,1,.21-.6,1.33,1.33,0,0,0-.61,1c0,1.35,3.15,2.44,7,2.44,3.28,0,6-.79,6.81-1.84C97.35,49.55,94.89,50.14,92,50.14Z"/><path class="cls-95" d="M96.11,48.54a1.79,1.79,0,0,1-.93,1l-1.42-.43c.49-.32.68-.57.68-.81s-.21-.41-.68-.41c-1,0-1.12,1.51-3.26,1.51-1.24,0-2.1-.33-2.36-.9H86.87v-.66h1.25a1.73,1.73,0,0,1,1-.89l1.2.5c-.39.21-.59.39-.59.61s.15.38.64.38c.93,0,1-1.52,3.21-1.52,1.19,0,2.12.3,2.43.92h1.29v.66Z"/><path class="cls-96" d="M95.84,48.26a1.83,1.83,0,0,1-.93,1.05l-1.42-.44c.49-.32.68-.56.68-.81s-.21-.41-.68-.41c-1,0-1.12,1.52-3.26,1.52-1.24,0-2.1-.34-2.36-.91H86.6V47.6h1.25a1.76,1.76,0,0,1,1-.89l1.2.5c-.39.21-.59.4-.59.61s.15.38.64.38c.93,0,1-1.52,3.21-1.52,1.19,0,2.12.3,2.43.92h1.29v.66Z"/><rect class="cls-122" x="81.05" y="58.63" width="4.31" height="3.62" transform="translate(143.65 -22.76) rotate(90)"/><rect class="cls-123" x="64.59" y="59.04" width="4.31" height="2.81" transform="translate(127.19 -6.31) rotate(90)"/><ellipse class="cls-124" cx="75.18" cy="62.4" rx="9.84" ry="3.28"/><path class="cls-122" d="M77.78,65.57C82,65.19,85,63.91,85,62.4S82,59.61,77.78,59.23l-.18,6.35Z"/><path class="cls-123" d="M70.05,59.6c-2.82.58-4.71,1.61-4.71,2.8s1.89,2.22,4.71,2.8l.16,0Z"/><ellipse class="cls-125" cx="75.18" cy="58.09" rx="9.84" ry="3.28"/><g class="cls-126"><path class="cls-127" d="M75.2,54.8c5.43,0,9.84,1.47,9.84,3.28,0,1.51-3.09,2.79-7.29,3.16L67.61,56A21.61,21.61,0,0,1,75.2,54.8Z"/></g><ellipse class="cls-128" cx="75.24" cy="58.01" rx="7.02" ry="2.4" transform="translate(-0.08 0.11) rotate(-0.08)"/><g class="cls-129"><g class="cls-130"><path class="cls-131" d="M75.23,55.81c3.61,0,6.53,1,6.52,2.24,0,1-2.08,1.91-4.87,2.16,3.71-2.2-1.51-4-6.7-3.59A14.12,14.12,0,0,1,75.23,55.81Z"/></g></g><path class="cls-132" d="M75.64,60c-3.88,0-7-1.09-7-2.43a1,1,0,0,1,.21-.6,1.31,1.31,0,0,0-.61,1c0,1.34,3.15,2.43,7,2.43,3.29,0,6.05-.78,6.81-1.83C81,59.43,78.5,60,75.64,60Z"/><path class="cls-132" d="M79.72,58.41a1.78,1.78,0,0,1-.93,1.05L77.37,59c.49-.32.68-.57.68-.82s-.21-.41-.68-.41c-1,0-1.12,1.52-3.26,1.52-1.24,0-2.1-.33-2.36-.91H70.48v-.65h1.25a1.7,1.7,0,0,1,1-.89l1.2.5c-.39.21-.59.39-.59.61s.15.38.64.38c.93,0,1-1.52,3.21-1.52,1.19,0,2.12.3,2.43.92h1.29v.65Z"/><path class="cls-133" d="M79.45,58.14a1.79,1.79,0,0,1-.93,1l-1.42-.43c.49-.32.68-.57.68-.81s-.21-.42-.68-.42c-1,0-1.12,1.52-3.26,1.52-1.24,0-2.1-.33-2.36-.9H70.21v-.66h1.25a1.73,1.73,0,0,1,1-.89l1.2.5c-.39.21-.59.39-.59.61s.15.38.64.38c.93,0,1-1.52,3.21-1.52,1.19,0,2.12.3,2.42.92h1.3v.66Z"/><rect class="cls-122" x="81.05" y="53.42" width="4.31" height="3.62" transform="translate(138.44 -27.98) rotate(90)"/><rect class="cls-123" x="64.59" y="53.82" width="4.31" height="2.81" transform="translate(121.98 -11.52) rotate(90)"/><ellipse class="cls-124" cx="75.18" cy="57.19" rx="9.84" ry="3.28"/><path class="cls-122" d="M77.78,60.36C82,60,85,58.7,85,57.19S82,54.4,77.78,54l-.18,6.35Z"/><path class="cls-123" d="M70.05,54.39c-2.82.57-4.71,1.61-4.71,2.8s1.89,2.22,4.71,2.8l.16,0Z"/><ellipse class="cls-125" cx="75.18" cy="52.87" rx="9.84" ry="3.28"/><g class="cls-134"><path class="cls-135" d="M75.2,49.59c5.43,0,9.84,1.47,9.84,3.28C85,54.38,82,55.66,77.75,56L67.61,50.78A21.38,21.38,0,0,1,75.2,49.59Z"/></g><ellipse class="cls-136" cx="75.24" cy="52.8" rx="7.02" ry="2.4" transform="translate(-0.08 0.11) rotate(-0.08)"/><g class="cls-129"><g class="cls-137"><path class="cls-138" d="M75.23,50.6c3.61,0,6.53,1,6.52,2.24,0,1-2.08,1.9-4.87,2.16,3.71-2.2-1.51-4-6.7-3.59A13.9,13.9,0,0,1,75.23,50.6Z"/></g></g><path class="cls-132" d="M75.64,54.81c-3.88,0-7-1.09-7-2.44a1,1,0,0,1,.21-.59,1.31,1.31,0,0,0-.61,1c0,1.34,3.15,2.43,7,2.43,3.29,0,6.05-.78,6.81-1.84C81,54.21,78.5,54.81,75.64,54.81Z"/><path class="cls-132" d="M79.72,53.2a1.78,1.78,0,0,1-.93,1l-1.42-.44c.49-.31.68-.56.68-.81s-.21-.41-.68-.41c-1,0-1.12,1.52-3.26,1.52-1.24,0-2.1-.34-2.36-.91H70.48v-.66h1.25a1.76,1.76,0,0,1,1-.89l1.2.5c-.39.22-.59.4-.59.62s.15.37.64.37c.93,0,1-1.52,3.21-1.52,1.19,0,2.12.3,2.43.92h1.29v.66Z"/><path class="cls-133" d="M79.45,52.92a1.78,1.78,0,0,1-.93,1l-1.42-.43c.49-.32.68-.57.68-.82s-.21-.41-.68-.41c-1,0-1.12,1.52-3.26,1.52-1.24,0-2.1-.34-2.36-.91H70.21v-.66h1.25a1.72,1.72,0,0,1,1-.88l1.2.5c-.39.21-.59.39-.59.61s.15.37.64.37c.93,0,1-1.51,3.21-1.51,1.19,0,2.12.3,2.42.91h1.3v.66Z"/><rect class="cls-122" x="81.05" y="48.52" width="4.31" height="3.62" transform="translate(133.54 -32.87) rotate(90)"/><rect class="cls-123" x="64.59" y="48.93" width="4.31" height="2.81" transform="translate(117.08 -16.42) rotate(90)"/><ellipse class="cls-124" cx="75.18" cy="52.29" rx="9.84" ry="3.28"/><path class="cls-122" d="M77.78,55.46C82,55.08,85,53.8,85,52.29S82,49.5,77.78,49.12l-.18,6.36Z"/><path class="cls-123" d="M70.05,49.49c-2.82.58-4.71,1.62-4.71,2.8s1.89,2.23,4.71,2.8l.16,0Z"/><ellipse class="cls-125" cx="75.18" cy="47.98" rx="9.84" ry="3.28"/><g class="cls-139"><path class="cls-140" d="M75.2,44.69C80.63,44.69,85,46.16,85,48c0,1.51-3.09,2.79-7.29,3.16L67.61,45.89A21.36,21.36,0,0,1,75.2,44.69Z"/></g><ellipse class="cls-141" cx="75.24" cy="47.9" rx="7.02" ry="2.4" transform="translate(-0.07 0.11) rotate(-0.08)"/><g class="cls-129"><g class="cls-142"><path class="cls-143" d="M75.23,45.7c3.61,0,6.53,1,6.52,2.24,0,1-2.08,1.91-4.87,2.16,3.71-2.2-1.51-4-6.7-3.58A13.88,13.88,0,0,1,75.23,45.7Z"/></g></g><path class="cls-132" d="M75.64,49.91c-3.88,0-7-1.09-7-2.43a1,1,0,0,1,.21-.6,1.31,1.31,0,0,0-.61,1c0,1.35,3.15,2.44,7,2.44,3.29,0,6.05-.79,6.81-1.84C81,49.32,78.5,49.91,75.64,49.91Z"/><path class="cls-132" d="M79.72,48.31a1.79,1.79,0,0,1-.93,1l-1.42-.43c.49-.32.68-.57.68-.81s-.21-.42-.68-.42c-1,0-1.12,1.52-3.26,1.52-1.24,0-2.1-.33-2.36-.9H70.48v-.66h1.25a1.73,1.73,0,0,1,1-.89l1.2.5c-.39.21-.59.39-.59.61s.15.38.64.38c.93,0,1-1.52,3.21-1.52,1.19,0,2.12.3,2.43.92h1.29v.66Z"/><path class="cls-133" d="M79.45,48a1.79,1.79,0,0,1-.93,1l-1.42-.43c.49-.32.68-.57.68-.81s-.21-.42-.68-.42c-1,0-1.12,1.52-3.26,1.52-1.24,0-2.1-.33-2.36-.9H70.21v-.66h1.25a1.73,1.73,0,0,1,1-.89l1.2.5c-.39.21-.59.39-.59.61s.15.38.64.38c.93,0,1-1.52,3.21-1.52,1.19,0,2.12.3,2.42.92h1.3V48Z"/><rect class="cls-122" x="81.05" y="43.47" width="4.31" height="3.62" transform="translate(128.49 -37.93) rotate(90)"/><rect class="cls-123" x="64.59" y="43.87" width="4.31" height="2.81" transform="translate(112.03 -21.47) rotate(90)"/><ellipse class="cls-124" cx="75.18" cy="47.24" rx="9.84" ry="3.28"/><path class="cls-122" d="M77.78,50.4C82,50,85,48.75,85,47.24S82,44.45,77.78,44.07l-.18,6.35Z"/><path class="cls-123" d="M70.05,44.43c-2.82.58-4.71,1.62-4.71,2.81s1.89,2.22,4.71,2.8l.16,0Z"/><ellipse class="cls-125" cx="75.18" cy="42.92" rx="9.84" ry="3.28"/><g class="cls-144"><path class="cls-145" d="M75.2,39.64c5.43,0,9.84,1.47,9.84,3.27,0,1.52-3.09,2.8-7.29,3.17L67.61,40.83A21.38,21.38,0,0,1,75.2,39.64Z"/></g><ellipse class="cls-146" cx="75.24" cy="42.85" rx="7.02" ry="2.4" transform="translate(-0.06 0.11) rotate(-0.08)"/><g class="cls-129"><g class="cls-147"><path class="cls-148" d="M75.23,40.65c3.61,0,6.53,1,6.52,2.23,0,1-2.08,1.91-4.87,2.17,3.71-2.2-1.51-4-6.7-3.59A13.9,13.9,0,0,1,75.23,40.65Z"/></g></g><path class="cls-132" d="M75.64,44.86c-3.88,0-7-1.09-7-2.44a1,1,0,0,1,.21-.59,1.3,1.3,0,0,0-.61,1c0,1.34,3.15,2.43,7,2.43,3.29,0,6.05-.78,6.81-1.84C81,44.26,78.5,44.86,75.64,44.86Z"/><path class="cls-132" d="M79.72,43.25a1.8,1.8,0,0,1-.93,1l-1.42-.44c.49-.32.68-.56.68-.81s-.21-.41-.68-.41c-1,0-1.12,1.52-3.26,1.52-1.24,0-2.1-.34-2.36-.91H70.48v-.66h1.25a1.76,1.76,0,0,1,1-.89l1.2.5c-.39.21-.59.4-.59.62s.15.37.64.37c.93,0,1-1.52,3.21-1.52,1.19,0,2.12.3,2.43.92h1.29v.66Z"/><path class="cls-133" d="M79.45,43A1.78,1.78,0,0,1,78.52,44l-1.42-.44c.49-.31.68-.56.68-.81s-.21-.41-.68-.41c-1,0-1.12,1.52-3.26,1.52-1.24,0-2.1-.34-2.36-.91H70.21v-.66h1.25a1.76,1.76,0,0,1,1-.89l1.2.5c-.39.22-.59.4-.59.62s.15.37.64.37c.93,0,1-1.51,3.21-1.51,1.19,0,2.12.3,2.42.91h1.3V43Z"/><rect class="cls-122" x="93.06" y="61.95" width="4.31" height="3.62" transform="translate(158.97 -31.45) rotate(90)"/><rect class="cls-123" x="76.6" y="62.35" width="4.31" height="2.81" transform="translate(142.52 -15) rotate(90)"/><ellipse class="cls-124" cx="87.18" cy="65.72" rx="9.84" ry="3.28"/><path class="cls-122" d="M89.78,68.89C94,68.5,97,67.23,97,65.72S94,62.93,89.78,62.55L89.6,68.9Z"/><path class="cls-123" d="M82.05,62.92c-2.82.57-4.7,1.61-4.7,2.8s1.88,2.22,4.7,2.8l.17,0Z"/><ellipse class="cls-125" cx="87.18" cy="61.4" rx="9.84" ry="3.28"/><g class="cls-149"><path class="cls-150" d="M87.2,58.12c5.44,0,9.84,1.47,9.84,3.28,0,1.51-3.09,2.79-7.28,3.16L79.61,59.31A21.46,21.46,0,0,1,87.2,58.12Z"/></g><ellipse class="cls-151" cx="87.25" cy="61.33" rx="7.02" ry="2.4" transform="translate(-0.09 0.13) rotate(-0.08)"/><g class="cls-129"><g class="cls-152"><path class="cls-153" d="M87.24,59.13c3.61,0,6.53,1,6.51,2.24,0,1-2.07,1.9-4.86,2.16,3.7-2.2-1.52-4-6.71-3.59A14,14,0,0,1,87.24,59.13Z"/></g></g><path class="cls-132" d="M87.64,63.34c-3.87,0-7-1.09-7-2.44a1.06,1.06,0,0,1,.21-.59,1.33,1.33,0,0,0-.6,1c0,1.34,3.14,2.43,7,2.43,3.29,0,6-.78,6.81-1.84C93,62.74,90.51,63.34,87.64,63.34Z"/><path class="cls-132" d="M91.72,61.73a1.74,1.74,0,0,1-.93,1.05l-1.42-.44c.49-.31.69-.56.69-.81s-.21-.41-.69-.41c-1,0-1.11,1.52-3.26,1.52-1.24,0-2.09-.34-2.35-.91H82.48v-.66h1.25a1.83,1.83,0,0,1,1-.89l1.2.5c-.39.22-.58.4-.58.62s.14.37.63.37c.93,0,1-1.52,3.21-1.52,1.19,0,2.12.3,2.43.92H93v.66Z"/><path class="cls-133" d="M91.45,61.45a1.74,1.74,0,0,1-.93,1l-1.42-.43c.49-.32.69-.57.69-.82s-.21-.41-.69-.41c-1,0-1.11,1.52-3.26,1.52-1.24,0-2.09-.34-2.35-.91H82.21v-.66h1.25a1.78,1.78,0,0,1,1-.88l1.2.5c-.39.21-.58.39-.58.61s.14.37.63.37c.93,0,1-1.51,3.21-1.51,1.19,0,2.12.3,2.43.91h1.3v.66Z"/><rect class="cls-122" x="93.06" y="56.74" width="4.31" height="3.62" transform="translate(153.76 -36.66) rotate(90)"/><rect class="cls-123" x="76.6" y="57.14" width="4.31" height="2.81" transform="translate(137.3 -20.21) rotate(90)"/><ellipse class="cls-124" cx="87.18" cy="60.5" rx="9.84" ry="3.28"/><path class="cls-122" d="M89.78,63.67C94,63.29,97,62,97,60.5S94,57.72,89.78,57.34l-.18,6.35Z"/><path class="cls-123" d="M82.05,57.7c-2.82.58-4.7,1.62-4.7,2.8s1.88,2.23,4.7,2.81l.17,0Z"/><ellipse class="cls-125" cx="87.18" cy="56.19" rx="9.84" ry="3.28"/><g class="cls-154"><path class="cls-155" d="M87.2,52.91c5.44,0,9.84,1.46,9.84,3.27C97,57.7,94,59,89.76,59.35L79.61,54.1A21.46,21.46,0,0,1,87.2,52.91Z"/></g><ellipse class="cls-156" cx="87.25" cy="56.12" rx="7.02" ry="2.4" transform="translate(-0.08 0.13) rotate(-0.08)"/><g class="cls-129"><g class="cls-157"><path class="cls-158" d="M87.24,53.91c3.61,0,6.53,1,6.51,2.24,0,1-2.07,1.91-4.86,2.17,3.7-2.2-1.52-4-6.71-3.59A14,14,0,0,1,87.24,53.91Z"/></g></g><path class="cls-132" d="M87.64,58.13c-3.87,0-7-1.09-7-2.44a1.06,1.06,0,0,1,.21-.59,1.31,1.31,0,0,0-.6,1c0,1.35,3.14,2.44,7,2.44,3.29,0,6-.78,6.81-1.84C93,57.53,90.51,58.13,87.64,58.13Z"/><path class="cls-132" d="M91.72,56.52a1.79,1.79,0,0,1-.93,1l-1.42-.44c.49-.32.69-.56.69-.81s-.21-.41-.69-.41c-1,0-1.11,1.52-3.26,1.52-1.24,0-2.09-.34-2.35-.91H82.48v-.66h1.25a1.83,1.83,0,0,1,1-.89l1.2.5c-.39.21-.58.4-.58.61s.14.38.63.38c.93,0,1-1.52,3.21-1.52,1.19,0,2.12.3,2.43.92H93v.66Z"/><path class="cls-133" d="M91.45,56.24a1.77,1.77,0,0,1-.93,1l-1.42-.44c.49-.31.69-.56.69-.81s-.21-.41-.69-.41c-1,0-1.11,1.52-3.26,1.52-1.24,0-2.09-.34-2.35-.91H82.21v-.66h1.25a1.83,1.83,0,0,1,1-.89l1.2.5c-.39.22-.58.4-.58.62s.14.37.63.37c.93,0,1-1.52,3.21-1.52,1.19,0,2.12.3,2.43.92h1.3v.66Z"/><rect class="cls-122" x="63.67" y="64.48" width="4.31" height="3.62" transform="translate(132.12 0.46) rotate(90)"/><rect class="cls-123" x="47.22" y="64.88" width="4.31" height="2.81" transform="translate(115.66 16.91) rotate(90)"/><ellipse class="cls-124" cx="57.8" cy="68.24" rx="9.84" ry="3.28"/><path class="cls-122" d="M60.4,71.41c4.17-.38,7.24-1.65,7.24-3.17s-3.07-2.78-7.24-3.16l-.18,6.35Z"/><path class="cls-123" d="M52.67,65.44c-2.82.58-4.7,1.62-4.7,2.8s1.88,2.23,4.7,2.81l.17,0Z"/><ellipse class="cls-125" cx="57.8" cy="63.93" rx="9.84" ry="3.28"/><g class="cls-159"><path class="cls-160" d="M57.82,60.65c5.44,0,9.84,1.46,9.84,3.27,0,1.52-3.09,2.79-7.28,3.17L50.23,61.84A21.46,21.46,0,0,1,57.82,60.65Z"/></g><ellipse class="cls-161" cx="57.87" cy="63.86" rx="7.02" ry="2.4" transform="translate(-0.09 0.08) rotate(-0.08)"/><g class="cls-129"><g class="cls-162"><path class="cls-163" d="M57.86,61.65c3.61,0,6.53,1,6.51,2.24,0,1-2.07,1.91-4.86,2.17,3.7-2.2-1.52-4-6.71-3.59A14,14,0,0,1,57.86,61.65Z"/></g></g><path class="cls-132" d="M58.26,65.87c-3.87,0-7-1.09-7-2.44a1.06,1.06,0,0,1,.21-.59,1.31,1.31,0,0,0-.6,1c0,1.35,3.14,2.44,7,2.44,3.29,0,6-.78,6.81-1.84C63.59,65.27,61.13,65.87,58.26,65.87Z"/><path class="cls-132" d="M62.34,64.26a1.79,1.79,0,0,1-.93,1L60,64.87c.49-.32.69-.56.69-.81s-.21-.41-.69-.41c-1,0-1.11,1.52-3.26,1.52-1.24,0-2.09-.34-2.35-.91H53.1V63.6h1.25a1.83,1.83,0,0,1,1-.89l1.2.5c-.39.21-.58.4-.58.61s.14.38.63.38c.93,0,1-1.52,3.21-1.52,1.19,0,2.12.3,2.43.92h1.3v.66Z"/><path class="cls-133" d="M62.07,64A1.77,1.77,0,0,1,61.14,65l-1.42-.44c.49-.31.69-.56.69-.81s-.21-.41-.69-.41c-1,0-1.11,1.52-3.26,1.52-1.24,0-2.09-.34-2.35-.91H52.83v-.66h1.25a1.83,1.83,0,0,1,1-.89l1.2.5c-.39.22-.58.4-.58.62s.14.37.63.37c.93,0,1-1.52,3.21-1.52,1.19,0,2.12.3,2.43.92h1.3V64Z"/><rect class="cls-122" x="63.67" y="59.27" width="4.31" height="3.62" transform="translate(126.91 -4.76) rotate(90)"/><rect class="cls-123" x="47.22" y="59.67" width="4.31" height="2.81" transform="translate(110.45 11.7) rotate(90)"/><ellipse class="cls-124" cx="57.8" cy="63.03" rx="9.84" ry="3.28"/><path class="cls-122" d="M60.4,66.2c4.17-.38,7.24-1.65,7.24-3.17s-3.07-2.78-7.24-3.17l-.18,6.36Z"/><path class="cls-123" d="M52.67,60.23c-2.82.58-4.7,1.62-4.7,2.8s1.88,2.23,4.7,2.8l.17,0Z"/><ellipse class="cls-125" cx="57.8" cy="58.72" rx="9.84" ry="3.28"/><g class="cls-164"><path class="cls-165" d="M57.82,55.43c5.44,0,9.84,1.47,9.84,3.28,0,1.52-3.09,2.79-7.28,3.17L50.23,56.63A21.44,21.44,0,0,1,57.82,55.43Z"/></g><ellipse class="cls-166" cx="57.87" cy="58.64" rx="7.02" ry="2.4" transform="translate(-0.08 0.08) rotate(-0.08)"/><g class="cls-129"><g class="cls-167"><path class="cls-168" d="M57.86,56.44c3.61,0,6.53,1,6.51,2.24,0,1-2.07,1.91-4.86,2.16,3.7-2.2-1.52-4-6.71-3.58A14,14,0,0,1,57.86,56.44Z"/></g></g><path class="cls-132" d="M58.26,60.65c-3.87,0-7-1.09-7-2.43a1.07,1.07,0,0,1,.21-.6,1.34,1.34,0,0,0-.6,1c0,1.35,3.14,2.44,7,2.44,3.29,0,6-.79,6.81-1.84C63.59,60.06,61.13,60.65,58.26,60.65Z"/><path class="cls-132" d="M62.34,59.05a1.75,1.75,0,0,1-.93,1L60,59.66c.49-.32.69-.57.69-.81s-.21-.42-.69-.42c-1,0-1.11,1.52-3.26,1.52-1.24,0-2.09-.33-2.35-.9H53.1v-.66h1.25a1.79,1.79,0,0,1,1-.89l1.2.5c-.39.21-.58.39-.58.61s.14.38.63.38c.93,0,1-1.52,3.21-1.52,1.19,0,2.12.3,2.43.92h1.3v.66Z"/><path class="cls-133" d="M62.07,58.77a1.79,1.79,0,0,1-.93,1l-1.42-.44c.49-.32.69-.56.69-.81s-.21-.41-.69-.41c-1,0-1.11,1.51-3.26,1.51-1.24,0-2.09-.33-2.35-.9H52.83v-.66h1.25a1.83,1.83,0,0,1,1-.89l1.2.5c-.39.21-.58.39-.58.61s.14.38.63.38c.93,0,1-1.52,3.21-1.52,1.19,0,2.12.3,2.43.92h1.3v.66Z"/><rect class="cls-122" x="63.67" y="54.37" width="4.31" height="3.62" transform="translate(122.01 -9.65) rotate(90)"/><rect class="cls-123" x="47.22" y="54.77" width="4.31" height="2.81" transform="translate(105.55 6.8) rotate(90)"/><ellipse class="cls-124" cx="57.8" cy="58.14" rx="9.84" ry="3.28"/><path class="cls-122" d="M60.4,61.3c4.17-.38,7.24-1.65,7.24-3.16S64.57,55.35,60.4,55l-.18,6.35Z"/><path class="cls-123" d="M52.67,55.33C49.85,55.91,48,57,48,58.14s1.88,2.22,4.7,2.8l.17,0Z"/><ellipse class="cls-125" cx="57.8" cy="53.82" rx="9.84" ry="3.28"/><g class="cls-169"><path class="cls-170" d="M57.82,50.54c5.44,0,9.84,1.46,9.84,3.27,0,1.52-3.09,2.79-7.28,3.17L50.23,51.73A21.46,21.46,0,0,1,57.82,50.54Z"/></g><ellipse class="cls-171" cx="57.87" cy="53.75" rx="7.02" ry="2.4" transform="translate(-0.08 0.08) rotate(-0.08)"/><g class="cls-129"><g class="cls-172"><path class="cls-173" d="M57.86,51.54c3.61,0,6.53,1,6.51,2.24,0,1-2.07,1.91-4.86,2.17,3.7-2.2-1.52-4-6.71-3.59A14,14,0,0,1,57.86,51.54Z"/></g></g><path class="cls-132" d="M58.26,55.76c-3.87,0-7-1.09-7-2.44a1.06,1.06,0,0,1,.21-.59,1.31,1.31,0,0,0-.6,1c0,1.34,3.14,2.43,7,2.43,3.29,0,6-.78,6.81-1.84C63.59,55.16,61.13,55.76,58.26,55.76Z"/><path class="cls-132" d="M62.34,54.15a1.77,1.77,0,0,1-.93,1.05L60,54.76c.49-.32.69-.56.69-.81s-.21-.41-.69-.41c-1,0-1.11,1.52-3.26,1.52-1.24,0-2.09-.34-2.35-.91H53.1v-.66h1.25a1.83,1.83,0,0,1,1-.89l1.2.5c-.39.21-.58.4-.58.61s.14.38.63.38c.93,0,1-1.52,3.21-1.52,1.19,0,2.12.3,2.43.92h1.3v.66Z"/><path class="cls-133" d="M62.07,53.87a1.77,1.77,0,0,1-.93,1.05l-1.42-.44c.49-.31.69-.56.69-.81s-.21-.41-.69-.41c-1,0-1.11,1.52-3.26,1.52-1.24,0-2.09-.34-2.35-.91H52.83v-.66h1.25a1.83,1.83,0,0,1,1-.89l1.2.5c-.39.22-.58.4-.58.62s.14.37.63.37c.93,0,1-1.52,3.21-1.52,1.19,0,2.12.3,2.43.92h1.3v.66Z"/><rect class="cls-122" x="63.67" y="49.16" width="4.31" height="3.62" transform="translate(116.8 -14.87) rotate(90)"/><rect class="cls-123" x="47.22" y="49.56" width="4.31" height="2.81" transform="translate(100.34 1.59) rotate(90)"/><ellipse class="cls-124" cx="57.8" cy="52.92" rx="9.84" ry="3.28"/><path class="cls-122" d="M60.4,56.09c4.17-.38,7.24-1.65,7.24-3.17s-3.07-2.78-7.24-3.17l-.18,6.36Z"/><path class="cls-123" d="M52.67,50.12c-2.82.58-4.7,1.62-4.7,2.8s1.88,2.23,4.7,2.8l.17,0Z"/><ellipse class="cls-125" cx="57.8" cy="48.61" rx="9.84" ry="3.28"/><g class="cls-174"><path class="cls-175" d="M57.82,45.33c5.44,0,9.84,1.46,9.84,3.27,0,1.52-3.09,2.79-7.28,3.17L50.23,46.52A21.46,21.46,0,0,1,57.82,45.33Z"/></g><ellipse class="cls-176" cx="57.87" cy="48.53" rx="7.02" ry="2.4" transform="translate(-0.07 0.08) rotate(-0.08)"/><g class="cls-129"><g class="cls-177"><path class="cls-178" d="M57.86,46.33c3.61,0,6.53,1,6.51,2.24,0,1-2.07,1.91-4.86,2.16,3.7-2.2-1.52-4-6.71-3.58A14,14,0,0,1,57.86,46.33Z"/></g></g><path class="cls-132" d="M58.26,50.54c-3.87,0-7-1.09-7-2.43a1.07,1.07,0,0,1,.21-.6,1.34,1.34,0,0,0-.6,1c0,1.35,3.14,2.44,7,2.44,3.29,0,6-.79,6.81-1.84C63.59,50,61.13,50.54,58.26,50.54Z"/><path class="cls-132" d="M62.34,48.94a1.75,1.75,0,0,1-.93,1L60,49.55c.49-.32.69-.57.69-.81s-.21-.42-.69-.42c-1,0-1.11,1.52-3.26,1.52-1.24,0-2.09-.33-2.35-.9H53.1v-.66h1.25a1.79,1.79,0,0,1,1-.89l1.2.5c-.39.21-.58.39-.58.61s.14.38.63.38c.93,0,1-1.52,3.21-1.52,1.19,0,2.12.3,2.43.92h1.3v.66Z"/><path class="cls-133" d="M62.07,48.66a1.79,1.79,0,0,1-.93,1.05l-1.42-.44c.49-.32.69-.56.69-.81s-.21-.41-.69-.41c-1,0-1.11,1.52-3.26,1.52-1.24,0-2.09-.34-2.35-.91H52.83V48h1.25a1.83,1.83,0,0,1,1-.89l1.2.5c-.39.21-.58.4-.58.61s.14.38.63.38c.93,0,1-1.52,3.21-1.52,1.19,0,2.12.3,2.43.92h1.3v.66Z"/><rect class="cls-122" x="63.67" y="44.26" width="4.31" height="3.62" transform="translate(111.9 -19.76) rotate(90)"/><rect class="cls-123" x="47.22" y="44.66" width="4.31" height="2.81" transform="translate(95.44 -3.31) rotate(90)"/><ellipse class="cls-124" cx="57.8" cy="48.03" rx="9.84" ry="3.28"/><path class="cls-122" d="M60.4,51.19c4.17-.38,7.24-1.65,7.24-3.16s-3.07-2.79-7.24-3.17l-.18,6.35Z"/><path class="cls-123" d="M52.67,45.22C49.85,45.8,48,46.84,48,48s1.88,2.22,4.7,2.8l.17,0Z"/><ellipse class="cls-125" cx="57.8" cy="43.71" rx="9.84" ry="3.28"/><g class="cls-179"><path class="cls-180" d="M57.82,40.43c5.44,0,9.84,1.47,9.84,3.27,0,1.52-3.09,2.8-7.28,3.17L50.23,41.62A21.46,21.46,0,0,1,57.82,40.43Z"/></g><ellipse class="cls-181" cx="57.87" cy="43.64" rx="7.02" ry="2.4" transform="translate(-0.06 0.08) rotate(-0.08)"/><g class="cls-129"><g class="cls-182"><path class="cls-183" d="M57.86,41.44c3.61,0,6.53,1,6.51,2.23,0,1-2.07,1.91-4.86,2.17,3.7-2.2-1.52-4-6.71-3.59A14,14,0,0,1,57.86,41.44Z"/></g></g><path class="cls-132" d="M58.26,45.65c-3.87,0-7-1.09-7-2.44a1.06,1.06,0,0,1,.21-.59,1.31,1.31,0,0,0-.6,1C50.85,45,54,46,57.87,46c3.29,0,6-.78,6.81-1.84C63.59,45.05,61.13,45.65,58.26,45.65Z"/><path class="cls-132" d="M62.34,44a1.77,1.77,0,0,1-.93,1.05L60,44.65c.49-.32.69-.56.69-.81s-.21-.41-.69-.41c-1,0-1.11,1.52-3.26,1.52-1.24,0-2.09-.34-2.35-.91H53.1v-.66h1.25a1.83,1.83,0,0,1,1-.89l1.2.5c-.39.21-.58.4-.58.61s.14.38.63.38c.93,0,1-1.52,3.21-1.52,1.19,0,2.12.3,2.43.92h1.3V44Z"/><path class="cls-133" d="M62.07,43.76a1.74,1.74,0,0,1-.93,1.05l-1.42-.44c.49-.31.69-.56.69-.81s-.21-.41-.69-.41c-1,0-1.11,1.52-3.26,1.52-1.24,0-2.09-.34-2.35-.91H52.83V43.1h1.25a1.83,1.83,0,0,1,1-.89l1.2.5c-.39.22-.58.4-.58.62s.14.37.63.37c.93,0,1-1.52,3.21-1.52,1.19,0,2.12.31,2.43.92h1.3v.66Z"/><rect class="cls-122" x="63.67" y="39.21" width="4.31" height="3.62" transform="translate(106.85 -24.82) rotate(90)"/><rect class="cls-123" x="47.22" y="39.61" width="4.31" height="2.81" transform="translate(90.39 -8.36) rotate(90)"/><ellipse class="cls-124" cx="57.8" cy="42.97" rx="9.84" ry="3.28"/><path class="cls-122" d="M60.4,46.14c4.17-.38,7.24-1.66,7.24-3.17s-3.07-2.79-7.24-3.17l-.18,6.36Z"/><path class="cls-123" d="M52.67,40.17c-2.82.58-4.7,1.62-4.7,2.8s1.88,2.23,4.7,2.8l.17,0Z"/><ellipse class="cls-125" cx="57.8" cy="38.66" rx="9.84" ry="3.28"/><g class="cls-184"><path class="cls-185" d="M57.82,35.37c5.44,0,9.84,1.47,9.84,3.28,0,1.52-3.09,2.79-7.28,3.16L50.23,36.57A21.44,21.44,0,0,1,57.82,35.37Z"/></g><ellipse class="cls-186" cx="57.87" cy="38.58" rx="7.02" ry="2.4" transform="translate(-0.06 0.08) rotate(-0.08)"/><g class="cls-129"><g class="cls-187"><path class="cls-188" d="M57.86,36.38c3.61,0,6.53,1,6.51,2.24,0,1-2.07,1.91-4.86,2.16,3.7-2.2-1.52-4-6.71-3.58A14,14,0,0,1,57.86,36.38Z"/></g></g><path class="cls-132" d="M58.26,40.59c-3.87,0-7-1.09-7-2.43a1.07,1.07,0,0,1,.21-.6,1.33,1.33,0,0,0-.6,1c0,1.35,3.14,2.44,7,2.44,3.29,0,6-.79,6.81-1.84C63.59,40,61.13,40.59,58.26,40.59Z"/><path class="cls-132" d="M62.34,39a1.75,1.75,0,0,1-.93,1L60,39.6c.49-.32.69-.57.69-.81s-.21-.42-.69-.42c-1,0-1.11,1.52-3.26,1.52-1.24,0-2.09-.33-2.35-.9H53.1v-.66h1.25a1.79,1.79,0,0,1,1-.89l1.2.5c-.39.21-.58.39-.58.61s.14.38.63.38c.93,0,1-1.52,3.21-1.52,1.19,0,2.12.3,2.43.92h1.3V39Z"/><path class="cls-133" d="M62.07,38.71a1.79,1.79,0,0,1-.93,1l-1.42-.44c.49-.32.69-.57.69-.81s-.21-.41-.69-.41c-1,0-1.11,1.51-3.26,1.51-1.24,0-2.09-.33-2.35-.9H52.83v-.66h1.25a1.83,1.83,0,0,1,1-.89l1.2.5c-.39.21-.58.39-.58.61s.14.38.63.38c.93,0,1-1.52,3.21-1.52,1.19,0,2.12.3,2.43.92h1.3v.66Z"/><rect class="cls-122" x="81.53" y="57.46" width="4.31" height="3.62" transform="translate(76.61 -43.04) rotate(50.73)"/><rect class="cls-123" x="69.38" y="68.5" width="3.49" height="2.81" transform="translate(80.23 -29.41) rotate(50.73)"/><ellipse class="cls-124" cx="78.79" cy="65.94" rx="9.84" ry="5.37" transform="translate(-23.95 64.75) rotate(-39.27)"/><path class="cls-122" d="M84.07,68.31c2.84-3.12,3.9-6.68,2.33-8.6s-5.26-1.59-8.89.58L84,68.45Z"/><path class="cls-123" d="M71.91,65.65c-1.58,2.51-2,5-.74,6.51s3.76,1.63,6.53.58l.17-.06Z"/><ellipse class="cls-125" cx="76.47" cy="63.1" rx="9.84" ry="5.37" transform="translate(-22.67 62.65) rotate(-39.27)"/><g class="cls-189"><path class="cls-190" d="M73.09,58.93c4.2-3.44,9.13-4.37,11-2.08,1.57,1.92.5,5.49-2.36,8.62l-13.28-.23A14.08,14.08,0,0,1,73.09,58.93Z"/></g><ellipse class="cls-191" cx="76.42" cy="62.99" rx="7.02" ry="3.93" transform="translate(-22.61 62.89) rotate(-39.44)"/><g class="cls-129"><g class="cls-192"><path class="cls-193" d="M74.13,60.21c2.8-2.29,6.09-2.87,7.36-1.29,1.07,1.32.37,3.72-1.53,5.82.6-5.14-5.29-4.09-8.9-.3A9.22,9.22,0,0,1,74.13,60.21Z"/></g></g><path class="cls-132" d="M78.84,65.32c-3,2.45-6.56,3.07-8,1.38a2.42,2.42,0,0,1-.45-.89A2.59,2.59,0,0,0,71,67.44c1.39,1.7,4.94,1.08,8-1.37,2.54-2.08,3.87-4.82,3.37-6.63C82.34,61.2,81.05,63.51,78.84,65.32Z"/><path class="cls-132" d="M80.13,60.43a2.6,2.6,0,0,1,.27,1.79l-1.51.4a1.72,1.72,0,0,0-.24-1.37c-.27-.34-.54-.34-.91,0-.76.62.56,2.46-1.1,3.81a2.2,2.2,0,0,1-2.67.45l-1,.81-.62-.76,1-.79a2.21,2.21,0,0,1,0-1.68l1.4-.18A1.19,1.19,0,0,0,74.81,64c.24.29.47.34.85,0,.72-.59-.67-2.37,1-3.78a2.31,2.31,0,0,1,2.75-.48l1-.83.62.76Z"/><path class="cls-133" d="M79.66,60.28a2.62,2.62,0,0,1,.27,1.8l-1.51.39a1.72,1.72,0,0,0-.24-1.37c-.27-.33-.55-.34-.92,0-.75.63.57,2.46-1.09,3.82a2.21,2.21,0,0,1-2.68.44l-1,.81-.62-.76,1-.79a2.21,2.21,0,0,1,0-1.68l1.4-.18a1.19,1.19,0,0,0,.12,1.08c.24.29.47.34.85,0,.72-.59-.67-2.37,1-3.78A2.31,2.31,0,0,1,79,59.57l1-.82.62.75Z"/><rect class="cls-122" x="58.99" y="31.92" width="3.52" height="3.62" transform="matrix(-0.44, 0.9, -0.9, -0.44, 117.96, -5.72)"/><rect class="cls-123" x="44.35" y="25.25" width="3.07" height="2.81" transform="translate(90.16 -2.61) rotate(116.38)"/><ellipse class="cls-124" cx="52.8" cy="31.68" rx="7.03" ry="9.84" transform="translate(0.96 64.91) rotate(-63.62)"/><path class="cls-122" d="M52.12,38.92c4.1,1.12,8.05,0,9.49-2.87s-.09-6.7-3.46-9.29L51.94,38.87Z"/><path class="cls-123" d="M50.87,24c-3.08-.15-5.75,1-6.88,3.29s-.43,5.1,1.55,7.46l.12.14Z"/><ellipse class="cls-125" cx="54.09" cy="29.09" rx="7.03" ry="9.84" transform="translate(4 64.62) rotate(-63.62)"/><g class="cls-194"><path class="cls-195" d="M57.23,22.8c4.87,2.42,7.42,7.19,5.7,10.66-1.44,2.9-5.42,4-9.54,2.83L49.3,21.72A11.64,11.64,0,0,1,57.23,22.8Z"/></g><g class="cls-196"><ellipse class="cls-197" cx="54.16" cy="29.05" rx="6.59" ry="9.24" transform="translate(4.07 64.66) rotate(-63.62)"/></g><ellipse class="cls-198" cx="54.19" cy="28.99" rx="5.15" ry="7.02" transform="translate(4.14 64.65) rotate(-63.62)"/><g class="cls-199"><path class="cls-200" d="M47.06,29,47,28.71l.08.18a3.41,3.41,0,0,1-.23-.83l0,.2a2.66,2.66,0,0,1,0-.69l0,.2v0a.57.57,0,0,0,0-.29.58.58,0,0,0-.09-.28.78.78,0,0,0-.44-.34.76.76,0,0,0-.57.08.66.66,0,0,0-.34.44,3.33,3.33,0,0,0,0,1.26,4.17,4.17,0,0,0,.39,1.09.81.81,0,0,0,.45.34A.74.74,0,0,0,47.06,29Z"/></g><g class="cls-129"><g class="cls-201"><path class="cls-202" d="M56.25,24.75c3.23,1.61,4.9,4.83,3.73,7.2-1,2-3.66,2.75-6.4,2C59,31.36,56,25.61,51,24.07A7.68,7.68,0,0,1,56.25,24.75Z"/></g></g><path class="cls-132" d="M52.62,33c-3.48-1.73-5.27-5.19-4-7.74a4.25,4.25,0,0,1,.75-1,4,4,0,0,0-1.47,1.61c-1.26,2.54.53,6,4,7.73,3,1.46,6.15,1.2,7.83-.46A7.47,7.47,0,0,1,52.62,33Z"/><path class="cls-132" d="M58,31.39a3.36,3.36,0,0,1-1.67,1.26l-.93-1.33a2.2,2.2,0,0,0,1.26-1c.24-.47.14-.75-.28-1-.88-.43-2.21,1.94-4.13,1a2.2,2.2,0,0,1-1.39-2.49l-1.14-.57.52-1.05,1.12.55a2.69,2.69,0,0,1,1.63-1l.68,1.33a1.52,1.52,0,0,0-1,.72c-.2.41-.17.67.27.89.83.41,2.08-2,4.08-1a2.32,2.32,0,0,1,1.45,2.55l1.16.58-.52,1.05Z"/><path class="cls-133" d="M58,30.82a3.3,3.3,0,0,1-1.67,1.26l-.93-1.32a2.2,2.2,0,0,0,1.26-1c.24-.47.14-.75-.29-1-.87-.44-2.2,1.93-4.12,1a2.21,2.21,0,0,1-1.39-2.5l-1.14-.56.52-1.06,1.12.56a2.71,2.71,0,0,1,1.63-1l.68,1.34a1.49,1.49,0,0,0-1,.72c-.21.4-.17.66.27.88.83.41,2.08-2,4.08-1a2.29,2.29,0,0,1,1.44,2.54l1.17.58-.53,1.06Z"/><g class="cls-199"><path class="cls-200" d="M51.18,27.63a1.77,1.77,0,0,0,.36,1.17,2.28,2.28,0,0,0,1,.74.31.31,0,0,0,.39-.22.33.33,0,0,0-.22-.4c-.06,0,0,0,0,0l0,0-.1-.06a.41.41,0,0,1-.11-.07l0,0s-.07-.05,0,0,0,0,0,0l0,0-.09-.08a.3.3,0,0,0-.08-.08.1.1,0,0,0,0-.05s.05.06,0,0a1.07,1.07,0,0,1-.13-.21l0,0s0-.07,0,0,0,0,0,0v-.05a.93.93,0,0,1,0-.13v-.06c0-.06,0,0,0,0a1,1,0,0,1,0-.25.32.32,0,0,0-.33-.32.34.34,0,0,0-.32.32Z"/></g><g class="cls-199"><path class="cls-200" d="M58,28.68a2,2,0,0,0-.63-1,2.36,2.36,0,0,0-1.2-.52.32.32,0,0,0-.23.09.31.31,0,0,0,0,.46.39.39,0,0,0,.23.09c-.08,0,0,0,0,0h.06l.13,0,.12,0,0,0h0l.22.11.1.08s-.05-.05,0,0l0,0c.06.06.12.11.17.17l0,.05s0,0,0,0a.61.61,0,0,0,.07.1l.06.11,0,0,0,0s0,0,0,0a.2.2,0,0,1,0,.11.56.56,0,0,1,0,.12.33.33,0,0,0,.4.23.33.33,0,0,0,.22-.4Z"/></g><g class="cls-203"><path class="cls-204" d="M832.5,133.67S757.88,72,648.17,53.47c-115.81-19.6-311.23-1.19-347.54,28.14-60.29,48.7-83-5.63-90-29.55S192.29-1.41,140.23,11.25c0,0-9.85-30.95-59.1-22.51S22-53.47,30.48-87.24,17.81-150.56-16-160.41s-60.5,11.26-105.53,4.22S-182-192.77-167.92-242s9.85-80.2-40.81-85.83c0,0,8.45-77.39-78.79-108.34S-409.94-401-460.59-415.09s-127.53-151-156.2-177.77c-123.19-114.83-279.54-91.28-430.1-16.7L-1061.5-16.62S-1005.4,81-790.08,71.07C-654.37,64.8-604.27,21-556.27-14.07c20.49-15,90-8.45,85.83,80.2C-472.74,114.49-348,114-325.51,192.76c19.09,66.83,77.39,60.51,111.16,36.59s35.17-68.95,21.1-88.65-43.62-83,21.11-85.83,90,11.26,102.71,42.21c0,0-11.25,123.83,60.51,163.22s139.3,9.85,166-8.44c0,0,1.41,59.1,40.81,59.1,0,0,19.69,90.05,150.55,66.13S462.44,239.2,530,170.25C602.63,96.09,658,94.27,832.5,133.67Z"/></g></g></g></svg>