<?xml version="1.0" encoding="utf-8"?>
<svg xmlns="http://www.w3.org/2000/svg" xmlns:xlink="http://www.w3.org/1999/xlink" width="156" height="71" style="width: 156px; height: 71px; background: none; shape-rendering: auto;"><path></path><g class="ldl-layer" transform="matrix(1 0 0 1 0 0) matrix(1 0 0 1 0 0)"><g class="ldl-ani"><g><g class="ldl-layer" transform="matrix(1 0 0 1 0 0)"><g class="ldl-ani"><g id="img_leaderboard_shine" transform="translate(-65.5 -212.5)" style="">
    
    
    
    
    
    
    
    
    
    
    
    
    
    
    
  <g class="ldl-layer" transform="matrix(1 0 0 1 0 0) matrix(1 0 0 1 65.5 212.5)"><g class="ldl-ani" style="transform-origin: 17.5px 15.5px; opacity: 0.31; animation: 0.877193s linear -0.779727s infinite normal forwards running dim-0d2eb357-04da-488b-905c-5c403bdc6e8c;"><g><g class="ldl-layer" transform="matrix(1 0 0 1 0 0) matrix(1 0 0 1 -65.5 -212.5)"><g class="ldl-ani"><path id="Path_1201" data-name="Path 1201" d="M0,0H25" transform="translate(70.5 228.5)" fill="none" stroke="#ffedbc" stroke-linecap="round" stroke-width="2" style="fill: none; stroke: rgb(255, 237, 188); stroke-linecap: round; stroke-width: 2px;"></path></g></g><g class="ldl-layer" transform="matrix(1 0 0 1 0 0) matrix(1 0 0 1 -65.5 -212.5)"><g class="ldl-ani"><path id="Path_1202" data-name="Path 1202" d="M0,0H25" transform="translate(83.5 215.5) rotate(90)" fill="none" stroke="#ffedbc" stroke-linecap="round" stroke-width="2" style="fill: none; stroke: rgb(255, 237, 188); stroke-linecap: round; stroke-width: 2px;"></path></g></g></g></g></g><g class="ldl-layer" transform="matrix(1 0 0 1 0 0) matrix(1 0 0 1 65.5 212.5)"><g class="ldl-ani" style="transform-origin: 135.5px 54.5px; opacity: 0.31; animation: 0.877193s linear -0.682261s infinite normal forwards running dim-0d2eb357-04da-488b-905c-5c403bdc6e8c;"><g><g class="ldl-layer" transform="matrix(1 0 0 1 0 0) matrix(1 0 0 1 -65.5 -212.5)"><g class="ldl-ani"><path id="Path_1212" data-name="Path 1212" d="M0,0H25" transform="translate(188.5 267.5)" fill="none" stroke="#ffd972" stroke-linecap="round" stroke-width="2" style="fill: none; stroke: rgb(255, 217, 114); stroke-linecap: round; stroke-width: 2px;"></path></g></g><g class="ldl-layer" transform="matrix(1 0 0 1 0 0) matrix(1 0 0 1 -65.5 -212.5)"><g class="ldl-ani"><path id="Path_1209" data-name="Path 1209" d="M0,0H25" transform="translate(201.5 254.5) rotate(90)" fill="none" stroke="#ffd972" stroke-linecap="round" stroke-width="2" style="fill: none; stroke: rgb(255, 217, 114); stroke-linecap: round; stroke-width: 2px;"></path></g></g></g></g></g><g class="ldl-layer" transform="matrix(1 0 0 1 0 0) matrix(1 0 0 1 65.5 212.5)"><g class="ldl-ani" style="transform-origin: 133px 8px; opacity: 0.31; animation: 0.877193s linear -0.584795s infinite normal forwards running dim-0d2eb357-04da-488b-905c-5c403bdc6e8c;"><g><g class="ldl-layer" transform="matrix(1 0 0 1 0 0) matrix(1 0 0 1 -65.5 -212.5)"><g class="ldl-ani"><path id="Path_1206" data-name="Path 1206" d="M0,0H14" transform="translate(191.5 220.78)" fill="none" stroke="#ffba2e" stroke-linecap="round" stroke-width="2" style="fill: none; stroke: rgb(255, 186, 46); stroke-linecap: round; stroke-width: 2px;"></path></g></g><g class="ldl-layer" transform="matrix(1 0 0 1 0 0) matrix(1 0 0 1 -65.5 -212.5)"><g class="ldl-ani"><path id="Path_1205" data-name="Path 1205" d="M0,0H14" transform="translate(198.78 213.5) rotate(90)" fill="none" stroke="#ffba2e" stroke-linecap="round" stroke-width="2" style="fill: none; stroke: rgb(255, 186, 46); stroke-linecap: round; stroke-width: 2px;"></path></g></g></g></g></g><g class="ldl-layer" transform="matrix(1 0 0 1 0 0) matrix(1 0 0 1 65.5 212.5)"><g class="ldl-ani" style="transform-origin: 8px 32px; opacity: 0.31; animation: 0.877193s linear -0.487329s infinite normal forwards running dim-0d2eb357-04da-488b-905c-5c403bdc6e8c;"><g><g class="ldl-layer" transform="matrix(1 0 0 1 0 0) matrix(1 0 0 1 -65.5 -212.5)"><g class="ldl-ani"><path id="Path_1203" data-name="Path 1203" d="M0,0H14" transform="translate(66.5 244.78)" fill="none" stroke="#ffba2e" stroke-linecap="round" stroke-width="2" style="fill: none; stroke: rgb(255, 186, 46); stroke-linecap: round; stroke-width: 2px;"></path></g></g><g class="ldl-layer" transform="matrix(1 0 0 1 0 0) matrix(1 0 0 1 -65.5 -212.5)"><g class="ldl-ani"><path id="Path_1204" data-name="Path 1204" d="M0,0H14" transform="translate(73.78 237.5) rotate(90)" fill="none" stroke="#ffba2e" stroke-linecap="round" stroke-width="2" style="fill: none; stroke: rgb(255, 186, 46); stroke-linecap: round; stroke-width: 2px;"></path></g></g></g></g></g><g class="ldl-layer" transform="matrix(1 0 0 1 0 0) matrix(1 0 0 1 65.5 212.5)"><g class="ldl-ani" style="transform-origin: 127px 59px; opacity: 0.31; animation: 0.877193s linear -0.389864s infinite normal forwards running dim-0d2eb357-04da-488b-905c-5c403bdc6e8c;"><g><g class="ldl-layer" transform="matrix(1 0 0 1 0 0) matrix(1 0 0 1 -65.5 -212.5)"><g class="ldl-ani"><path id="Path_1210" data-name="Path 1210" d="M0,0H10" transform="translate(187.5 271.7)" fill="none" stroke="#ff9f00" stroke-linecap="round" stroke-width="2" style="fill: none; stroke: rgb(255, 159, 0); stroke-linecap: round; stroke-width: 2px;"></path></g></g><g class="ldl-layer" transform="matrix(1 0 0 1 0 0) matrix(1 0 0 1 -65.5 -212.5)"><g class="ldl-ani"><path id="Path_1211" data-name="Path 1211" d="M0,0H10" transform="translate(192.7 266.5) rotate(90)" fill="none" stroke="#ff9f00" stroke-linecap="round" stroke-width="2" style="fill: none; stroke: rgb(255, 159, 0); stroke-linecap: round; stroke-width: 2px;"></path></g></g></g></g></g><g class="ldl-layer" transform="matrix(1 0 0 1 0 0) matrix(1 0 0 1 65.5 212.5)"><g class="ldl-ani" style="transform-origin: 78px 11px; opacity: 0.31; animation: 0.877193s linear -0.292398s infinite normal forwards running dim-0d2eb357-04da-488b-905c-5c403bdc6e8c;"><g><g class="ldl-layer" transform="matrix(1 0 0 1 0 0) matrix(1 0 0 1 -65.5 -212.5)"><g class="ldl-ani"><path id="Path_1207" data-name="Path 1207" d="M0,0H10" transform="translate(138.5 223.7)" fill="none" stroke="#ff7600" stroke-linecap="round" stroke-width="2" style="fill: none; stroke: rgb(255, 118, 0); stroke-linecap: round; stroke-width: 2px;"></path></g></g><g class="ldl-layer" transform="matrix(1 0 0 1 0 0) matrix(1 0 0 1 -65.5 -212.5)"><g class="ldl-ani"><path id="Path_1208" data-name="Path 1208" d="M0,0H10" transform="translate(143.7 218.5) rotate(90)" fill="none" stroke="#ff7600" stroke-linecap="round" stroke-width="2" style="fill: none; stroke: rgb(255, 118, 0); stroke-linecap: round; stroke-width: 2px;"></path></g></g></g></g></g><g class="ldl-layer" transform="matrix(1 0 0 1 0 0) matrix(1 0 0 1 0 0)"><g class="ldl-ani" style="transform-origin: 81px 259px; opacity: 0.31; animation: 0.877193s linear -0.194932s infinite normal forwards running dim-0d2eb357-04da-488b-905c-5c403bdc6e8c;"><circle id="Ellipse_193" data-name="Ellipse 193" cx="2" cy="2" r="2" transform="translate(79 257)" fill="#ffba2e" style="cx: 2px; cy: 2px; fill: rgb(255, 186, 46); r: 2px;"></circle></g></g><g class="ldl-layer" transform="matrix(1 0 0 1 0 0) matrix(1 0 0 1 0 0)"><g class="ldl-ani" style="transform-origin: 132px 215px; opacity: 0.31; animation: 0.877193s linear -0.0974659s infinite normal forwards running dim-0d2eb357-04da-488b-905c-5c403bdc6e8c;"><circle id="Ellipse_198" data-name="Ellipse 198" cx="2" cy="2" r="2" transform="translate(130 213)" fill="#ffba2e" style="cx: 2px; cy: 2px; fill: rgb(255, 186, 46); r: 2px;"></circle></g></g><g class="ldl-layer" transform="matrix(1 0 0 1 0 0) matrix(1 0 0 1 0 0)"><g class="ldl-ani" style="transform-origin: 190.5px 240.5px; opacity: 0.31; animation: 0.877193s linear 0s infinite normal forwards running dim-0d2eb357-04da-488b-905c-5c403bdc6e8c;"><circle id="Ellipse_194" data-name="Ellipse 194" cx="2.5" cy="2.5" r="2.5" transform="translate(188 238)" fill="#ffba2e" style="cx: 2.5px; cy: 2.5px; fill: rgb(255, 186, 46); r: 2.5px;"></circle></g></g></g></g></g></g></g></g><style id="dim-525ddd07-b736-499e-9d89-f6d66dbcbd25" data-anikit="">@keyframes dim-525ddd07-b736-499e-9d89-f6d66dbcbd25
{
  0% {
    animation-timing-function: cubic-bezier(0.9647,0.2413,-0.0705,0.7911);
    opacity: 0.31;
  }
  51% {
    animation-timing-function: cubic-bezier(0.9226,0.2631,-0.0308,0.7628);
    opacity: 0.68981;
  }
  100% {
    opacity: 0.31;
  }
}</style><style id="dim-0d2eb357-04da-488b-905c-5c403bdc6e8c" data-anikit="">@keyframes dim-0d2eb357-04da-488b-905c-5c403bdc6e8c
{
  0% {
    animation-timing-function: cubic-bezier(0.9647,0.2413,-0.0705,0.7911);
    opacity: 0.31;
  }
  51% {
    animation-timing-function: cubic-bezier(0.9226,0.2631,-0.0308,0.7628);
    opacity: 0.68981;
  }
  100% {
    opacity: 0.31;
  }
}</style><style id="dim-0d2eb357-04da-488b-905c-5c403bdc6e8c" data-anikit="">@keyframes dim-0d2eb357-04da-488b-905c-5c403bdc6e8c
{
  0% {
    animation-timing-function: cubic-bezier(0.9647,0.2413,-0.0705,0.7911);
    opacity: 0.31;
  }
  51% {
    animation-timing-function: cubic-bezier(0.9226,0.2631,-0.0308,0.7628);
    opacity: 0.68981;
  }
  100% {
    opacity: 0.31;
  }
}</style><style id="dim-0d2eb357-04da-488b-905c-5c403bdc6e8c" data-anikit="">@keyframes dim-0d2eb357-04da-488b-905c-5c403bdc6e8c
{
  0% {
    animation-timing-function: cubic-bezier(0.9647,0.2413,-0.0705,0.7911);
    opacity: 0.31;
  }
  51% {
    animation-timing-function: cubic-bezier(0.9226,0.2631,-0.0308,0.7628);
    opacity: 0.68981;
  }
  100% {
    opacity: 0.31;
  }
}</style><style id="dim-0d2eb357-04da-488b-905c-5c403bdc6e8c" data-anikit="">@keyframes dim-0d2eb357-04da-488b-905c-5c403bdc6e8c
{
  0% {
    animation-timing-function: cubic-bezier(0.9647,0.2413,-0.0705,0.7911);
    opacity: 0.31;
  }
  51% {
    animation-timing-function: cubic-bezier(0.9226,0.2631,-0.0308,0.7628);
    opacity: 0.68981;
  }
  100% {
    opacity: 0.31;
  }
}</style><style id="dim-0d2eb357-04da-488b-905c-5c403bdc6e8c" data-anikit="">@keyframes dim-0d2eb357-04da-488b-905c-5c403bdc6e8c
{
  0% {
    animation-timing-function: cubic-bezier(0.9647,0.2413,-0.0705,0.7911);
    opacity: 0.31;
  }
  51% {
    animation-timing-function: cubic-bezier(0.9226,0.2631,-0.0308,0.7628);
    opacity: 0.68981;
  }
  100% {
    opacity: 0.31;
  }
}</style><style id="dim-0d2eb357-04da-488b-905c-5c403bdc6e8c" data-anikit="">@keyframes dim-0d2eb357-04da-488b-905c-5c403bdc6e8c
{
  0% {
    animation-timing-function: cubic-bezier(0.9647,0.2413,-0.0705,0.7911);
    opacity: 0.31;
  }
  51% {
    animation-timing-function: cubic-bezier(0.9226,0.2631,-0.0308,0.7628);
    opacity: 0.68981;
  }
  100% {
    opacity: 0.31;
  }
}</style><style id="dim-0d2eb357-04da-488b-905c-5c403bdc6e8c" data-anikit="">@keyframes dim-0d2eb357-04da-488b-905c-5c403bdc6e8c
{
  0% {
    animation-timing-function: cubic-bezier(0.9647,0.2413,-0.0705,0.7911);
    opacity: 0.31;
  }
  51% {
    animation-timing-function: cubic-bezier(0.9226,0.2631,-0.0308,0.7628);
    opacity: 0.68981;
  }
  100% {
    opacity: 0.31;
  }
}</style><style id="dim-0d2eb357-04da-488b-905c-5c403bdc6e8c" data-anikit="">@keyframes dim-0d2eb357-04da-488b-905c-5c403bdc6e8c
{
  0% {
    animation-timing-function: cubic-bezier(0.9647,0.2413,-0.0705,0.7911);
    opacity: 0.31;
  }
  51% {
    animation-timing-function: cubic-bezier(0.9226,0.2631,-0.0308,0.7628);
    opacity: 0.68981;
  }
  100% {
    opacity: 0.31;
  }
}</style><style id="dim-0d2eb357-04da-488b-905c-5c403bdc6e8c" data-anikit="">@keyframes dim-0d2eb357-04da-488b-905c-5c403bdc6e8c
{
  0% {
    animation-timing-function: cubic-bezier(0.9647,0.2413,-0.0705,0.7911);
    opacity: 0.31;
  }
  51% {
    animation-timing-function: cubic-bezier(0.9226,0.2631,-0.0308,0.7628);
    opacity: 0.68981;
  }
  100% {
    opacity: 0.31;
  }
}</style></svg>