<svg xmlns="http://www.w3.org/2000/svg" width="149" height="68" viewBox="0 0 149 68">
  <g id="img_leaderboard_shine" transform="translate(-65.5 -212.5)">
    <path id="Path_1201" data-name="Path 1201" d="M0,0H25" transform="translate(70.5 228.5)" fill="none" stroke="#ffedbc" stroke-linecap="round" stroke-width="2"/>
    <path id="Path_1202" data-name="Path 1202" d="M0,0H25" transform="translate(83.5 215.5) rotate(90)" fill="none" stroke="#ffedbc" stroke-linecap="round" stroke-width="2"/>
    <path id="Path_1212" data-name="Path 1212" d="M0,0H25" transform="translate(188.5 267.5)" fill="none" stroke="#ffd972" stroke-linecap="round" stroke-width="2"/>
    <path id="Path_1209" data-name="Path 1209" d="M0,0H25" transform="translate(201.5 254.5) rotate(90)" fill="none" stroke="#ffd972" stroke-linecap="round" stroke-width="2"/>
    <path id="Path_1206" data-name="Path 1206" d="M0,0H14" transform="translate(191.5 220.78)" fill="none" stroke="#ffba2e" stroke-linecap="round" stroke-width="2"/>
    <path id="Path_1205" data-name="Path 1205" d="M0,0H14" transform="translate(198.78 213.5) rotate(90)" fill="none" stroke="#ffba2e" stroke-linecap="round" stroke-width="2"/>
    <path id="Path_1203" data-name="Path 1203" d="M0,0H14" transform="translate(66.5 244.78)" fill="none" stroke="#ffba2e" stroke-linecap="round" stroke-width="2"/>
    <path id="Path_1204" data-name="Path 1204" d="M0,0H14" transform="translate(73.78 237.5) rotate(90)" fill="none" stroke="#ffba2e" stroke-linecap="round" stroke-width="2"/>
    <path id="Path_1210" data-name="Path 1210" d="M0,0H10" transform="translate(187.5 271.7)" fill="none" stroke="#ff9f00" stroke-linecap="round" stroke-width="2"/>
    <path id="Path_1211" data-name="Path 1211" d="M0,0H10" transform="translate(192.7 266.5) rotate(90)" fill="none" stroke="#ff9f00" stroke-linecap="round" stroke-width="2"/>
    <path id="Path_1207" data-name="Path 1207" d="M0,0H10" transform="translate(138.5 223.7)" fill="none" stroke="#ff7600" stroke-linecap="round" stroke-width="2"/>
    <path id="Path_1208" data-name="Path 1208" d="M0,0H10" transform="translate(143.7 218.5) rotate(90)" fill="none" stroke="#ff7600" stroke-linecap="round" stroke-width="2"/>
    <circle id="Ellipse_193" data-name="Ellipse 193" cx="2" cy="2" r="2" transform="translate(79 257)" fill="#ffba2e"/>
    <circle id="Ellipse_198" data-name="Ellipse 198" cx="2" cy="2" r="2" transform="translate(130 213)" fill="#ffba2e"/>
    <circle id="Ellipse_194" data-name="Ellipse 194" cx="2.5" cy="2.5" r="2.5" transform="translate(188 238)" fill="#ffba2e"/>
  </g>
</svg>
