<svg xmlns="http://www.w3.org/2000/svg" width="36" height="36" viewBox="0 0 36 36"><defs><style>.a{fill:#fff;}.b{fill:#4792f7;}</style></defs><circle class="a" cx="18" cy="18" r="18"/><path class="b" d="M20,1.923a8.231,8.231,0,0,1-2.357.647A4.115,4.115,0,0,0,19.447.3a8.2,8.2,0,0,1-2.606.995A4.105,4.105,0,0,0,9.742,4.1a4.149,4.149,0,0,0,.107.936A11.648,11.648,0,0,1,1.393.751a4.107,4.107,0,0,0,1.27,5.477A4.069,4.069,0,0,1,.8,5.715v.052A4.1,4.1,0,0,0,4.1,9.789a4.1,4.1,0,0,1-1.081.144,4.036,4.036,0,0,1-.772-.074,4.109,4.109,0,0,0,3.833,2.85,8.243,8.243,0,0,1-5.1,1.755A8.27,8.27,0,0,1,0,14.407,11.611,11.611,0,0,0,6.29,16.25,11.594,11.594,0,0,0,17.964,4.578c0-.179,0-.354-.012-.53A8.34,8.34,0,0,0,20,1.925Z" transform="translate(8.041 10.334)"/></svg>