<svg xmlns="http://www.w3.org/2000/svg" width="37.901" height="26.632" viewBox="0 0 37.901 26.632"><defs><style>.a{fill:#f39404;}.b{fill:#ffba2e;}.c{fill:#ae5406;}.d{opacity:0.74;}.e{fill:#fff;}.f{fill:#27173a;}.g,.h{fill:none;stroke:#27173a;stroke-miterlimit:10;}.h{stroke-width:1.456px;}</style></defs><g transform="translate(-434.599 -1960.625)"><g transform="translate(447.7 1961.5)"><circle class="a" cx="11.944" cy="11.944" r="11.944" transform="translate(0.3 0.612)"/><circle class="b" cx="8.522" cy="8.522" r="8.522" transform="translate(1.246 7.869) rotate(-22.087)"/><path class="c" d="M7.51,16.792a8.458,8.458,0,0,1,15.242-5.253A8.5,8.5,0,0,0,15.268,6.9,8.539,8.539,0,0,0,6.8,15.563a8.769,8.769,0,0,0,1.748,5.253A7.881,7.881,0,0,1,7.51,16.792Z" transform="translate(-2.867 -2.823)"/><g class="d" transform="translate(4.907 1.407)"><path class="e" d="M10.544,5.3a2.8,2.8,0,0,1,.447-.391c-.056.056-.168.112-.224.168A6.288,6.288,0,0,1,11.942,4.4c-.112.056-.168.056-.279.112a6.779,6.779,0,0,1,.782-.279,1.419,1.419,0,0,0,.727-.5,1.4,1.4,0,0,0,.112-.838,1.07,1.07,0,0,0-1.341-.727A6.237,6.237,0,0,0,9.035,3.787a.9.9,0,0,0-.335.727,1.1,1.1,0,0,0,.335.782,1.116,1.116,0,0,0,1.509,0Z" transform="translate(-8.7 -2.123)"/></g><g class="d" transform="translate(19.047 16.265)"><path class="e" d="M36.121,30c-.056.112-.056.224-.112.335.056-.112.056-.168.112-.279a6.288,6.288,0,0,1-.671,1.174c.056-.056.112-.168.168-.224a10.728,10.728,0,0,1-.782.838,1.015,1.015,0,0,0-.335.782,1.1,1.1,0,0,0,.335.782,1.255,1.255,0,0,0,.782.335.5.5,0,0,0,.279-.056,1.217,1.217,0,0,0,.447-.279,5.86,5.86,0,0,0,1.844-2.794,1.116,1.116,0,0,0-.727-1.341,1.117,1.117,0,0,0-.838.112,1.086,1.086,0,0,0-.5.615Z" transform="translate(-34.5 -29.24)"/></g><g transform="translate(9.603 6.719)"><path class="c" d="M19.983,23.4A4.808,4.808,0,0,1,17.3,22.228l1.118-1.733a3.438,3.438,0,0,0,2.068.838c.782,0,1.062-.279,1.062-.838,0-1.23-3.912-1.4-3.912-4.024a2.792,2.792,0,0,1,2.347-2.906V12h1.677v1.565a3.93,3.93,0,0,1,2.291,1.285l-1.285,1.509a2.243,2.243,0,0,0-1.565-.727c-.671,0-.95.168-.95.782,0,1.174,3.912,1.23,3.912,3.968A2.935,2.935,0,0,1,21.715,23.4v1.621H20.039V23.4Z" transform="translate(-17.3 -12)"/></g><g transform="translate(8.782 6.397)"><path class="f" d="M18.483,22.8A4.808,4.808,0,0,1,15.8,21.628l1.118-1.733a3.438,3.438,0,0,0,2.068.838c.782,0,1.062-.279,1.062-.838,0-1.23-3.912-1.4-3.912-4.024a2.792,2.792,0,0,1,2.347-2.906V11.4h1.677v1.565a3.93,3.93,0,0,1,2.291,1.285l-1.285,1.4a2.243,2.243,0,0,0-1.565-.727c-.671,0-.95.168-.95.782,0,1.174,3.912,1.23,3.912,3.968a2.935,2.935,0,0,1-2.347,3.018V24.31H18.539V22.8Z" transform="translate(-15.8 -11.4)"/></g><circle class="g" cx="11.944" cy="11.944" r="11.944" transform="translate(0.412 0.5)"/><circle class="h" cx="8.647" cy="8.647" r="8.647" transform="translate(3.709 3.853)"/></g><g transform="matrix(0.951, -0.309, 0.309, 0.951, 434.7, 1967.123)"><circle class="a" cx="10.068" cy="10.068" r="10.068" transform="translate(0.3 0.594)"/><circle class="b" cx="7.183" cy="7.183" r="7.183" transform="translate(1.097 6.711) rotate(-22.087)"/><path class="c" d="M7.4,15.238A7.13,7.13,0,0,1,20.246,10.81,7.1,7.1,0,0,0,6.8,14.2,7.391,7.391,0,0,0,8.274,18.63,6.643,6.643,0,0,1,7.4,15.238Z" transform="translate(-3.438 -3.385)"/><g class="d" transform="translate(4.184 1.264)"><path class="e" d="M10.255,4.8a2.359,2.359,0,0,1,.377-.33c-.047.047-.141.094-.188.141a5.3,5.3,0,0,1,.989-.565c-.094.047-.141.047-.236.094a5.714,5.714,0,0,1,.66-.236,1.2,1.2,0,0,0,.612-.424,1.184,1.184,0,0,0,.094-.707.9.9,0,0,0-1.131-.612,5.257,5.257,0,0,0-2.45,1.366.76.76,0,0,0-.283.612.93.93,0,0,0,.283.66.941.941,0,0,0,1.272,0Z" transform="translate(-8.7 -2.123)"/></g><g class="d" transform="translate(16.102 13.789)"><path class="e" d="M35.866,29.881c-.047.094-.047.188-.094.283.047-.094.047-.141.094-.236a5.3,5.3,0,0,1-.565.989c.047-.047.094-.141.141-.188a9.043,9.043,0,0,1-.66.707.855.855,0,0,0-.283.66.93.93,0,0,0,.283.66,1.058,1.058,0,0,0,.66.283.425.425,0,0,0,.236-.047,1.026,1.026,0,0,0,.377-.236A4.94,4.94,0,0,0,37.609,30.4.941.941,0,0,0,37,29.268a.941.941,0,0,0-.707.094.915.915,0,0,0-.424.518Z" transform="translate(-34.5 -29.24)"/></g><g transform="translate(8.141 5.742)"><path class="c" d="M19.561,21.61a4.053,4.053,0,0,1-2.261-.989l.942-1.46a2.9,2.9,0,0,0,1.743.707c.66,0,.9-.236.9-.707,0-1.036-3.3-1.178-3.3-3.392a2.353,2.353,0,0,1,1.979-2.45V12h1.413v1.319A3.313,3.313,0,0,1,22.906,14.4l-1.083,1.272a1.891,1.891,0,0,0-1.319-.612c-.565,0-.8.141-.8.66,0,.989,3.3,1.036,3.3,3.345a2.474,2.474,0,0,1-1.979,2.544v1.366H19.608V21.61Z" transform="translate(-17.3 -12)"/></g><g transform="translate(7.449 5.47)"><path class="f" d="M18.061,21.01a4.053,4.053,0,0,1-2.261-.989l.942-1.46a2.9,2.9,0,0,0,1.743.707c.66,0,.9-.236.9-.707,0-1.036-3.3-1.178-3.3-3.392a2.353,2.353,0,0,1,1.979-2.45V11.4h1.413v1.319A3.312,3.312,0,0,1,21.406,13.8L20.322,14.98A1.891,1.891,0,0,0,19,14.368c-.565,0-.8.141-.8.66,0,.989,3.3,1.036,3.3,3.345a2.474,2.474,0,0,1-1.979,2.544v1.366H18.108V21.01Z" transform="translate(-15.8 -11.4)"/></g><circle class="g" cx="10.068" cy="10.068" r="10.068" transform="translate(0.394 0.5)"/><circle class="h" cx="7.288" cy="7.288" r="7.288" transform="translate(3.174 3.326)"/></g></g></svg>