<svg xmlns="http://www.w3.org/2000/svg" width="36" height="36" viewBox="0 0 36 36"><defs><style>.a{fill:#fff;}.b{fill:#36ce29;}</style></defs><circle class="a" cx="18" cy="18" r="18"/><path class="b" d="M21.836,9.016c0-5-4.931-9.016-10.918-9.016S0,4.015,0,9.016s3.874,8.171,9.157,8.875c.352.07.845.211.986.564a2.324,2.324,0,0,1,0,.986L10,20.357c-.07.282-.211,1.127.916.564s6.269-3.733,8.593-6.41h0a8.1,8.1,0,0,0,2.324-5.494ZM7.044,11.622a.211.211,0,0,1-.211.211H3.663v-.141h0V6.833a.211.211,0,0,1,.211-.211h.7a.211.211,0,0,1,.211.211h0v3.8H6.9a.211.211,0,0,1,.211.211h0Zm1.831,0a.211.211,0,0,1-.211.211h-.7a.211.211,0,0,1-.211-.211h0V6.833a.211.211,0,0,1,.211-.211h.775a.211.211,0,0,1,.211.211h0Zm5.283,0a.211.211,0,0,1-.211.211h-.916L10.848,8.8v2.888a.211.211,0,0,1-.211.211H9.861a.211.211,0,0,1-.211-.211h0V6.833a.211.211,0,0,1,.211-.211h.916L12.961,9.58V6.833a.211.211,0,0,1,.211-.211h.775a.211.211,0,0,1,.211.211h0Zm4.226-4.085a.211.211,0,0,1-.211.211H16.06v.845h2.113a.211.211,0,0,1,.211.211h0V9.58a.211.211,0,0,1-.211.211H16.06v.845h2.113a.211.211,0,0,1,.211.211h0v.775a.211.211,0,0,1-.211.211H15v-.141h0V6.833h0V6.692h3.24a.211.211,0,0,1,.211.211h0Z" transform="translate(7 8.714)"/></svg>