<svg xmlns="http://www.w3.org/2000/svg" xmlns:xlink="http://www.w3.org/1999/xlink" width="97.404" height="115.5" viewBox="0 0 97.404 115.5"><defs><style>.a{fill:#fbefec;}.au,.b{fill:#fff;}.c{clip-path:url(#a);}.d{fill:#27173a;}.e{fill:#e8b9a4;}.f{fill:#f1eff3;}.g{fill:#a3a3a9;}.h{fill:#41281d;}.i{fill:#3c221c;}.j{fill:#a6725a;}.k{fill:#8d8c8e;}.l{fill:#b58a74;}.m{fill:#e7c6b5;}.n{fill:#8a766f;}.o{fill:#666565;}.p{fill:#866350;}.q{fill:#f9ab86;}.r{fill:#f8f8f8;}.s{fill:#5d5e5d;}.t{fill:#6b5f59;}.u{fill:#999a98;}.v{fill:#5f4638;}.w{fill:#baa093;}.x{fill:#caaf9e;}.y{fill:#b2b1b2;}.z{fill:#2b2b2f;}.aa{fill:#7f8083;}.ab{fill:#f2e0d6;}.ac{fill:#cea189;}.ad{fill:#636061;}.ae{fill:#4e257b;}.af{fill:#010101;}.ag,.as{fill:none;}.ah{fill:#ab7a5f;}.ai{fill:#ffaa2e;}.ai,.aj,.ak,.am,.as,.at{stroke:#32194d;}.aj{fill:#ff9912;}.ak{fill:#ffb10f;}.ak,.am{stroke-linejoin:round;}.al{fill:#f7a006;}.am,.an{fill:#ffdc01;}.ao{fill:#ffb703;}.ap{fill:#fff876;}.aq{stroke:#ea7500;stroke-width:2px;fill:url(#b);}.ar{fill:url(#c);}.at{fill:url(#d);}.au,.av{font-size:20px;font-family:Tahoma-Bold, Tahoma;font-weight:700;letter-spacing:-0.05em;}.av{fill:#32194d;}.aw{stroke:none;}</style><clipPath id="a"><path class="a" d="M40.5,0A40.5,40.5,0,1,1,0,40.5,40.5,40.5,0,0,1,40.5,0Z" transform="translate(150 3365)"/></clipPath><linearGradient id="b" x1="0.111" y1="0.653" x2="0.867" y2="0.167" gradientUnits="objectBoundingBox"><stop offset="0" stop-color="#ff9f00"/><stop offset="1" stop-color="#ffd800"/></linearGradient><linearGradient id="c" x1="0.5" y1="0.215" x2="1" y2="0.609" xlink:href="#b"/><linearGradient id="d" x1="0.5" x2="0.5" y2="1" gradientUnits="objectBoundingBox"><stop offset="0" stop-color="#ea7500"/><stop offset="1" stop-color="#ffba2e"/></linearGradient></defs><g transform="translate(-142.457 -3344)"><g transform="translate(150 3364.747)"><path class="b" d="M40.5,0A40.5,40.5,0,1,1,0,40.5,40.5,40.5,0,0,1,40.5,0Z" transform="translate(0 0.253)"/></g><g class="c"><g transform="translate(155.279 3375.368)"><g transform="translate(-0.1 -0.608)"><path class="d" d="M20.7,137.068a12.292,12.292,0,0,0,1.331-1.517c.774-1.145,1.455-2.384,2.26-3.5A5.162,5.162,0,0,1,25.658,131c-.279.96-.712,1.95.372,2.755.557.712,1.084,1.424,1.641,2.136.712.929,1.424,1.858,2.167,2.755,1.053,1.269,2.136,2.539,3.22,3.808.991,1.176,1.95,2.384,2.941,3.56l4.272,5.108c.093.093.155.217.248.31.743,1.053,1.517,2.105,2.26,3.158.093.124.155.248.248.372,0,.031,0,.062.062.093.248.31.464.619.712.929,0,.062,0,.093.062.124.093.124.155.217.248.341.124.217.279.4.4.619.4.588.8,1.207,1.238,1.8.217.31.4.65.619.96.124-.062.217-.124.341-.186-.433-1.022-.836-2.043-1.269-3.065,0-.093-.031-.186-.031-.248-.031-.124-.093-.217-.124-.341,0-.093-.031-.186-.031-.248l-.279-.929c0-.093-.031-.186-.031-.248-.031-.124-.093-.217-.124-.341,0-.093-.031-.186-.031-.248-.031-.155-.093-.341-.124-.5,0-.093-.031-.186-.031-.279,0-.248-.031-.5-.031-.712a4.4,4.4,0,0,1,.155-1.115c.5-1.393,1.765-1.331,2.91-1.486-.248.8-.433,1.641-.712,2.415a6.752,6.752,0,0,0-.588,4.179c.217.774.5,1.548.743,2.322.093-.031.186-.031.248-.062l.186-.557a21.886,21.886,0,0,1,2.724-6.656c.31.929.588,1.857.9,2.817,0,.248.031.526.031.774v.248c-.031.526-.031,1.053-.062,1.579l-.062.031.031.031a1.509,1.509,0,0,1-.124.341c-.031.093-.031.217-.062.31l-.093.279c-.031.093-.062.217-.093.31a.9.9,0,0,0-.062.279c-.464,1.3-.836,2.6-1.362,3.87s.155,2.167.743,3.282c.217-.4.341-.681.464-.929a9.122,9.122,0,0,1,1.145-2.26,3.038,3.038,0,0,0,.867-2.631c.031-.093.031-.186.062-.279.093-.062.186-.093.279-.155.217.619.464,1.269.681,1.888a24.309,24.309,0,0,1,.062,2.6,19.759,19.759,0,0,1-.464,2.353c-1.486,2.879-.681,3.808.4,5.449.217-.681.433-1.331.619-1.95a8.633,8.633,0,0,0,.526-5.077,13.626,13.626,0,0,1-.155-1.579c.248.464.5.929.743,1.362a2.54,2.54,0,0,0,.062.681,13.709,13.709,0,0,1,.712,4.768C56,170.565,56,171.246,56,171.9c-.248.867-.464,1.765-.712,2.631-.681,1.3.372,2.26.557,3.374a.527.527,0,0,1,.217.031l.557-1.858c.093-.681.186-1.393.248-2.074a2.675,2.675,0,0,0,.217-.65c.031-.712,0-1.393,0-2.105,0-.991,0-2.012.031-3,.464.867.929,1.7,1.393,2.57.31,1.207.619,2.384.929,3.591.186.619.372,1.269.526,1.888.093-.031.186-.031.248-.062a16.393,16.393,0,0,0,0-2.136,35.558,35.558,0,0,0-3.5-10.743c-1.207-2.415-2.353-4.83-3.56-7.244-.5-1.022-1.053-2.012-1.579-3.034-.65-1.61-1.3-3.189-1.981-4.8a.094.094,0,0,0,0-.124,4.528,4.528,0,0,1-.155-.619c-.124-1.145-.279-2.291-.4-3.436a4.783,4.783,0,0,1,.712.186c2.724,1.517,5.449,3,8.111,4.613a17.963,17.963,0,0,1,6.192,6.285,25.955,25.955,0,0,1,2.91,8.514c.217,1.115.093,2.322.371,3.405a46.969,46.969,0,0,1,1.548,12.786c-.031,2.322-.031,4.644-.062,6.966H-.1V151.4a32.426,32.426,0,0,1,2.631-2.415c1.888-1.331,3.839-2.57,5.758-3.808,3.189-2.043,6.408-4.087,9.6-6.161C18.878,138.43,19.775,137.718,20.7,137.068ZM58.2,184.218c.186-.588.4-1.145.588-1.734,0-.588.031-1.207.031-1.8-.062-.279-.093-.526-.155-.8v-2.6h-.217c-.279,1.145-.526,2.291-.8,3.436A3.565,3.565,0,0,0,58.2,184.218Zm-7.151-36.129c-.062.062-.124.093-.186.155.712,1.115,1.424,2.26,2.167,3.374.4.619.836,1.238,1.269,1.827.093.093.341.093.5.124a1.79,1.79,0,0,0-.155-.433c-.743-1.115-1.517-2.229-2.291-3.313C51.941,149.235,51.477,148.677,51.044,148.089Zm3.344,6.192c.743,1.053,1.455,2.043,2.167,3.034a1.085,1.085,0,0,1,.248-.155l-.279-.557c-.248-.372-.8-.774-.743-1.053.186-.8-.526-1.084-.681-1.7C54.852,154,54.666,154.126,54.387,154.281Zm2.724,3.1c.031,0,.031-.031.062-.031-.031,0-.031-.031-.062-.031s-.031.031-.062.031A.108.108,0,0,1,57.112,157.377Z" transform="translate(0.1 -90.256)"/><path class="d" d="M103.833,10.523c-.4.681,0,1.084.4,1.61.619.8,1.053,1.765,1.765,2.631-.279-1.207-.588-2.446-.867-3.653l.279-.093a5.637,5.637,0,0,1,.464.836c.217.557.31,1.145.526,1.7a12.255,12.255,0,0,1,.464,5.789,3,3,0,0,0-.031.526,3.343,3.343,0,0,1-.8,2.817c-.031.093-.062.217-.093.31-.062.186-.124.4-.186.588-.124.248-.248.526-.371.774-.155.31-.31.588-.5.9-.248-.124-.464-.217-.712-.341L104.08,23.9a1.294,1.294,0,0,0-.124-.31c0-.186-.031-.4-.031-.588-.093-1.207-.186-2.415-.31-3.591V15.445a2.63,2.63,0,0,1,.4.155c.217.093.433.186.619.248a6.625,6.625,0,0,0-.31-.681,12.874,12.874,0,0,1-1.269-2.415,5.719,5.719,0,0,0-1.517-2.26h0l-.279-.464h0a2.2,2.2,0,0,0-.31-.433h0a2.2,2.2,0,0,0-.31-.433l-.31-.31c-.341-.464-.65-.929-.991-1.393-.062-.062-.124-.093-.186-.155h0c-.062-.062-.093-.124-.155-.186l-.929-.093a3.446,3.446,0,0,0-1.393.062,4.8,4.8,0,0,1-2.786.433,20,20,0,0,0-3.56.31,16.314,16.314,0,0,1-2.446.217,9.247,9.247,0,0,0-5.6,1.517,4.373,4.373,0,0,0-1.517,2.508,19.221,19.221,0,0,0-.681,3.808c-.155,1.393.588,2.539,2.446,2.6a29.173,29.173,0,0,1,4.334.588,3.579,3.579,0,0,1,1.238.712c.124.093.279.4.217.433a.948.948,0,0,1-.526.31c-.743-.093-1.455-.248-2.2-.341a2.411,2.411,0,0,0-.65.124h-.217a1.765,1.765,0,0,0-.4.031c-.062.031-.155.062-.217.093a1.862,1.862,0,0,0-2.043.96c.619-.124,1.207-.248,1.827-.372V21.3c-.124.062-.248.155-.279.155q1.3.372,2.693.743c.031.031.093.031.124.062l.464.186c.186.124.4.279.588.4a5.252,5.252,0,0,0,.31.433c.031.093.062.155.093.248a1.2,1.2,0,0,1-.464.062,7.754,7.754,0,0,1-.8-.217c-.093-.526-.31-.9-.929-.743a1.341,1.341,0,0,1-.031.155c-.062.186-.093.372-.155.557a1.527,1.527,0,0,1-2.074,0c-.062-.062-.526.217-.526.248.279.743-.433.836-.743.929-.4.124-.929-.155-1.362-.155-.65.031-.619-.341-.681-.8-.031-.217-.464-.433-.743-.557-.619-.248-1.269-.433-1.888-.65a.56.56,0,0,0-.836.526,15.477,15.477,0,0,1-1.331,3.87,10.214,10.214,0,0,0-.464,2.91c-.062,1.207,0,2.384.031,3.591a2.469,2.469,0,0,1-.093.464c-.155-.062-.341-.062-.433-.155a8.135,8.135,0,0,1-2.693-5.015.432.432,0,0,0-.093-.279,3.711,3.711,0,0,1-.774-2.879c.062-3.374.093-6.749.31-10.093a21.447,21.447,0,0,1,.991-5.2A9.43,9.43,0,0,1,73.926,7.4,28.377,28.377,0,0,1,76.62,4.3a7.135,7.135,0,0,1,2.105-1.331c1.641-.681,3.405-1.145,5.015-1.888a14.153,14.153,0,0,1,5.634-1.3A20.446,20.446,0,0,1,96.867.833a3.913,3.913,0,0,1,.8.4c.155.093.248.279.372.4l-.557.279c0-.031,0-.031-.031-.062h-.031c.031.031.062.031.062.062-.062.4.062,1.115-.681.372-.124-.124-.557-.186-.588-.093a2.388,2.388,0,0,0-.31.9c0,.062.279.248.464.279,1.145.279,2.291.526,3.436.8a1.186,1.186,0,0,1,.743.5,5.312,5.312,0,0,0,2.662,2.662,2.727,2.727,0,0,1,.991,2.941c0,.155-.248.186-.372.248-.031,0-.031-.031-.062-.062v.031C103.8,10.492,103.8,10.523,103.833,10.523ZM95.567,3.216c-.248.31-.464.5-.433.557a2.46,2.46,0,0,0,.433.557c.093-.124.279-.248.248-.341C95.845,3.8,95.721,3.619,95.567,3.216Zm7.616,7.461c0-.031-.031-.031-.031-.062,0,.031-.031.062-.031.093.031,0,.031.031.062,0Z" transform="translate(-48.85 0.346)"/><path class="e" d="M141.089,40.622c.062-.186.124-.4.186-.588l.464-.093c.093.588.217,1.207.31,1.8a5.252,5.252,0,0,1-1.207,4.21,10.978,10.978,0,0,0-.991,1.888,3.237,3.237,0,0,0-1.238,2.6c0,.186.31.372.464.557-.836,2.693-1.145,5.6-2.848,7.956a16.628,16.628,0,0,1-2.755,3.127,5.924,5.924,0,0,1-2.817.991,17.592,17.592,0,0,1-3.374-.124,1.606,1.606,0,0,1-.96-.5c-.65-.743-1.486-1.331-1.641-2.477a1.782,1.782,0,0,1,1.734-2.26,1.221,1.221,0,0,0,.743-.372.614.614,0,0,0,.031-.65c-.093-.155-.4-.155-.65-.186a7.917,7.917,0,0,1-.836-.155c-.124-.031-.155-.248-.248-.372a2.723,2.723,0,0,1,.464-.155c.279-.031.65.062.836-.062,1.393-.991,3.065-.96,4.613-1.3.4-.093.774-.093,1.176-.155a1.453,1.453,0,0,0,.279-.186c-.093-.093-.186-.217-.279-.217-1.765-.031-3.5-.712-5.325-.217-.5.124-1.115-.31-1.672-.464a.14.14,0,0,1-.093-.093c-.341-.526.619-2.446,1.238-2.508a16,16,0,0,0,.217,1.7c.031.186.341.341.5.5a1.905,1.905,0,0,0,.093-.557c-.124-.557-.341-1.084-.5-1.61a1.739,1.739,0,0,1,2.26-.588c.464.217.774.062.867-.341.031-.186-.279-.557-.5-.619-.557-.186-1.207-.124-1.734-.341a6.047,6.047,0,0,1-1.176-.867c-1.238-.929-.464-2.136-.5-3.282-.031-1.8-.155-3.591-.155-5.356a3.009,3.009,0,0,0-1.765-2.631,4.157,4.157,0,0,1-1.858-4.52,11.38,11.38,0,0,0-.248-2.662c0-.031-.031-.031-.031-.062-.4-1.827-.031-2.57,1.8-3.127a36.6,36.6,0,0,1,4.056-.929,2.606,2.606,0,0,1,1.084.124c1.641.526,3-.155,4.365-.9.96-.31,1.176.557,1.672,1.022-.31.155-.712.248-.9.5-.526.743-.9,1.579-1.424,2.322a2.186,2.186,0,0,1-.9.774c-.619.279-1.61-.062-1.548,1.115,0,.217-.031.588.062.619.248.093.65.155.8.031.433-.433.712-.248.929.155s.588.867.526,1.269c-.031.31-.619.557-1.115.96,1.7.062,2.662,1.115,3.653,2.136-.248.062-.526.155-.774.217-.743.186-1.517.341-2.26.5h-.557c-.341.062-.65.093-.991.155-.093.031-.155.062-.248.093a14.51,14.51,0,0,0-1.424.65c-.557.341-.557.929.031,1.207a6.547,6.547,0,0,0,1.176.279,2.169,2.169,0,0,1-.248.31c-.96,1.022-.96,1.022.062,2.043l.217.217c.8.8,1.424.836,2.446.155.124-.031.372-.031.4-.124.619-1.424,1.548-1.084,2.539-.464a4.631,4.631,0,0,1,.341.4c.155.372.341.743.464,1.115.093.248.217.619.124.743a1.268,1.268,0,0,0,.155,1.981,5.079,5.079,0,0,1,2.353,3.251c.124-.31.372-.681.279-.96a6.858,6.858,0,0,1,.031-3.87c.65.031.619-.5.774-.9.155-.31.31-.588.5-.9C140.841,41.148,140.965,40.9,141.089,40.622Zm-10.062,6.563a1.717,1.717,0,0,0-.248.186c.093.31.186.65.31.96.372.743.8,1.424,1.176,2.167a6.206,6.206,0,0,1,.8,3.994,2.149,2.149,0,0,0,.217,1.053c.031.124.248.217.4.217.093,0,.217-.217.248-.341a14.036,14.036,0,0,0,.155-1.641,8.794,8.794,0,0,0-1.424-4.8A11.179,11.179,0,0,0,131.027,47.185Zm.96-.526c.588.372,1.053.65,1.517.929.526.31.867,0,.836-.5a3.011,3.011,0,0,0-.372-1.084c-.093-.248-.341-.5-.341-.712.031-.619-.279-.8-.774-.836-.557-.062-1.145-.062-1.424-.712-.031-.093-.31-.124-.464-.155a1.633,1.633,0,0,0-.093.372c-.093.9.186,1.269,1.084,1.517.4.093.8.217,1.362.372C132.792,46.133,132.482,46.349,131.987,46.659Zm-1.517-12.91c0,.093-.031.186-.031.279.341.279.341,1.176,1.084.743.217-.124.217-.619.341-.929Q131.12,33.8,130.47,33.749Z" transform="translate(-84.218 -16.719)"/><path class="f" d="M115.747,164.349l2.105,2.012a3.478,3.478,0,0,0,.867.5,4.114,4.114,0,0,1,2.57,1.022c.093.248.217.526.341.836-.371-.062-.65-.093-.929-.124-1.95-.836-3.839-1.022-5.665.4-.65.526-.681.526.062,1.269.372.464.774.929,1.145,1.424.557.774,1.115,1.548,1.7,2.322v.5a6.5,6.5,0,0,0,.681,3.963c.155.433.186.712-.371.8-.124-.217-.279-.4-.4-.619-.093-.124-.155-.217-.248-.341a.161.161,0,0,1-.062-.124c-.248-.31-.464-.619-.712-.929-.031-.031-.062-.062-.062-.093-.093-.124-.155-.248-.248-.371-.743-1.053-1.517-2.105-2.26-3.158-.093-.093-.155-.217-.248-.31l-4.272-5.108c-.991-1.176-1.95-2.384-2.941-3.56.464-.093.929-.155,1.393-.279,1.765-.464,3.405-1.424,5.325-1.115C114.261,163.637,115,163.978,115.747,164.349Z" transform="translate(-73.705 -112.491)"/><path class="d" d="M87.1,118.172V116.5c.991,1.765,1.95,3.436,3,5.263.248-.433.341-.619.5-.867a9.283,9.283,0,0,0,3.5,3.251c.371.248.96.155,1.424.279a2.081,2.081,0,0,1,1.022.464,5.038,5.038,0,0,0,3.405,1.919,1.326,1.326,0,0,1,.5.155,1.8,1.8,0,0,1,.31.372,1.092,1.092,0,0,1-.4.248,6.683,6.683,0,0,1-3.405.031,1.064,1.064,0,0,0-1.424.8c-1.486-.929-2.941-1.888-4.427-2.817a11.7,11.7,0,0,1-1.269-1.207,16.592,16.592,0,0,1-2.012-2.879,12.315,12.315,0,0,1-.557-2.662C87.193,118.636,87.162,118.388,87.1,118.172Z" transform="translate(-60.104 -80.245)"/><path class="e" d="M109.382,73.621c.619-.155.836.217.929.743.031.341-.186.836.5.836.279,0,.557.062.867.093a18.137,18.137,0,0,1-3.034,7.461,4.424,4.424,0,0,0-.433.619c-.372.65-.372.65-1.053.279-.031.279-.093.557-.124.8h0a3.371,3.371,0,0,1-.433-.712,21.566,21.566,0,0,1-.96-2.322,11.283,11.283,0,0,1-.65-2.631c-.093-.9.867-1.115,1.393-1.579.372-.31.9-.433,1.3-.712.217-.155.31-.464.464-.681a.649.649,0,0,1,.341-.248,11.731,11.731,0,0,0,1.641-.433c-.619,0-.991-.155-.929-.836.062-.186.093-.371.155-.557A.32.32,0,0,0,109.382,73.621Z" transform="translate(-72.448 -50.616)"/><path class="g" d="M92.68,144.364c1.486.929,2.941,1.888,4.427,2.817,1.238.681,2.508,1.362,3.746,2.074a3.649,3.649,0,0,1,.681.526c-1.919-.31-3.56.65-5.325,1.115-.464.124-.929.186-1.393.279-1.084-1.269-2.167-2.539-3.22-3.808-.743-.9-1.424-1.858-2.167-2.755-.124-.9.093-1.084,1.022-.836C91.194,143.962,91.937,144.179,92.68,144.364Z" transform="translate(-61.69 -99.007)"/><path class="h" d="M127.254,79.9c-.217.526-.464.774-1.022.526-.743-.341-1.362.155-1.919.5a.948.948,0,0,1-1.269-.186c-.4-.4-.96-.619-.867-1.486.155-1.734,1.238-2.879,2.291-4.056a1.036,1.036,0,0,0,.217-1.3,7.806,7.806,0,0,1-.5-5.294,1.946,1.946,0,0,1,1.3,2.167c-.093,2.415-.186,4.83-.31,7.275-.031.5-.217.712-.712.4-.124-.093-.279-.217-.4-.186a.96.96,0,0,0-.557.279.827.827,0,0,0-.093.557.439.439,0,0,0,.433.124C125.211,78.538,126.14,79.5,127.254,79.9Z" transform="translate(-84.315 -47.174)"/><path class="i" d="M116.7,112.414c.155-.5.31-1.115.526-1.765.155-.464.4-.4.681-.093.186.217.464.4.5.619.248,1.486,1.362,1.486,2.477,1.641a8.336,8.336,0,0,1,1.888.588c.124.031.186.248.279.4a2.907,2.907,0,0,1-.464.186c-1.238.155-2.508.31-3.777.433a.682.682,0,0,1-.557-.093C117.66,113.838,116.762,113.59,116.7,112.414Z" transform="translate(-80.54 -75.973)"/><path class="j" d="M109.938,112.8c-.31,1.176.217,2.167.588,3.22.371,1.022.65,2.074,1.022,3.251a3,3,0,0,1-1.022-.31,16.08,16.08,0,0,1-1.641-1.61.614.614,0,0,1-.186-.4A6.741,6.741,0,0,1,109.938,112.8Z" transform="translate(-75.017 -77.69)"/><path class="k" d="M83.639,121.9c.062.248.093.464.155.712-.093.124-.217.217-.217.341-.124,1.393-.248,2.817-.4,4.21,0,.093-.248.186-.4.279-1.053-.774-.65-1.765-.372-2.755C82.8,123.758,83.237,122.829,83.639,121.9Z" transform="translate(-56.643 -83.973)"/><path class="l" d="M114.65,66.3h.217c.867.31,1.765.588,2.631.929a3.3,3.3,0,0,1,.712.619.648.648,0,0,1-.124.186c-.341-.062-.712-.093-1.053-.155h0l-.743-.464h0A2.774,2.774,0,0,0,114,66.826c.031-.124.031-.279.062-.4.062-.031.155-.062.217-.093A1.276,1.276,0,0,1,114.65,66.3Z" transform="translate(-78.676 -45.586)"/><path class="m" d="M176.064,103.258c-.155-.186-.464-.372-.464-.557a3.155,3.155,0,0,1,1.238-2.6C176.591,101.122,176.343,102.174,176.064,103.258Z" transform="translate(-121.206 -68.922)"/><path class="n" d="M115.193,70.3c-.9-.248-1.827-.5-2.693-.743,0,0,.155-.093.279-.155.8.062,1.61.093,2.415.155h0l.743.464h0l-.186.557-.464-.186A.082.082,0,0,0,115.193,70.3Z" transform="translate(-77.641 -47.726)"/><path class="o" d="M137.41,108.631a15.993,15.993,0,0,1,.5,1.61,1.753,1.753,0,0,1-.093.557c-.186-.155-.464-.31-.5-.5a15.043,15.043,0,0,1-.217-1.7A1.161,1.161,0,0,0,137.41,108.631Z" transform="translate(-94.625 -74.791)"/><path class="p" d="M123.562,77.029a7.437,7.437,0,0,0-.867-.093c-.65,0-.433-.5-.5-.836a3.884,3.884,0,0,0,.8.217,1.2,1.2,0,0,0,.464-.062c.062,0,.155.031.217.031v.31c-.031.155-.093.279-.124.433Z" transform="translate(-84.338 -52.352)"/><path class="o" d="M160.772,24.631c-.5-.464-.743-1.331-1.672-1.022V23.3l.929.093c.062.062.093.124.155.186h0c.062.062.124.093.186.155.341.464.65.929.991,1.393A4.528,4.528,0,0,1,160.772,24.631Z" transform="translate(-109.814 -15.898)"/><path class="p" d="M125.31,74.833A5.253,5.253,0,0,0,125,74.4c.124.093.217.186.341.279A.232.232,0,0,0,125.31,74.833Z" transform="translate(-86.271 -51.178)"/><path class="o" d="M184.664,74.017l-.464.093c.031-.093.062-.217.093-.31A2.309,2.309,0,0,1,184.664,74.017Z" transform="translate(-127.143 -50.764)"/><path class="l" d="M111.5,108.7c.093.031.186.062.31.093a1.347,1.347,0,0,1-.217.186l-.093-.279Z" transform="translate(-76.95 -74.86)"/><path class="l" d="M126,75.386c0-.062.031-.124.031-.186a2.2,2.2,0,0,0,.31.433c-.062,0-.155-.031-.217-.031A.5.5,0,0,1,126,75.386Z" transform="translate(-86.961 -51.731)"/><path class="l" d="M126.6,78.064c.062-.155.093-.31.155-.464A4.068,4.068,0,0,0,126.6,78.064Z" transform="translate(-87.375 -53.388)"/><path class="q" d="M153.472,192.405a23.569,23.569,0,0,0-2.724,6.656l-.186.557c-.093.031-.186.031-.248.062l-.743-2.322a6.722,6.722,0,0,1,.588-4.179c.279-.8.5-1.61.712-2.415.093-.155.217-.31.31-.464.526.093,1.084.186,1.61.279.155.5.341.96.5,1.455a1.716,1.716,0,0,1-.186.248c.155.031.248.093.372.124Z" transform="translate(-103.133 -131.197)"/><path class="f" d="M160.567,189.92h0a2.425,2.425,0,0,1-.155-.433c-.155-.5-.341-.96-.5-1.455-.062-.155-.155-.341-.217-.5l.279-.836c.65,1.61,1.3,3.189,1.981,4.8a1.536,1.536,0,0,0,.093.4c1.207,2.848,2.446,5.727,3.653,8.576.093.372.248.743.31,1.115.093.557.526,1.115-.062,1.641-.093-.124-.186-.217-.279-.341-.248-.464-.5-.929-.743-1.362-.341-.588-.65-1.207-.991-1.8-.217-.619-.464-1.269-.681-1.888-.093-.217-.186-.433-.279-.619-.372-1.053-.712-2.136-1.084-3.189-.031-.124-.248-.186-.372-.279v-.248c0-.248-.031-.526-.031-.774C161.155,191.808,160.876,190.879,160.567,189.92Z" transform="translate(-110.228 -128.712)"/><path class="r" d="M146.729,158.648c.341-.836.681-1.641,1.053-2.477.062-.155.31-.248.464-.372.062.186.124.341.186.526.464,1.641.929,3.251,1.393,4.891.124,1.145.279,2.291.4,3.436h-.186c-.279-.65-.588-1.3-.867-1.981-.155-.186-.248-.5-.433-.588-1.022-.464-2.074-.867-2.941-1.207C146.079,160.2,146.388,159.422,146.729,158.648Z" transform="translate(-100.631 -107.378)"/><path class="s" d="M170.746,211.278c-1.238-2.848-2.446-5.727-3.653-8.576a1.891,1.891,0,0,1-.093-.4c.526.991,1.053,2.012,1.579,3.034,1.207,2.415,2.353,4.861,3.56,7.244a33.923,33.923,0,0,1,3.5,10.743,16.4,16.4,0,0,1,0,2.136c-.093.031-.186.031-.248.062-.186-.619-.372-1.269-.526-1.888a3.488,3.488,0,0,0,.464.217c-.4-1.331-.743-2.57-1.115-3.808a23.661,23.661,0,0,0-1.919-6.316C171.8,212.857,171.241,212.083,170.746,211.278Z" transform="translate(-115.268 -139.482)"/><path class="q" d="M162.389,221.131a3.13,3.13,0,0,1-.867,2.631,8.612,8.612,0,0,0-1.145,2.26c-.124.248-.248.526-.464.929-.619-1.145-1.269-2.012-.743-3.282s.929-2.57,1.362-3.87c.031.372.062.743.124,1.084.124.774.31,1.579.464,2.353h.4l.372-1.672C162.048,221.441,162.2,221.286,162.389,221.131Z" transform="translate(-109.728 -151.565)"/><path class="o" d="M84.3,129.03c.124-.093.372-.186.4-.279.155-1.393.248-2.817.4-4.21,0-.124.155-.217.217-.341a9.257,9.257,0,0,0,.557,2.662,16.592,16.592,0,0,0,2.012,2.879,9.415,9.415,0,0,0,1.269,1.207c-.743-.217-1.486-.433-2.2-.619-.929-.248-1.145-.031-1.022.836C85.384,130.454,84.857,129.742,84.3,129.03Z" transform="translate(-58.171 -85.561)"/><path class="t" d="M140.425,187.2c-.093.155-.217.31-.31.464-1.145.155-2.415.093-2.91,1.486a4.4,4.4,0,0,0-.155,1.115,2.749,2.749,0,0,0,.031.712c-.155-.279-.279-.557-.433-.836v-.5a2.494,2.494,0,0,0-1.7-2.322c-.371-.464-.774-.929-1.145-1.424l3.715.65C138.444,186.767,139.434,186.984,140.425,187.2Z" transform="translate(-92.346 -128.16)"/><path class="q" d="M172.4,228.9c.341.588.65,1.207.991,1.8.062.526.062,1.053.155,1.579a8.659,8.659,0,0,1-.526,5.077,4.388,4.388,0,0,1-.248-.557c-.279-.96-.526-1.95-.774-2.941a21.057,21.057,0,0,0,.464-2.353A24.313,24.313,0,0,0,172.4,228.9Z" transform="translate(-118.72 -157.847)"/><path class="u" d="M179.1,231.3c.5.8,1.084,1.579,1.517,2.415a23.662,23.662,0,0,1,1.919,6.316h-.279c-.464-.867-.929-1.7-1.393-2.57-.526-1.145-1.022-2.26-1.548-3.405.588-.526.155-1.084.062-1.641A7.334,7.334,0,0,0,179.1,231.3Z" transform="translate(-123.622 -159.504)"/><path class="v" d="M179.21,239.441c.526,1.145,1.022,2.26,1.548,3.405,0,.991-.031,2.012-.031,3,0,.712.031,1.393,0,2.105a1.792,1.792,0,0,1-.217.65c-.062-.4-.155-.836-.217-1.238s-.093-.836-.681-.836c.031-.65.031-1.331.062-1.981a13.219,13.219,0,0,0-.712-4.768,4.635,4.635,0,0,1-.062-.681A3.084,3.084,0,0,0,179.21,239.441Z" transform="translate(-123.484 -164.89)"/><path class="m" d="M170.268,244.9c.248.991.526,1.95.774,2.941a4.381,4.381,0,0,0,.248.557c-.217.619-.4,1.269-.619,1.95C169.556,248.708,168.782,247.779,170.268,244.9Z" transform="translate(-116.957 -168.894)"/><path class="w" d="M186.966,287.026v.248c.062.279.093.526.155.8,0,.588-.031,1.207-.031,1.8-.186.588-.4,1.146-.588,1.734a3.533,3.533,0,0,1-.526-3.529c.217-.526.464-1.053.681-1.579A4.658,4.658,0,0,1,186.966,287.026Z" transform="translate(-128.206 -197.615)"/><path class="q" d="M179.581,263.1c.588,0,.588.433.681.836.062.4.155.836.217,1.238-.093.681-.186,1.393-.248,2.074a3.233,3.233,0,0,1-.619-.464,12.527,12.527,0,0,1-.712-1.053C179.117,264.865,179.364,263.967,179.581,263.1Z" transform="translate(-123.484 -181.46)"/><path class="x" d="M166.479,214.02c-.186.155-.341.31-.526.464l-.929-2.693a3.214,3.214,0,0,1-.124-.31,1.508,1.508,0,0,1,.124-.341l.031-.062c.031-.526.031-1.053.062-1.579.124.093.31.155.372.279.372,1.053.743,2.136,1.084,3.189v.774A.983.983,0,0,0,166.479,214.02Z" transform="translate(-113.818 -144.453)"/><path class="u" d="M153.217,178c.279.65.588,1.3.867,1.981.124.186.217.4.341.588a.065.065,0,0,1,0,.124l-.279.836a11.576,11.576,0,0,0-2.446-2.755c.279.031.557.093.929.124-.124-.341-.248-.588-.341-.836C152.6,178.062,152.907,178.031,153.217,178Z" transform="translate(-104.705 -122.705)"/><path class="y" d="M142.658,199.7c.155.279.279.557.433.836,0,.093.031.186.031.279.031.155.093.341.124.5,0,.093.031.186.031.248.031.124.093.217.124.341,0,.093.031.186.031.248l.279.929c0,.093.031.186.031.248.031.124.093.217.124.341,0,.093.031.186.031.248.031.217.062.464.093.681.062.526.155,1.053.217,1.61-.4-.588-.8-1.207-1.238-1.8.557-.062.526-.341.371-.8A6.308,6.308,0,0,1,142.658,199.7Z" transform="translate(-98.387 -137.687)"/><path class="q" d="M164.433,216.9l.929,2.693-.372,1.672h-.4c-.155-.774-.31-1.548-.464-2.353-.062-.371-.062-.743-.124-1.084a.9.9,0,0,0,.062-.279c.031-.093.062-.217.093-.31l.093-.279C164.279,216.9,164.341,216.9,164.433,216.9Z" transform="translate(-113.197 -149.562)"/><path class="x" d="M178.385,271.6c.248.341.433.712.712,1.053a4.612,4.612,0,0,0,.619.464l-.557,1.858a.527.527,0,0,1-.217-.031C178.726,273.86,177.7,272.9,178.385,271.6Z" transform="translate(-122.969 -187.328)"/><path class="z" d="M164.686,186.2c.433.588.9,1.145,1.3,1.734.774,1.084,1.517,2.2,2.291,3.313a1.04,1.04,0,0,1,.155.433c-.186-.031-.433-.031-.5-.124-.464-.588-.867-1.207-1.269-1.827-.743-1.115-1.455-2.229-2.167-3.374A.822.822,0,0,0,164.686,186.2Z" transform="translate(-113.542 -128.367)"/><path class="z" d="M175.9,205.233c.248-.155.464-.279.712-.433.155.619.867.9.681,1.7-.062.279.5.681.743,1.053a3.122,3.122,0,0,1,.279.557,1.085,1.085,0,0,1-.248.155C177.355,207.277,176.643,206.255,175.9,205.233Z" transform="translate(-121.413 -141.208)"/><path class="q" d="M187.422,282.884c-.093-.155-.186-.31-.341-.526-.248.526-.464,1.053-.681,1.579.279-1.145.526-2.291.8-3.436h.217Z" transform="translate(-128.662 -193.473)"/><path class="aa" d="M189.3,259.5h.279c.371,1.238.712,2.477,1.115,3.808a1.9,1.9,0,0,0-.464-.217C189.919,261.884,189.61,260.707,189.3,259.5Z" transform="translate(-130.664 -178.974)"/><path class="t" d="M147.11,215.691c-.062-.526-.155-1.053-.217-1.61-.031-.217-.062-.464-.093-.681.433,1.022.836,2.043,1.269,3.065-.124.062-.217.124-.341.186C147.543,216.341,147.326,216.031,147.11,215.691Z" transform="translate(-101.322 -147.146)"/><path class="n" d="M188.2,299.034c.186-.588.4-1.145.588-1.734C188.6,297.888,188.386,298.476,188.2,299.034Z" transform="translate(-129.905 -205.072)"/><path class="y" d="M139.2,208.6c.248.31.464.619.712.929C139.7,209.219,139.448,208.91,139.2,208.6Z" transform="translate(-96.075 -143.832)"/><path class="t" d="M145.579,208.629l-.279-.929C145.393,207.979,145.486,208.319,145.579,208.629Z" transform="translate(-100.286 -143.211)"/><path class="n" d="M189.855,289.8c-.062-.279-.093-.526-.155-.8A6.18,6.18,0,0,1,189.855,289.8Z" transform="translate(-130.94 -199.341)"/><path class="f" d="M159.741,184.988c-.124-.186-.217-.4-.341-.588h.186A4.124,4.124,0,0,1,159.741,184.988Z" transform="translate(-110.021 -127.124)"/><path class="w" d="M170.2,221.474V220.7c.093.217.186.433.279.619C170.386,221.381,170.293,221.412,170.2,221.474Z" transform="translate(-117.477 -152.186)"/><path class="t" d="M144.524,203.8c-.031-.155-.093-.341-.124-.5A3.847,3.847,0,0,0,144.524,203.8Z" transform="translate(-99.665 -140.173)"/><path class="w" d="M165.4,206.2c0,.248.031.526.031.774A6.217,6.217,0,0,0,165.4,206.2Z" transform="translate(-114.163 -142.175)"/><path class="y" d="M138.2,207.1c.093.124.155.248.248.372A2.581,2.581,0,0,0,138.2,207.1Z" transform="translate(-95.384 -142.796)"/><path class="t" d="M146.424,211.841c-.031-.124-.093-.217-.124-.341C146.331,211.624,146.393,211.717,146.424,211.841Z" transform="translate(-100.977 -145.834)"/><path class="y" d="M141.7,212c.093.124.155.217.248.341A3.241,3.241,0,0,0,141.7,212Z" transform="translate(-97.801 -146.179)"/><path class="t" d="M144.924,206.041c-.031-.124-.093-.217-.124-.341A1.509,1.509,0,0,1,144.924,206.041Z" transform="translate(-99.941 -141.83)"/><path class="w" d="M164.986,216.279a.393.393,0,0,0-.186.031c.031-.093.031-.217.062-.31C164.893,216.062,164.924,216.155,164.986,216.279Z" transform="translate(-113.749 -148.941)"/><path class="w" d="M164.293,217.8c-.031.093-.062.217-.093.31C164.231,218.017,164.262,217.924,164.293,217.8Z" transform="translate(-113.335 -150.184)"/><path class="y" d="M130.2,195.9c.093.093.155.217.248.31A1.212,1.212,0,0,1,130.2,195.9Z" transform="translate(-89.861 -135.064)"/><path class="z" d="M184.562,216.062c-.031,0-.031-.031-.062-.031.031,0,.031-.031.062-.031s.031.031.062.031C184.593,216.062,184.593,216.062,184.562,216.062Z" transform="translate(-127.35 -148.941)"/><path class="w" d="M165.262,214.6l-.031.062-.031-.062Z" transform="translate(-114.025 -147.974)"/><path class="n" d="M146.8,168.956c-.31.031-.619.031-.96.062a4.3,4.3,0,0,0-2.57-1.022,2.244,2.244,0,0,1-.867-.5,4.7,4.7,0,0,1,1.95-2.6c-.31.774-.65,1.548-.929,2.26.867.341,1.919.743,2.941,1.207C146.548,168.46,146.672,168.77,146.8,168.956Z" transform="translate(-98.284 -113.661)"/><path class="ab" d="M153.926,27.6l.557.464.31.31a2.2,2.2,0,0,0,.31.433h0a2.2,2.2,0,0,0,.31.433h0l.279.464h0l.929,2.229a8.7,8.7,0,0,1-.031.9,4,4,0,0,1-.31,1.765,2.788,2.788,0,0,0-.433,2.446c.217.929.155.991-.8.8-.341-.124-.65-.279-.991-.4-.991-1.022-1.981-2.074-3.653-2.136.5-.4,1.084-.65,1.115-.96.062-.4-.31-.867-.526-1.269s-.5-.588-.929-.155c-.155.124-.557.062-.8-.031-.093-.031-.062-.4-.062-.619-.062-1.176.96-.867,1.548-1.115a2.155,2.155,0,0,0,.9-.774c.5-.743.9-1.579,1.424-2.322C153.214,27.848,153.616,27.786,153.926,27.6Zm-.8,5.356a9.094,9.094,0,0,0-1.3-1.362c-.155-.124-.681.31-1.022.464a6.5,6.5,0,0,0,1.115,1.3c.217.155.743-.155,1.145-.248A.523.523,0,0,1,153.121,32.956Zm-3.065-.619-.031.031h.031Z" transform="translate(-102.968 -18.867)"/><path class="ac" d="M157.153,47.613c.929.155,1.022.093.8-.8a2.694,2.694,0,0,1,.433-2.446,3.915,3.915,0,0,0,.31-1.765,8.4,8.4,0,0,0,.031-.9c.155.774.31,1.548.433,2.322.248,1.424.464,2.879.712,4.3.093,1.207.186,2.415.31,3.591a2.907,2.907,0,0,1-.371-.557,5.324,5.324,0,0,1-.155-.9,1.8,1.8,0,0,0-.341,1.95.7.7,0,0,1-.093.557c-.31.372-.681.712-1.084,1.145-.279-.372-.588-.8-.9-1.238.093-.248.31-.681.217-.743-.526-.464-1.145-.836-1.7-1.269-.031,0-.031-.031-.062-.031.031,0,.031.031.062.031,0,.124-.031.279-.031.4-.062,0-.155-.031-.217-.031-.124-.031-.217-.093-.341-.124a.857.857,0,0,1-.279-.031c-.4-.155-.774-.31-1.3-.526.279-.124.4-.186.65-.31-.712-.217-1.269-.372-2.043-.619a7.63,7.63,0,0,1,4.427.155c.836.31,1.455-.248,1.238-1.145C157.68,48.294,157.37,47.985,157.153,47.613Z" transform="translate(-105.05 -28.602)"/><path class="ab" d="M167.579,72.515c.31.433.619.867.9,1.238.4-.433.774-.743,1.084-1.145a.7.7,0,0,0,.093-.557,1.73,1.73,0,0,1,.341-1.95,5.326,5.326,0,0,0,.155.9,2.189,2.189,0,0,0,.372.557c0,.186.031.4.031.588-.062.031-.155.093-.217.124.124.062.217.124.341.186l.093,1.022c-.031.4-.062.8-.062,1.207a6.858,6.858,0,0,0-.031,3.87c.093.279-.124.65-.279.96a5.355,5.355,0,0,0-2.353-3.251,1.248,1.248,0,0,1-.155-1.981c.093-.124-.031-.5-.124-.743-.124-.371-.31-.743-.464-1.115A.983.983,0,0,0,167.579,72.515Z" transform="translate(-115.475 -48.21)"/><path class="o" d="M172.174,43.454c-.217-1.424-.464-2.879-.712-4.3-.124-.774-.279-1.548-.433-2.322L170.1,34.6a5.508,5.508,0,0,1,1.517,2.26,11.283,11.283,0,0,0,1.269,2.415c.124.217.186.433.31.681-.217-.093-.433-.186-.619-.248a2.63,2.63,0,0,0-.4-.155Z" transform="translate(-117.408 -23.7)"/><path class="s" d="M109.543,66.586c-.031.124-.031.279-.062.4l-.155.155c-.619.124-1.238.248-1.827.371A1.953,1.953,0,0,1,109.543,66.586Z" transform="translate(-74.188 -45.779)"/><path class="o" d="M113.4,68.145l.155-.155a2.8,2.8,0,0,1,2.291.588c-.8-.062-1.61-.093-2.415-.155A.857.857,0,0,1,113.4,68.145Z" transform="translate(-78.262 -46.75)"/><path class="o" d="M178.4,82.207c.031-.4.062-.8.062-1.207.248.124.464.217.712.341C179.019,81.712,179.019,82.269,178.4,82.207Z" transform="translate(-123.139 -55.735)"/><path class="z" d="M149.879,10.9a2.36,2.36,0,0,1,.279.774c0,.124-.155.217-.248.341a2.459,2.459,0,0,1-.433-.557C149.414,11.4,149.631,11.21,149.879,10.9Z" transform="translate(-103.162 -7.337)"/><path class="o" d="M182.772,76.6c-.124.248-.248.526-.372.774C182.524,77.126,182.648,76.879,182.772,76.6Z" transform="translate(-125.9 -52.697)"/><path class="ac" d="M177.541,77.01c-.124-.062-.217-.124-.341-.186.062-.031.155-.093.217-.124A1.294,1.294,0,0,0,177.541,77.01Z" transform="translate(-122.31 -52.766)"/><path class="o" d="M167.51,30.633a2.2,2.2,0,0,0-.31-.433A3.758,3.758,0,0,1,167.51,30.633Z" transform="translate(-115.406 -20.662)"/><path class="o" d="M168.51,32.133a2.2,2.2,0,0,0-.31-.433A2.2,2.2,0,0,1,168.51,32.133Z" transform="translate(-116.097 -21.698)"/><path class="o" d="M169.579,33.464,169.3,33A1.429,1.429,0,0,0,169.579,33.464Z" transform="translate(-116.856 -22.595)"/><path class="ad" d="M175.193,34.931c0,.031,0,.031-.031.062H175.1c0-.031.031-.062.031-.093C175.193,34.9,175.193,34.9,175.193,34.931Z" transform="translate(-120.86 -23.907)"/><path class="ad" d="M115.2,66.3a1.765,1.765,0,0,0-.4.031A1.635,1.635,0,0,1,115.2,66.3Z" transform="translate(-79.229 -45.586)"/><path class="ad" d="M156.962,6.662c-.031-.031-.062-.031-.062-.062h.031a.1.1,0,0,1,.031.062Z" transform="translate(-108.295 -4.368)"/><path class="p" d="M119.131,73.7a1.342,1.342,0,0,1-.031.155A1.342,1.342,0,0,0,119.131,73.7Z" transform="translate(-82.197 -50.695)"/><path class="ad" d="M121.2,72.3c.031.031.093.031.124.062A.161.161,0,0,0,121.2,72.3Z" transform="translate(-83.647 -49.729)"/><path class="ad" d="M177.362,34.362c-.031,0-.031,0-.062-.031V34.3l.062.062Z" transform="translate(-122.379 -23.493)"/><path class="ad" d="M162.155,23.886c-.062-.062-.093-.124-.155-.186A.317.317,0,0,1,162.155,23.886Z" transform="translate(-111.816 -16.175)"/><path class="ad" d="M162.686,24.355c-.062-.062-.124-.093-.186-.155A.821.821,0,0,0,162.686,24.355Z" transform="translate(-112.161 -16.52)"/><path class="p" d="M151.163,60.041a4.842,4.842,0,0,1,.619,1.084c.217.9-.4,1.424-1.238,1.145a7.63,7.63,0,0,0-4.427-.155c.774.248,1.331.4,2.043.619-.248.124-.372.186-.65.31.5.186.9.372,1.3.526-.217.031-.464.124-.65.031a4.448,4.448,0,0,0-2.693.31c-.588.155-.588.5-.217.96.681.774.619-.371.836-.371.588.4,1.053.712,1.548,1.022a1.639,1.639,0,0,1-2.446-.155l-.217-.217c-1.022-1.022-1.022-1.022-.062-2.043a2.169,2.169,0,0,0,.248-.31,5.969,5.969,0,0,1-1.176-.279.634.634,0,0,1-.031-1.207,15.167,15.167,0,0,1,1.424-.65c.062.186.124.526.217.526.681.124,1.393.217,2.074.279.124,0,.372-.186.341-.248a1.042,1.042,0,0,0-.248-.526,2.053,2.053,0,0,0-.588-.279c.743-.155,1.517-.341,2.26-.5.248-.062.526-.155.774-.217A5.163,5.163,0,0,1,151.163,60.041Z" transform="translate(-99.06 -41.029)"/><path class="j" d="M150.548,97.8a11.177,11.177,0,0,1,1.641,1.8,9.061,9.061,0,0,1,1.424,4.8,14.7,14.7,0,0,1-.155,1.641.582.582,0,0,1-.248.341c-.124,0-.372-.093-.4-.217a2.149,2.149,0,0,1-.217-1.053,6.167,6.167,0,0,0-.8-3.994c-.372-.743-.8-1.424-1.176-2.167a4.361,4.361,0,0,1-.31-.96C150.393,97.924,150.455,97.862,150.548,97.8Z" transform="translate(-103.738 -67.334)"/><path class="ab" d="M151.677,89.127c.464-.31.8-.526,1.331-.867-.557-.155-.96-.248-1.362-.372-.9-.248-1.176-.65-1.084-1.517a1.632,1.632,0,0,1,.093-.372c.155.062.4.062.464.155.279.65.867.65,1.424.712.5.062.836.248.774.836,0,.248.217.464.341.712a2.824,2.824,0,0,1,.372,1.084c0,.526-.31.8-.836.5C152.729,89.777,152.3,89.467,151.677,89.127Z" transform="translate(-103.907 -59.187)"/><path class="d" d="M150.784,73.827c-.464-.31-.929-.619-1.548-1.022-.217,0-.155,1.145-.836.371-.4-.464-.372-.774.217-.96a4.229,4.229,0,0,1,2.693-.31,2.347,2.347,0,0,0,.65-.031.857.857,0,0,1,.279.031c.124.031.217.093.341.124.062,0,.155.031.217.031a2.275,2.275,0,0,1,.681.5,2.46,2.46,0,0,1,.186.681c-.991-.619-1.919-.96-2.539.464C151.155,73.765,150.908,73.8,150.784,73.827Z" transform="translate(-102.241 -49.367)"/><path class="h" d="M151.2,61.8a2.6,2.6,0,0,1,.588.279,1.042,1.042,0,0,1,.248.526c0,.062-.248.248-.341.248-.712-.062-1.393-.155-2.074-.279-.093-.031-.155-.341-.217-.526a.728.728,0,0,1,.248-.062c.341-.062.65-.093.991-.155A3.365,3.365,0,0,0,151.2,61.8Z" transform="translate(-103.117 -42.479)"/><path class="m" d="M149.162,54.4c.464.031.929.062,1.362.093-.093.31-.124.8-.341.929-.743.433-.743-.433-1.084-.743C149.131,54.586,149.131,54.493,149.162,54.4Z" transform="translate(-102.91 -37.37)"/><path class="p" d="M164.267,72.979a2.194,2.194,0,0,0-.186-.681,3.475,3.475,0,0,0-.681-.5c0-.124.031-.279.031-.4h0a17.365,17.365,0,0,1,1.7,1.269c.093.062-.155.5-.217.743-.093,0-.186-.031-.279-.031C164.484,73.227,164.391,73.1,164.267,72.979Z" transform="translate(-112.783 -49.107)"/><path class="p" d="M151.191,61.9c-.341.062-.65.093-.991.155C150.51,61.993,150.85,61.962,151.191,61.9Z" transform="translate(-103.669 -42.548)"/><path class="ae" d="M137.943,179.089a10.374,10.374,0,0,1,2.446,2.755c.062.155.155.341.217.5-.526-.093-1.084-.186-1.61-.279-.991-.217-1.95-.433-2.941-.619-1.238-.248-2.477-.433-3.715-.65-.743-.743-.743-.743-.062-1.269C134.1,178.067,135.993,178.284,137.943,179.089Z" transform="translate(-90.948 -123.02)"/><path class="y" d="M137.4,190.5a2.494,2.494,0,0,1,1.7,2.322C138.515,192.048,137.957,191.274,137.4,190.5Z" transform="translate(-94.832 -131.335)"/><path class="o" d="M122.043,70.264,121.3,69.8A3.726,3.726,0,0,0,122.043,70.264Z" transform="translate(-83.716 -48.003)"/><path class="af" d="M161.586,195.7c.062.155.093.279.155.433-.124-.062-.217-.124-.341-.186A1.718,1.718,0,0,0,161.586,195.7Z" transform="translate(-111.402 -134.926)"/><path class="m" d="M156.653,41.81c-.031.062-.031.155-.093.155-.4.124-.929.4-1.145.248a5.737,5.737,0,0,1-1.115-1.3c.341-.186.867-.588,1.022-.464A7.954,7.954,0,0,1,156.653,41.81Z" transform="translate(-106.5 -27.722)"/><path class="ac" d="M151.931,42.9l.031.031H151.9Z" transform="translate(-104.843 -29.43)"/><path class="p" d="M161.841,72.224c-.124-.031-.217-.093-.341-.124A1.509,1.509,0,0,0,161.841,72.224Z" transform="translate(-111.471 -49.591)"/><path class="p" d="M163.262,71.231c-.031,0-.031-.031-.062-.031.031.031.031.031.062.031Z" transform="translate(-112.645 -48.969)"/><g transform="translate(21.909 0)"><path class="ag" d="M74.859,28.279a6.63,6.63,0,0,1,.371-1.765,15.476,15.476,0,0,0,1.331-3.87c.062-.4.31-.712.836-.526.619.248,1.269.4,1.888.65.279.124.712.341.743.557.062.464.031.836.681.8.464,0,.96.279,1.362.155.31-.093,1.022-.186.743-.929,0-.031.464-.31.526-.248a1.527,1.527,0,0,0,2.074,0c-.093.681.31.836.929.836a11.732,11.732,0,0,1-1.641.433.878.878,0,0,0-.341.248c-.186.217-.279.526-.464.681-.4.279-.929.4-1.3.712-.526.464-1.486.681-1.393,1.579a13.08,13.08,0,0,0,.65,2.631c.279.8.619,1.548.96,2.322a3.684,3.684,0,0,0,.279.464l.186.093a6.406,6.406,0,0,1,.124-.681c.681.372.65.372,1.053-.279a7.509,7.509,0,0,1,.433-.619,17.727,17.727,0,0,0,3.034-7.461h0c.062-.155.093-.31.155-.464v-.31a2.2,2.2,0,0,0-.31-.433c-.124-.093-.217-.186-.341-.279-.186-.124-.4-.279-.588-.4l.186-.557c.341.062.712.093,1.053.155a.647.647,0,0,1,.124-.186,2.7,2.7,0,0,0-.712-.619c-.867-.341-1.734-.619-2.631-.929a1.617,1.617,0,0,1,.65-.124c.743.093,1.455.248,2.2.341.186.031.4-.155.526-.31a.7.7,0,0,0-.217-.433,3.883,3.883,0,0,0-1.238-.712,29.173,29.173,0,0,0-4.334-.588c-1.858-.062-2.631-1.207-2.446-2.6a19.632,19.632,0,0,1,.681-3.808A4.65,4.65,0,0,1,82.2,9.3a9.463,9.463,0,0,1,5.6-1.517c.8,0,1.641-.155,2.446-.217a19.758,19.758,0,0,1,3.56-.31,4.759,4.759,0,0,0,2.786-.433,3.446,3.446,0,0,1,1.393-.062v.31c-1.362.743-2.724,1.424-4.365.9a1.881,1.881,0,0,0-1.084-.124c-1.362.279-2.724.557-4.056.929-1.827.557-2.2,1.269-1.8,3.127,0,.031.031.031.031.062a9.822,9.822,0,0,1,.248,2.662,4.157,4.157,0,0,0,1.858,4.52,3.009,3.009,0,0,1,1.765,2.631c0,1.8.124,3.591.155,5.356,0,1.115-.774,2.322.5,3.282a5,5,0,0,0,1.176.867c.557.217,1.176.155,1.734.341.217.062.526.464.5.619-.093.4-.4.557-.867.341a1.772,1.772,0,0,0-2.26.588H91.2c-.65.062-1.579,1.981-1.238,2.508.031.031.062.093.093.093.557.186,1.207.588,1.672.464,1.827-.5,3.56.217,5.325.217.093,0,.186.155.279.217a1.454,1.454,0,0,1-.279.186c-.4.062-.8.093-1.176.155a17.126,17.126,0,0,0-3.963.9l6.037,3.436-1.331,3.963a3.873,3.873,0,0,0,1.331-.681,14.8,14.8,0,0,0,2.755-3.127c1.734-2.353,2.012-5.263,2.848-7.956.248-1.053.526-2.105.774-3.189a9.1,9.1,0,0,1,.991-1.888,5.22,5.22,0,0,0,1.207-4.21c-.093-.588-.186-1.207-.31-1.8-.124-.093-.248-.155-.372-.248a3.247,3.247,0,0,0,.8-2.817,3,3,0,0,1,.031-.526,12.255,12.255,0,0,0-.464-5.789c-.217-.557-.31-1.145-.526-1.7a7.248,7.248,0,0,0-.464-.836l-.279.093c.279,1.207.588,2.446.867,3.653-.681-.867-1.145-1.8-1.765-2.631-.4-.526-.8-.929-.4-1.579h0c.155-.062.371-.093.433-.186a2.727,2.727,0,0,0-.991-2.941,5.312,5.312,0,0,1-2.662-2.662,1.078,1.078,0,0,0-.743-.5c-1.145-.31-2.291-.526-3.436-.8-.186-.031-.464-.217-.464-.279a2.388,2.388,0,0,1,.31-.9.716.716,0,0,1,.588.093c.743.743.619.031.681-.372h0l.557-.279a4.761,4.761,0,0,0-.371-.4,3.913,3.913,0,0,0-.8-.4A22.06,22.06,0,0,0,89.254-.606,13.283,13.283,0,0,0,83.62.695C82.01,1.469,80.245,1.9,78.6,2.583A6.24,6.24,0,0,0,76.5,3.914a36.384,36.384,0,0,0-2.693,3.1A9.43,9.43,0,0,0,71.979,9.7a22.717,22.717,0,0,0-.991,5.2c-.217,3.344-.279,6.718-.31,10.093a3.654,3.654,0,0,0,.774,2.879.432.432,0,0,1,.093.279,8.135,8.135,0,0,0,2.693,5.015c.093.093.279.093.433.155l.093-.372-2.012-6.037Z" transform="translate(-70.67 0.608)"/><path class="ah" d="M126.413,80.457c.526.248.774,0,1.022-.526-1.115-.4-2.043-1.393-3.374-.712-.093.062-.433-.031-.433-.124a.614.614,0,0,1,.093-.557.877.877,0,0,1,.557-.279c.124-.031.279.124.4.186.5.341.681.124.712-.4.093-2.415.186-4.83.31-7.275a1.927,1.927,0,0,0-1.3-2.167,7.788,7.788,0,0,0,.5,5.294.967.967,0,0,1-.217,1.3c-1.053,1.176-2.136,2.291-2.291,4.056-.062.836.464,1.084.867,1.486a.943.943,0,0,0,1.269.186C125.051,80.612,125.64,80.086,126.413,80.457Z" transform="translate(-106.374 -47.174)"/><path class="ah" d="M177.5,34.5Z" transform="translate(-144.427 -23.631)"/><path class="ah" d="M118.014,53.6a1.454,1.454,0,0,0,.279-.186c-.093-.093-.186-.217-.279-.217-1.765-.031-3.5-.712-5.325-.217-.5.124-1.115-.31-1.672-.464a.14.14,0,0,1-.093-.093c-.341-.526.619-2.446,1.238-2.508h.31a1.739,1.739,0,0,1,2.26-.588c.464.217.774.062.867-.341.031-.186-.279-.557-.5-.619-.557-.186-1.207-.124-1.734-.341a6.048,6.048,0,0,1-1.176-.867c-1.238-.929-.464-2.136-.5-3.282-.031-1.8-.155-3.591-.155-5.356a3.009,3.009,0,0,0-1.765-2.631,4.157,4.157,0,0,1-1.858-4.52,11.38,11.38,0,0,0-.248-2.662c0-.031-.031-.031-.031-.062-.4-1.827-.031-2.57,1.8-3.127a36.6,36.6,0,0,1,4.056-.929,2.606,2.606,0,0,1,1.084.124c1.641.526,3-.155,4.365-.9v-.31a3.446,3.446,0,0,0-1.393.062,4.8,4.8,0,0,1-2.786.433,20,20,0,0,0-3.56.31,16.314,16.314,0,0,1-2.446.217,9.247,9.247,0,0,0-5.6,1.517,4.373,4.373,0,0,0-1.517,2.508,19.22,19.22,0,0,0-.681,3.808c-.155,1.393.588,2.539,2.446,2.6a29.173,29.173,0,0,1,4.334.588,3.579,3.579,0,0,1,1.238.712c.124.093.279.4.217.433a.948.948,0,0,1-.526.31c-.743-.093-1.455-.248-2.2-.341a2.412,2.412,0,0,0-.65.124c.867.31,1.765.588,2.631.929a3.3,3.3,0,0,1,.712.619.648.648,0,0,1-.124.186c-.341-.062-.712-.093-1.053-.155l-.186.557c.186.124.4.279.588.4.124.093.217.186.341.279a2.2,2.2,0,0,0,.31.433v.31c-.062.155-.093.31-.155.464h0a18.137,18.137,0,0,1-3.034,7.461,4.423,4.423,0,0,0-.433.619c-.372.65-.372.65-1.053.279a4.441,4.441,0,0,1-.124.681l2.043,1.176c.031-.062.031-.124.062-.186.155-.464.4-.4.681-.093.186.217.464.4.5.619.031.155.062.279.093.4l2.043,1.176c.093,0,.217.031.31.031a8.336,8.336,0,0,1,1.888.588c.124.031.186.248.279.4a1.894,1.894,0,0,1-.372.155l1.115.619a15.671,15.671,0,0,1,3.963-.9A5.711,5.711,0,0,1,118.014,53.6Zm-8.359-3.808a.948.948,0,0,1-1.269-.186c-.4-.4-.96-.619-.867-1.486.155-1.734,1.238-2.879,2.291-4.056a1.036,1.036,0,0,0,.217-1.3,7.806,7.806,0,0,1-.5-5.294,1.946,1.946,0,0,1,1.3,2.167c-.093,2.415-.186,4.83-.31,7.275-.031.5-.217.712-.712.4-.124-.093-.279-.217-.4-.186a.96.96,0,0,0-.557.279.827.827,0,0,0-.093.557.439.439,0,0,0,.433.124c1.3-.681,2.26.31,3.374.712-.217.526-.464.774-1.022.526C110.831,48.927,110.243,49.453,109.655,49.794Z" transform="translate(-91.566 -16.015)"/><path class="ah" d="M95.7,131.5c.124-.186.186-.341.279-.464L95.2,130.6C95.355,130.879,95.51,131.188,95.7,131.5Z" transform="translate(-87.606 -89.98)"/><path class="ah" d="M102.972,135.677c.371.248.96.155,1.424.279a2.081,2.081,0,0,1,1.022.464,5.038,5.038,0,0,0,3.405,1.919,1.326,1.326,0,0,1,.5.155,1.8,1.8,0,0,1,.31.371,1.092,1.092,0,0,1-.4.248,6.683,6.683,0,0,1-3.405.031,1.064,1.064,0,0,0-1.424.8c1.238.681,2.508,1.362,3.746,2.074a3.648,3.648,0,0,1,.681.526c.743.371,1.455.743,2.2,1.084l2.229-1.95c.31-.279.588-.526.9-.8L100,133.2A11.421,11.421,0,0,0,102.972,135.677Z" transform="translate(-90.92 -91.775)"/><path class="ah" d="M91.4,80.661a11.284,11.284,0,0,1-.65-2.632c-.093-.9.867-1.115,1.393-1.579.372-.31.9-.433,1.3-.712.217-.155.31-.464.464-.681a.649.649,0,0,1,.341-.248,11.731,11.731,0,0,0,1.641-.433c-.619,0-.991-.155-.929-.836a1.56,1.56,0,0,1-2.074,0c-.062-.062-.526.217-.526.248.279.743-.433.836-.743.929-.4.124-.929-.155-1.362-.155-.65.031-.619-.341-.681-.8-.031-.217-.464-.433-.743-.557-.619-.248-1.269-.433-1.888-.65a.56.56,0,0,0-.836.526,15.476,15.476,0,0,1-1.331,3.87A6.9,6.9,0,0,0,84.4,78.71l8.235,4.768a3.686,3.686,0,0,1-.279-.464A22.052,22.052,0,0,1,91.4,80.661Z" transform="translate(-80.149 -49.854)"/><path class="ah" d="M157.1,6.848Z" transform="translate(-130.342 -4.524)"/><path class="ah" d="M145.7,153.1l1.486.8.991-3a1.482,1.482,0,0,0-.464.341C147.062,151.86,146.381,152.479,145.7,153.1Z" transform="translate(-122.472 -103.995)"/><path class="ah" d="M111.155,108.217c.031.093.062.186.093.31a1.346,1.346,0,0,1,.217-.186.927.927,0,0,0-.31-.124c0-.031.031-.093.031-.124L111,108A.941.941,0,0,1,111.155,108.217Z" transform="translate(-98.514 -74.376)"/><path class="ah" d="M104.274,110.223a17.592,17.592,0,0,1-3.374-.124,1.606,1.606,0,0,1-.96-.5c-.65-.743-1.486-1.331-1.641-2.477a1.782,1.782,0,0,1,1.734-2.26,1.221,1.221,0,0,0,.743-.372.614.614,0,0,0,.031-.65c-.093-.155-.4-.155-.65-.186a7.918,7.918,0,0,1-.836-.155c-.124-.031-.155-.248-.248-.372a2.724,2.724,0,0,1,.464-.155c.279-.031.65.062.836-.062a7.409,7.409,0,0,1,.65-.4l-1.115-.619c-.031,0-.062,0-.062.031-1.238.155-2.508.31-3.777.433a.682.682,0,0,1-.557-.093c-.588-.5-1.486-.774-1.548-1.919.124-.433.279-.991.464-1.579l-2.043-1.176a.186.186,0,0,1-.031.124c.093.031.186.062.31.093a1.347,1.347,0,0,1-.217.186c-.031-.093-.062-.186-.093-.31-.062-.062-.093-.155-.155-.217L83.934,92.7c-.031.372-.062.774-.093,1.145-.062,1.207,0,2.384.031,3.591v.093l.96,2.91v-.371c.836,1.455,1.641,2.879,2.477,4.365l.774.433c.093-.155.155-.248.217-.372a6.8,6.8,0,0,0,.526.774l14.148,7.678,2.043-1.858a1.483,1.483,0,0,1,.464-.341l.279-.836A9.088,9.088,0,0,1,104.274,110.223Zm-10.928-5.17a16.083,16.083,0,0,1-1.641-1.61.614.614,0,0,1-.186-.4,6.947,6.947,0,0,1,1.238-4.148c-.31,1.176.217,2.167.588,3.22.372,1.022.65,2.074,1.022,3.251A2.069,2.069,0,0,1,93.345,105.053Z" transform="translate(-79.745 -63.813)"/><path class="ah" d="M124.643,115.676,122.6,114.5C122.91,115.46,123.745,115.584,124.643,115.676Z" transform="translate(-106.523 -78.864)"/></g></g></g></g><g transform="translate(143 3368)"><g transform="translate(34.854 71.069)"><path class="ai" d="M109.429,205.106a8.417,8.417,0,0,1,2.689,4.47,8.749,8.749,0,0,1-5.029-1.606,8.417,8.417,0,0,1-2.689-4.47A8.749,8.749,0,0,1,109.429,205.106Z" transform="translate(-102.794 -203.499)"/><path class="ai" d="M103.851,219.9a8.615,8.615,0,0,1,5.273.1,7.563,7.563,0,0,1-9.325,3.248A8.442,8.442,0,0,1,103.851,219.9Z" transform="translate(-99.8 -213.923)"/></g><g transform="translate(5.658 51.896)"><path class="ai" d="M86.15,197.37a8.407,8.407,0,0,1,2.06,4.785,8.665,8.665,0,0,1-4.75-2.27A8.407,8.407,0,0,1,81.4,195.1,8.665,8.665,0,0,1,86.15,197.37Z" transform="translate(-58.63 -178.861)"/><path class="ai" d="M77.57,212.772a8.843,8.843,0,0,1,5.2.8,8.477,8.477,0,0,1-4.47,2.759,8.843,8.843,0,0,1-5.2-.8A8.478,8.478,0,0,1,77.57,212.772Z" transform="translate(-53.228 -190.281)"/><path class="ai" d="M68.093,186.769a8.487,8.487,0,0,1,1.257,5.064,8.692,8.692,0,0,1-4.331-2.969,8.487,8.487,0,0,1-1.257-5.064A8.692,8.692,0,0,1,68.093,186.769Z" transform="translate(-47.139 -171.507)"/><path class="ai" d="M56.354,202.091a8.9,8.9,0,0,1,5.029,1.606,8.632,8.632,0,0,1-4.854,2.026,8.9,8.9,0,0,1-5.029-1.606A8.9,8.9,0,0,1,56.354,202.091Z" transform="translate(-39.172 -183.407)"/><path class="ai" d="M51.428,170.911a8.408,8.408,0,0,1-.035,5.2A7.3,7.3,0,0,1,47.971,167,8.476,8.476,0,0,1,51.428,170.911Z" transform="translate(-36.585 -160.574)"/><path class="ai" d="M36.1,184.872a8.714,8.714,0,0,1,4.47,2.759,8.625,8.625,0,0,1-5.2.8,8.714,8.714,0,0,1-4.47-2.759A8.925,8.925,0,0,1,36.1,184.872Z" transform="translate(-25.766 -172.125)"/><path class="ai" d="M38.49,153.21a8.438,8.438,0,0,1-1.257,5.029A7.306,7.306,0,0,1,36.08,148.6,8.484,8.484,0,0,1,38.49,153.21Z" transform="translate(-28.292 -148.6)"/><path class="ai" d="M21.473,164.391a8.451,8.451,0,0,1,3.667,3.737,8.733,8.733,0,0,1-5.273-.419,8.451,8.451,0,0,1-3.667-3.737A8.733,8.733,0,0,1,21.473,164.391Z" transform="translate(-16.2 -158.454)"/></g><g transform="translate(0 20.221)"><path class="ai" d="M27.157,131.894a8.433,8.433,0,0,1-2.27,4.68,8.345,8.345,0,0,1-1.432-4.994,8.433,8.433,0,0,1,2.27-4.68A8.237,8.237,0,0,1,27.157,131.894Z" transform="translate(-15.248 -102.803)"/><path class="ai" d="M10.064,139.421a8.441,8.441,0,0,1,2.864,4.365,8.635,8.635,0,0,1-5.064-1.432A8.441,8.441,0,0,1,5,137.99,8.685,8.685,0,0,1,10.064,139.421Z" transform="translate(-3.254 -110.016)"/><path class="ai" d="M21.2,111.969a8.55,8.55,0,0,1-3,4.3,7.306,7.306,0,0,1,2.375-9.464A8.285,8.285,0,0,1,21.2,111.969Z" transform="translate(-11.321 -89.722)"/><path class="ai" d="M4.785,116.1a8.331,8.331,0,0,1,2.13,4.75,8.745,8.745,0,0,1-4.785-2.2A8.331,8.331,0,0,1,0,113.9,8.745,8.745,0,0,1,4.785,116.1Z" transform="translate(0 -94.343)"/><path class="ai" d="M20.085,90.069a8.753,8.753,0,0,1-3.946,3.457,8.556,8.556,0,0,1,.664-5.169A8.753,8.753,0,0,1,20.749,84.9,8.556,8.556,0,0,1,20.085,90.069Z" transform="translate(-10.412 -75.471)"/><path class="ai" d="M6.027,88.683A8.475,8.475,0,0,1,6.9,93.817a8.684,8.684,0,0,1-4.086-3.283A8.475,8.475,0,0,1,1.941,85.4,8.684,8.684,0,0,1,6.027,88.683Z" transform="translate(-1.207 -75.796)"/><path class="ai" d="M22.88,68.554A8.692,8.692,0,0,1,18.2,71a8.392,8.392,0,0,1,1.886-4.854,8.692,8.692,0,0,1,4.68-2.445A8.683,8.683,0,0,1,22.88,68.554Z" transform="translate(-11.844 -61.674)"/><path class="ai" d="M12.17,62.021a8.339,8.339,0,0,1-.384,5.169,8.523,8.523,0,0,1-3.178-4.121A8.339,8.339,0,0,1,8.992,57.9,8.531,8.531,0,0,1,12.17,62.021Z" transform="translate(-5.43 -57.9)"/></g><path class="ai" d="M30.1,51.378A8.918,8.918,0,0,1,25,52.7a8.4,8.4,0,0,1,2.969-4.3,8.918,8.918,0,0,1,5.1-1.327A8.815,8.815,0,0,1,30.1,51.378Z" transform="translate(-16.269 -30.633)"/><path class="ai" d="M22.479,40.05a8.246,8.246,0,0,1-1.572,4.959,8.3,8.3,0,0,1-2.13-4.75A8.246,8.246,0,0,1,20.349,35.3,8.45,8.45,0,0,1,22.479,40.05Z" transform="translate(-12.211 -22.972)"/><path class="ai" d="M39.839,35.527a8.775,8.775,0,0,1-5.239.524,8.44,8.44,0,0,1,3.632-3.772,8.775,8.775,0,0,1,5.239-.524A8.677,8.677,0,0,1,39.839,35.527Z" transform="translate(-22.516 -20.545)"/><path class="ai" d="M34.242,21.729a8.376,8.376,0,0,1-2.34,4.645,8.313,8.313,0,0,1-1.362-5.029A8.376,8.376,0,0,1,32.88,16.7,8.313,8.313,0,0,1,34.242,21.729Z" transform="translate(-19.854 -10.868)"/><g transform="translate(53.608 70.685)"><path class="ai" d="M156.189,204.006a8.417,8.417,0,0,0-2.689,4.47,8.749,8.749,0,0,0,5.029-1.606,8.417,8.417,0,0,0,2.689-4.47A8.749,8.749,0,0,0,156.189,204.006Z" transform="translate(-153.5 -202.399)"/><path class="ai" d="M158.773,218.8a8.615,8.615,0,0,0-5.273.1,7.564,7.564,0,0,0,9.325,3.248A8.647,8.647,0,0,0,158.773,218.8Z" transform="translate(-153.5 -212.823)"/></g><g transform="translate(61.5 51.373)"><path class="ai" d="M178.16,197.37a8.407,8.407,0,0,0-2.06,4.785,8.665,8.665,0,0,0,4.75-2.27,8.407,8.407,0,0,0,2.061-4.785A8.665,8.665,0,0,0,178.16,197.37Z" transform="translate(-176.1 -178.337)"/><path class="ai" d="M181.4,212.772a8.843,8.843,0,0,0-5.2.8,8.477,8.477,0,0,0,4.47,2.759,8.843,8.843,0,0,0,5.2-.8A8.661,8.661,0,0,0,181.4,212.772Z" transform="translate(-176.165 -189.757)"/><path class="ai" d="M198.32,186.069a8.487,8.487,0,0,0-1.257,5.064,8.692,8.692,0,0,0,4.331-2.969,8.487,8.487,0,0,0,1.257-5.064A8.568,8.568,0,0,0,198.32,186.069Z" transform="translate(-189.729 -170.528)"/><path class="ai" d="M202.129,201.391A8.9,8.9,0,0,0,197.1,203a8.632,8.632,0,0,0,4.854,2.026,8.9,8.9,0,0,0,5.029-1.606A8.632,8.632,0,0,0,202.129,201.391Z" transform="translate(-189.766 -182.428)"/><path class="ai" d="M216.936,170.511a8.408,8.408,0,0,0,.035,5.2,7.3,7.3,0,0,0,3.423-9.115A8.476,8.476,0,0,0,216.936,170.511Z" transform="translate(-202.407 -159.79)"/><path class="ai" d="M222.17,184.472a8.714,8.714,0,0,0-4.47,2.759,8.625,8.625,0,0,0,5.2.8,8.909,8.909,0,0,0,4.47-2.759A8.843,8.843,0,0,0,222.17,184.472Z" transform="translate(-203.172 -171.341)"/><path class="ai" d="M231.523,151.71a8.438,8.438,0,0,0,1.257,5.029,7.306,7.306,0,0,0,1.152-9.639A8.738,8.738,0,0,0,231.523,151.71Z" transform="translate(-212.14 -147.1)"/><path class="ai" d="M238.967,162.891a8.451,8.451,0,0,0-3.667,3.737,8.733,8.733,0,0,0,5.273-.419,8.451,8.451,0,0,0,3.667-3.737A8.733,8.733,0,0,0,238.967,162.891Z" transform="translate(-214.625 -156.954)"/></g><g transform="translate(83.293 20.291)"><path class="ai" d="M241.655,131.494a8.433,8.433,0,0,0,2.27,4.68,8.345,8.345,0,0,0,1.432-4.994,8.433,8.433,0,0,0-2.27-4.68A8.345,8.345,0,0,0,241.655,131.494Z" transform="translate(-240.537 -102.612)"/><path class="ai" d="M250.964,139.121a8.441,8.441,0,0,0-2.864,4.365,8.635,8.635,0,0,0,5.064-1.432,8.442,8.442,0,0,0,2.864-4.365A8.685,8.685,0,0,0,250.964,139.121Z" transform="translate(-244.747 -109.89)"/><path class="ai" d="M247.147,111.469a8.55,8.55,0,0,0,3,4.3,7.306,7.306,0,0,0-2.375-9.464A8.351,8.351,0,0,0,247.147,111.469Z" transform="translate(-244.004 -89.467)"/><path class="ai" d="M258.13,115.7a8.613,8.613,0,0,0-2.13,4.75,8.745,8.745,0,0,0,4.785-2.2,8.331,8.331,0,0,0,2.13-4.75A8.745,8.745,0,0,0,258.13,115.7Z" transform="translate(-249.888 -94.152)"/><path class="ai" d="M246.5,90.369a8.753,8.753,0,0,0,3.946,3.457,8.556,8.556,0,0,0-.664-5.169,8.753,8.753,0,0,0-3.946-3.457A8.556,8.556,0,0,0,246.5,90.369Z" transform="translate(-243.185 -75.736)"/><path class="ai" d="M260.114,89.083a8.475,8.475,0,0,0-.873,5.134,8.684,8.684,0,0,0,4.086-3.283A8.474,8.474,0,0,0,264.2,85.8,8.433,8.433,0,0,0,260.114,89.083Z" transform="translate(-251.942 -76.126)"/><path class="ai" d="M240.386,68.854a8.692,8.692,0,0,0,4.68,2.445,8.392,8.392,0,0,0-1.886-4.854A8.692,8.692,0,0,0,238.5,64,8.683,8.683,0,0,0,240.386,68.854Z" transform="translate(-238.5 -61.94)"/><path class="ai" d="M255.708,62.256a8.339,8.339,0,0,0,.384,5.169,8.5,8.5,0,0,0,3.178-4.156,8.339,8.339,0,0,0-.384-5.169A8.719,8.719,0,0,0,255.708,62.256Z" transform="translate(-249.526 -58.1)"/></g><path class="ai" d="M230.668,51.978a8.918,8.918,0,0,0,5.1,1.327,8.4,8.4,0,0,0-2.969-4.3,8.918,8.918,0,0,0-5.1-1.327A8.542,8.542,0,0,0,230.668,51.978Z" transform="translate(-148.179 -31.024)"/><path class="ai" d="M246.277,40.75a8.246,8.246,0,0,0,1.572,4.959,8.3,8.3,0,0,0,2.13-4.75A8.246,8.246,0,0,0,248.407,36,8.556,8.556,0,0,0,246.277,40.75Z" transform="translate(-160.26 -23.428)"/><path class="ai" d="M218.832,36.327a8.775,8.775,0,0,0,5.239.524,8.44,8.44,0,0,0-3.632-3.772,8.775,8.775,0,0,0-5.239-.524A8.678,8.678,0,0,0,218.832,36.327Z" transform="translate(-140.044 -21.066)"/><path class="ai" d="M233.84,22.429a8.376,8.376,0,0,0,2.34,4.645,8.313,8.313,0,0,0,1.362-5.029A8.376,8.376,0,0,0,235.2,17.4,8.313,8.313,0,0,0,233.84,22.429Z" transform="translate(-152.154 -11.323)"/><path class="aj" d="M86.689,20.2a3.825,3.825,0,0,1-.384.349.181.181,0,0,1-.14.07,38.825,38.825,0,0,1,13.969,29.545c0,21.932-18.894,39.813-42.153,39.813-23.224,0-42.153-17.846-42.153-39.813A38.935,38.935,0,0,1,28.681,21.6a2.694,2.694,0,0,1-.664-.279A39.2,39.2,0,0,0,15.2,50.164c0,22.281,19.208,40.442,42.816,40.442s42.816-18.125,42.816-40.442A39.4,39.4,0,0,0,86.689,20.2Z" transform="translate(-9.892 -13.145)"/><path class="ai" d="M56.039,21.506a8.894,8.894,0,0,1-5.239-.768,8.666,8.666,0,0,1,4.435-2.794,8.894,8.894,0,0,1,5.239.768A8.479,8.479,0,0,1,56.039,21.506Z" transform="translate(-33.059 -11.588)"/><path class="ai" d="M53.444,5.2A8.479,8.479,0,0,1,50.021,9.15a8.243,8.243,0,0,1-.07-5.2A8.5,8.5,0,0,1,53.339,0,8.4,8.4,0,0,1,53.444,5.2Z" transform="translate(-32.245)"/><path class="ai" d="M201.935,21.506a8.894,8.894,0,0,0,5.239-.768,8.666,8.666,0,0,0-4.435-2.794,8.894,8.894,0,0,0-5.239.768A8.479,8.479,0,0,0,201.935,21.506Z" transform="translate(-128.526 -11.588)"/><path class="ai" d="M214.6,5.2a8.479,8.479,0,0,0,3.423,3.946,8.243,8.243,0,0,0,.07-5.2A8.5,8.5,0,0,0,214.7,0,8.4,8.4,0,0,0,214.6,5.2Z" transform="translate(-139.405)"/></g><g transform="translate(175 3344.091)"><path class="ak" d="M90.331,41.3s1.3,5.689,0,9.415a22.922,22.922,0,0,1-4.387,6.991H82.038S79.234,45.867,90.331,41.3Z" transform="translate(-65.352 -33.1)"/><path class="al" d="M82.026,57.012h3.751C83.68,50.949,89.99,41.3,89.99,41.3,79.332,45.674,82.026,57.012,82.026,57.012Z" transform="translate(-65.352 -32.406)"/><path class="ak" d="M31.19,41.3s-1.3,5.689,0,9.415a22.922,22.922,0,0,0,4.387,6.991h3.906S42.287,45.867,31.19,41.3Z" transform="translate(-24.479 -33.1)"/><path class="al" d="M33.859,41.988s7.233,9.388,4.028,15.718h3.906S44.956,46.555,33.859,41.988Z" transform="translate(-26.79 -33.1)"/><path class="am" d="M20.772,33.323S19.65,23.267,15.824,18.5C12,23.247,10.877,33.323,10.877,33.323,8.673,28.556,0,26.132,0,26.132c2.324,3.345,5.188,13.421,5.188,13.421H26.481S29.345,29.5,31.669,26.132C31.689,26.132,23.016,28.556,20.772,33.323Z" transform="translate(0 -14.867)"/><g transform="translate(2.575 13.53)"><path class="an" d="M21.578,78.182l-8.553-9.254a.6.6,0,0,1,.881-.821C13.926,68.127,13.625,67.726,21.578,78.182Z" transform="translate(-12.855 -67.908)"/></g><g transform="translate(21.293 13.523)"><path class="an" d="M106.3,78.153l7.011-10.015a.6.6,0,1,1,.982.681C114.272,68.858,114.693,68.358,106.3,78.153Z" transform="translate(-106.3 -67.871)"/></g><g transform="translate(15.243 6.379)"><path class="an" d="M76.7,49.374l-.6-16.566a.6.6,0,0,1,1.2-.04C77.3,32.809,77.321,32.107,76.7,49.374Z" transform="translate(-76.099 -32.209)"/></g><path class="ak" d="M38.076,123.6H16.784c-.861.861-1.422,1.362-2.284,2.223H40.36C39.519,124.982,38.938,124.461,38.076,123.6Z" transform="translate(-11.596 -98.914)"/><g transform="translate(13.983 -0.091)"><path class="an" d="M73.012,3.052A1.856,1.856,0,0,1,70.328.488a1.856,1.856,0,0,1,2.684,2.564Z" transform="translate(-69.809 0.091)"/><path class="ao" d="M73.5,6a1.848,1.848,0,0,1-3.525.2,1.819,1.819,0,0,0,.521,1.783,1.862,1.862,0,0,0,2.624-.06A1.89,1.89,0,0,0,73.5,6Z" transform="translate(-69.895 -4.78)"/><path class="ap" d="M74.8,2.552a1.816,1.816,0,0,0-2.4.4A1.438,1.438,0,0,1,74.8,2.552Z" transform="translate(-71.881 -1.632)"/></g></g><g transform="translate(2413 -139)"><g transform="translate(-2413 136)"><g class="aq" transform="translate(176 3431)"><circle class="aw" cx="15.5" cy="15.5" r="15.5"/><circle class="ag" cx="15.5" cy="15.5" r="14.5"/></g></g><path class="ar" d="M22.6,0a15.743,15.743,0,0,1,5.7,12.218A15.73,15.73,0,0,1,12.524,28c-5.091,0-4.068.153-6.919-3.614" transform="translate(-2234.253 3570)"/><g transform="translate(-2237 3567)"><circle class="as" cx="15.5" cy="15.5" r="15.5"/><path class="at" d="M15.5,31A15.578,15.578,0,0,1,0,15.5,15.578,15.578,0,0,1,15.5,0,15.578,15.578,0,0,1,31,15.5,15.578,15.578,0,0,1,15.5,31Zm0-29A13.5,13.5,0,1,0,29,15.5,13.572,13.572,0,0,0,15.5,2Z"/></g></g><text class="au" transform="translate(183.956 3451.587)"><tspan x="0" y="0">1</tspan></text><text class="av" transform="translate(184.956 3450.587)"><tspan x="0" y="0">1</tspan></text></g></svg>