<svg xmlns="http://www.w3.org/2000/svg" width="37.124" height="25.466" viewBox="0 0 37.124 25.466">
  <g id="ic_coins" transform="translate(-433.661 -1960.625)">
    <g id="Group_6085" data-name="Group 6085" transform="translate(447.387 1961.966)">
      <circle id="Ellipse_183" data-name="Ellipse 183" cx="11.395" cy="11.395" r="11.395" transform="translate(0 0.107)" fill="#f39404"/>
      <circle id="Ellipse_184" data-name="Ellipse 184" cx="8.13" cy="8.13" r="8.13" transform="translate(0.903 7.03) rotate(-22.087)" fill="#ffba2e"/>
      <path id="Path_948" data-name="Path 948" d="M7.478,16.338a8.07,8.07,0,0,1,14.542-5.012A8.109,8.109,0,0,0,14.879,6.9,8.147,8.147,0,0,0,6.8,15.165a8.366,8.366,0,0,0,1.668,5.012A7.519,7.519,0,0,1,7.478,16.338Z" transform="translate(-3.334 -3.488)" fill="#ae5406"/>
      <g id="Group_6059" data-name="Group 6059" transform="translate(4.396 0.865)" opacity="0.74">
        <g id="Group_6058" data-name="Group 6058">
          <path id="Path_949" data-name="Path 949" d="M10.46,5.15a2.67,2.67,0,0,1,.427-.373c-.053.053-.16.107-.213.16a6,6,0,0,1,1.12-.64c-.107.053-.16.053-.267.107a6.467,6.467,0,0,1,.746-.267,1.354,1.354,0,0,0,.693-.48,1.34,1.34,0,0,0,.107-.8,1.021,1.021,0,0,0-1.28-.693A5.95,5.95,0,0,0,9.02,3.71.86.86,0,0,0,8.7,4.4a1.053,1.053,0,0,0,.32.746,1.065,1.065,0,0,0,1.44,0Z" transform="translate(-8.7 -2.123)" fill="#fff"/>
        </g>
      </g>
      <g id="Group_6061" data-name="Group 6061" transform="translate(17.885 15.041)" opacity="0.74">
        <g id="Group_6060" data-name="Group 6060">
          <path id="Path_950" data-name="Path 950" d="M36.046,29.965c-.053.107-.053.213-.107.32.053-.107.053-.16.107-.267a6,6,0,0,1-.64,1.12c.053-.053.107-.16.16-.213a10.236,10.236,0,0,1-.746.8.968.968,0,0,0-.32.746,1.053,1.053,0,0,0,.32.746,1.2,1.2,0,0,0,.746.32.481.481,0,0,0,.267-.053,1.161,1.161,0,0,0,.427-.267,5.591,5.591,0,0,0,1.76-2.666,1.065,1.065,0,0,0-.693-1.28,1.066,1.066,0,0,0-.8.107,1.036,1.036,0,0,0-.48.587Z" transform="translate(-34.5 -29.24)" fill="#fff"/>
        </g>
      </g>
      <g id="Group_6063" data-name="Group 6063" transform="translate(8.875 5.933)">
        <g id="Group_6062" data-name="Group 6062">
          <path id="Path_951" data-name="Path 951" d="M19.859,22.877a4.587,4.587,0,0,1-2.559-1.12L18.366,20.1a3.28,3.28,0,0,0,1.973.8c.746,0,1.013-.267,1.013-.8,0-1.173-3.732-1.333-3.732-3.839a2.664,2.664,0,0,1,2.239-2.773V12h1.6v1.493a3.749,3.749,0,0,1,2.186,1.226l-1.226,1.44a2.14,2.14,0,0,0-1.493-.693c-.64,0-.906.16-.906.746,0,1.12,3.732,1.173,3.732,3.786a2.8,2.8,0,0,1-2.239,2.879v1.546h-1.6V22.877Z" transform="translate(-17.3 -12)" fill="#ae5406"/>
        </g>
      </g>
      <g id="Group_6064" data-name="Group 6064" transform="translate(8.092 5.626)">
        <path id="Path_952" data-name="Path 952" d="M18.359,22.277a4.587,4.587,0,0,1-2.559-1.12L16.866,19.5a3.28,3.28,0,0,0,1.973.8c.746,0,1.013-.267,1.013-.8,0-1.173-3.732-1.333-3.732-3.839a2.664,2.664,0,0,1,2.239-2.773V11.4h1.6v1.493a3.749,3.749,0,0,1,2.186,1.226l-1.226,1.333a2.14,2.14,0,0,0-1.493-.693c-.64,0-.906.16-.906.746,0,1.12,3.732,1.173,3.732,3.786a2.8,2.8,0,0,1-2.239,2.879v1.546h-1.6v-1.44Z" transform="translate(-15.8 -11.4)" fill="#27173a"/>
      </g>
      <circle id="Ellipse_185" data-name="Ellipse 185" cx="11.395" cy="11.395" r="11.395" transform="translate(0.107 0)" fill="none" stroke="#27173a" stroke-miterlimit="10" stroke-width="1"/>
      <circle id="Ellipse_186" data-name="Ellipse 186" cx="8.249" cy="8.249" r="8.249" transform="translate(3.253 3.199)" fill="none" stroke="#27173a" stroke-miterlimit="10" stroke-width="1.456"/>
    </g>
    <g id="Group_6065" data-name="Group 6065" transform="matrix(0.951, -0.309, 0.309, 0.951, 434.206, 1967.219)">
      <circle id="Ellipse_183-2" data-name="Ellipse 183" cx="9.605" cy="9.605" r="9.605" transform="translate(0 0.09)" fill="#f39404"/>
      <circle id="Ellipse_184-2" data-name="Ellipse 184" cx="6.853" cy="6.853" r="6.853" transform="translate(0.761 5.926) rotate(-22.087)" fill="#ffba2e"/>
      <path id="Path_948-2" data-name="Path 948" d="M.571,7.955A6.867,6.867,0,0,1,7.381.989,6.88,6.88,0,0,1,12.828,3.73,6.835,6.835,0,0,0,6.81,0,6.867,6.867,0,0,0,0,6.966a7.052,7.052,0,0,0,1.406,4.225A6.338,6.338,0,0,1,.571,7.955Z" transform="translate(2.921 2.876)" fill="#ae5406"/>
      <g id="Group_6059-2" data-name="Group 6059" transform="translate(3.705 0.729)" opacity="0.74">
        <g id="Group_6058-2" data-name="Group 6058" transform="translate(0 0)">
          <path id="Path_949-2" data-name="Path 949" d="M1.483,2.552a2.251,2.251,0,0,1,.36-.315c-.045.045-.135.09-.18.135a5.057,5.057,0,0,1,.944-.539c-.09.045-.135.045-.225.09A5.451,5.451,0,0,1,3.011,1.7a1.141,1.141,0,0,0,.584-.4,1.13,1.13,0,0,0,.09-.674A.86.86,0,0,0,2.607.035,5.016,5.016,0,0,0,.27,1.338.725.725,0,0,0,0,1.922a.887.887,0,0,0,.27.629.9.9,0,0,0,1.213,0Z" fill="#fff"/>
        </g>
      </g>
      <g id="Group_6061-2" data-name="Group 6061" transform="translate(15.075 12.678)" opacity="0.74">
        <g id="Group_6060-2" data-name="Group 6060" transform="translate(0 0)">
          <path id="Path_950-2" data-name="Path 950" d="M1.3.611c-.045.09-.045.18-.09.27.045-.09.045-.135.09-.225A5.056,5.056,0,0,1,.764,1.6c.045-.045.09-.135.135-.18a8.628,8.628,0,0,1-.629.674A.816.816,0,0,0,0,2.723a.887.887,0,0,0,.27.629,1.009,1.009,0,0,0,.629.27.405.405,0,0,0,.225-.045.978.978,0,0,0,.36-.225A4.713,4.713,0,0,0,2.966,1.106a.872.872,0,0,0-.09-.674.873.873,0,0,0-.494-.4.9.9,0,0,0-.674.09.873.873,0,0,0-.4.494Z" fill="#fff"/>
        </g>
      </g>
      <g id="Group_6063-2" data-name="Group 6063" transform="translate(7.481 5.001)">
        <g id="Group_6062-2" data-name="Group 6062" transform="translate(0 0)">
          <path id="Path_951-2" data-name="Path 951" d="M2.157,9.169A3.867,3.867,0,0,1,0,8.225L.9,6.831a2.764,2.764,0,0,0,1.663.674c.629,0,.854-.225.854-.674C3.416,5.843.27,5.708.27,3.6A2.245,2.245,0,0,1,2.157,1.258V0H3.506V1.258A3.16,3.16,0,0,1,5.348,2.292L4.315,3.506a1.8,1.8,0,0,0-1.258-.584c-.539,0-.764.135-.764.629,0,.944,3.146.989,3.146,3.191A2.36,2.36,0,0,1,3.551,9.169v1.3H2.2v-1.3Z" fill="#ae5406"/>
        </g>
      </g>
      <g id="Group_6064-2" data-name="Group 6064" transform="translate(6.821 4.742)">
        <path id="Path_952-2" data-name="Path 952" d="M2.157,9.169A3.867,3.867,0,0,1,0,8.225L.9,6.831a2.764,2.764,0,0,0,1.663.674c.629,0,.854-.225.854-.674C3.416,5.843.27,5.708.27,3.6A2.245,2.245,0,0,1,2.157,1.258V0H3.506V1.258A3.16,3.16,0,0,1,5.348,2.292L4.315,3.416a1.8,1.8,0,0,0-1.258-.584c-.539,0-.764.135-.764.629,0,.944,3.146.989,3.146,3.191A2.36,2.36,0,0,1,3.551,9.079v1.3H2.2V9.169Z" transform="translate(0 0)" fill="#27173a"/>
      </g>
      <circle id="Ellipse_185-2" data-name="Ellipse 185" cx="9.605" cy="9.605" r="9.605" transform="translate(0.09 0)" fill="none" stroke="#27173a" stroke-miterlimit="10" stroke-width="1"/>
      <circle id="Ellipse_186-2" data-name="Ellipse 186" cx="6.953" cy="6.953" r="6.953" transform="translate(2.742 2.697)" fill="none" stroke="#27173a" stroke-miterlimit="10" stroke-width="1.456"/>
    </g>
  </g>
</svg>
