<svg xmlns="http://www.w3.org/2000/svg" xmlns:xlink="http://www.w3.org/1999/xlink" width="36" height="36" viewBox="0 0 36 36"><defs><style>.a{fill:#fff;}.b{fill:url(#a);}.c,.e{fill:none;}.c{stroke:#fff;}.d{stroke:none;}</style><linearGradient id="a" x1="0.839" y1="0.238" x2="0.5" y2="1" gradientUnits="objectBoundingBox"><stop offset="0" stop-color="#df3a93"/><stop offset="1" stop-color="#f7e000"/></linearGradient></defs><circle class="a" cx="18" cy="18" r="18"/><g transform="translate(-4488.859 -1000.859)"><path class="b" d="M2.286,0H13.714A2.286,2.286,0,0,1,16,2.286V13.714A2.286,2.286,0,0,1,13.714,16H2.286A2.286,2.286,0,0,1,0,13.714V2.286A2.286,2.286,0,0,1,2.286,0Z" transform="translate(4498.859 1010.859)"/><g class="c" transform="translate(4502.859 1014.859)"><circle class="d" cx="4" cy="4" r="4"/><circle class="e" cx="4" cy="4" r="3.5"/></g><circle class="a" cx="1.018" cy="1.018" r="1.018" transform="translate(4510.259 1013.709)"/></g></svg>