<svg xmlns="http://www.w3.org/2000/svg" width="35.945" height="36" viewBox="0 0 35.945 36">
  <g id="ic_PTS" transform="translate(0)">
    <path id="Path_728" data-name="Path 728" d="M35.751,0H.206A.206.206,0,0,0,0,.206V28.87a.206.206,0,0,0,.171.206l4.663.834c.743-4.057,1.509-8.263,1.829-9.921.4-2.126.971-7.075,4.24-7.075A6.051,6.051,0,0,1,5.84,9.486,41.632,41.632,0,0,1,3.783,3.577a.194.194,0,0,1,.183-.24H21.293c6.069,0,11.921,4.377,11.121,11.6C31.7,21.3,27.567,25.945,21.807,25.945H16.458a.194.194,0,0,0-.194.16L15.292,31.8l3.989.743c1.874.366,5.76,1.109,6.812,3.337a.206.206,0,0,0,.389-.034,6.222,6.222,0,0,1,3.3-4.115,42.068,42.068,0,0,1,6.012-2.1.206.206,0,0,0,.149-.194V.206A.206.206,0,0,0,35.751,0Z" transform="translate(0)" fill="#32194d"/>
    <path id="Path_729" data-name="Path 729" d="M119.435,64.491h-2.4l.389-2.4h1.5a.113.113,0,0,0,.113-.092l.5-2.962a.113.113,0,0,0-.1-.133h-1.476l.348-2.1a.174.174,0,0,0-.143-.2h-2.91a.174.174,0,0,0-.174.143l-.359,2.162h-2.429l.348-2.1a.174.174,0,0,0-.143-.2h-2.91a.174.174,0,0,0-.154.133l-.359,2.173h-2.962a.113.113,0,0,0-.113.113,3.074,3.074,0,0,0,2.541,3.033l-.41,2.439h-2.019A.113.113,0,0,0,106,64.6a3.074,3.074,0,0,0,1.66,2.736l-.41,2.439a.174.174,0,0,0,.143.2h2.91a.174.174,0,0,0,.174-.143l.359-2.162h2.439l-.359,2.111a.174.174,0,0,0,.143.2h2.91a.174.174,0,0,0,.174-.143l.359-2.162h2.429a.113.113,0,0,0,.113-.092l.5-2.962a.113.113,0,0,0-.1-.133Zm-8.065,0,.389-2.4H114.2l-.389,2.4Z" transform="translate(-92.976 -49.657)" fill="#32194d"/>
  </g>
</svg>
