<svg xmlns="http://www.w3.org/2000/svg" width="87" height="54" viewBox="0 0 87 54">
  <g id="pop_plus_money" transform="translate(-561 -1819)">
    <path id="Union_2" data-name="Union 2" d="M1423.072,642.425h-15.359a22.713,22.713,0,0,1,0-45.426h41.575a22.713,22.713,0,1,1,0,45.426h-14.871L1428.329,651Z" transform="translate(-824 1222)" fill="#4e257b"/>
    <g id="Group_6082" data-name="Group 6082" transform="translate(-141 118)">
      <path id="Path_1196" data-name="Path 1196" d="M4.3-1.89h2.34V-5.67H10.26V-7.92H6.642v-3.762H4.3V-7.92H.7v2.25H4.3ZM15.984.252c2.664,0,4.95-1.4,4.95-3.906a3.309,3.309,0,0,0-2.592-3.258V-7A3.069,3.069,0,0,0,20.5-9.954c0-2.394-1.818-3.69-4.59-3.69a6.3,6.3,0,0,0-4.158,1.656l1.62,1.962a3.563,3.563,0,0,1,2.394-1.116c.99,0,1.53.5,1.53,1.422,0,1.062-.72,1.764-3.006,1.764v2.25c2.808,0,3.42.684,3.42,1.836,0,1.008-.81,1.53-2.052,1.53a4.088,4.088,0,0,1-2.79-1.3L11.394-1.62A5.747,5.747,0,0,0,15.984.252ZM27.4.252c2.826,0,4.752-2.412,4.752-7.02,0-4.572-1.926-6.876-4.752-6.876s-4.734,2.268-4.734,6.876S24.57.252,27.4.252Zm0-2.484c-.954,0-1.71-.864-1.71-4.536,0-3.654.756-4.41,1.71-4.41s1.728.756,1.728,4.41C29.124-3.1,28.35-2.232,27.4-2.232Z" transform="translate(743 1731)" fill="#fff"/>
      <g id="Group_6065" data-name="Group 6065" transform="translate(715.906 1711.5)">
        <circle id="Ellipse_183" data-name="Ellipse 183" cx="11.944" cy="11.944" r="11.944" transform="translate(0.3 0.612)" fill="#f39404"/>
        <circle id="Ellipse_184" data-name="Ellipse 184" cx="8.522" cy="8.522" r="8.522" transform="translate(1.246 7.869) rotate(-22.087)" fill="#ffba2e"/>
        <path id="Path_948" data-name="Path 948" d="M7.51,16.792a8.458,8.458,0,0,1,15.242-5.253A8.5,8.5,0,0,0,15.268,6.9,8.539,8.539,0,0,0,6.8,15.563a8.769,8.769,0,0,0,1.748,5.253A7.881,7.881,0,0,1,7.51,16.792Z" transform="translate(-2.867 -2.823)" fill="#ae5406"/>
        <g id="Group_6059" data-name="Group 6059" transform="translate(4.907 1.407)" opacity="0.74">
          <g id="Group_6058" data-name="Group 6058">
            <path id="Path_949" data-name="Path 949" d="M10.544,5.3a2.8,2.8,0,0,1,.447-.391c-.056.056-.168.112-.224.168A6.288,6.288,0,0,1,11.942,4.4c-.112.056-.168.056-.279.112a6.779,6.779,0,0,1,.782-.279,1.419,1.419,0,0,0,.727-.5,1.4,1.4,0,0,0,.112-.838,1.07,1.07,0,0,0-1.341-.727A6.237,6.237,0,0,0,9.035,3.787a.9.9,0,0,0-.335.727,1.1,1.1,0,0,0,.335.782,1.116,1.116,0,0,0,1.509,0Z" transform="translate(-8.7 -2.123)" fill="#fff"/>
          </g>
        </g>
        <g id="Group_6061" data-name="Group 6061" transform="translate(19.047 16.265)" opacity="0.74">
          <g id="Group_6060" data-name="Group 6060">
            <path id="Path_950" data-name="Path 950" d="M36.121,30c-.056.112-.056.224-.112.335.056-.112.056-.168.112-.279a6.288,6.288,0,0,1-.671,1.174c.056-.056.112-.168.168-.224a10.728,10.728,0,0,1-.782.838,1.015,1.015,0,0,0-.335.782,1.1,1.1,0,0,0,.335.782,1.255,1.255,0,0,0,.782.335.5.5,0,0,0,.279-.056,1.217,1.217,0,0,0,.447-.279,5.86,5.86,0,0,0,1.844-2.794,1.116,1.116,0,0,0-.727-1.341,1.117,1.117,0,0,0-.838.112,1.086,1.086,0,0,0-.5.615Z" transform="translate(-34.5 -29.24)" fill="#fff"/>
          </g>
        </g>
        <g id="Group_6063" data-name="Group 6063" transform="translate(9.603 6.719)">
          <g id="Group_6062" data-name="Group 6062">
            <path id="Path_951" data-name="Path 951" d="M19.983,23.4A4.808,4.808,0,0,1,17.3,22.228l1.118-1.733a3.438,3.438,0,0,0,2.068.838c.782,0,1.062-.279,1.062-.838,0-1.23-3.912-1.4-3.912-4.024a2.792,2.792,0,0,1,2.347-2.906V12h1.677v1.565a3.93,3.93,0,0,1,2.291,1.285l-1.285,1.509a2.243,2.243,0,0,0-1.565-.727c-.671,0-.95.168-.95.782,0,1.174,3.912,1.23,3.912,3.968A2.935,2.935,0,0,1,21.715,23.4v1.621H20.039V23.4Z" transform="translate(-17.3 -12)" fill="#ae5406"/>
          </g>
        </g>
        <g id="Group_6064" data-name="Group 6064" transform="translate(8.782 6.397)">
          <path id="Path_952" data-name="Path 952" d="M18.483,22.8A4.808,4.808,0,0,1,15.8,21.628l1.118-1.733a3.438,3.438,0,0,0,2.068.838c.782,0,1.062-.279,1.062-.838,0-1.23-3.912-1.4-3.912-4.024a2.792,2.792,0,0,1,2.347-2.906V11.4h1.677v1.565a3.93,3.93,0,0,1,2.291,1.285l-1.285,1.4a2.243,2.243,0,0,0-1.565-.727c-.671,0-.95.168-.95.782,0,1.174,3.912,1.23,3.912,3.968a2.935,2.935,0,0,1-2.347,3.018V24.31H18.539V22.8Z" transform="translate(-15.8 -11.4)" fill="#4e257b"/>
        </g>
        <circle id="Ellipse_185" data-name="Ellipse 185" cx="11.944" cy="11.944" r="11.944" transform="translate(0.412 0.5)" fill="none" stroke="#4e257b" stroke-miterlimit="10" stroke-width="1"/>
        <circle id="Ellipse_186" data-name="Ellipse 186" cx="8.647" cy="8.647" r="8.647" transform="translate(3.709 3.853)" fill="none" stroke="#4e257b" stroke-miterlimit="10" stroke-width="1.456"/>
      </g>
    </g>
  </g>
</svg>
