<svg xmlns="http://www.w3.org/2000/svg" width="73" height="54" viewBox="0 0 73 54">
  <g id="pop_plus" transform="translate(-465 -1791)">
    <path id="Union_1" data-name="Union 1" d="M1416.945,642.425h-9.233a22.713,22.713,0,0,1,0-45.426h27.575a22.713,22.713,0,0,1,0,45.426h-8.824L1421.357,651Z" transform="translate(-920 1194)" fill="#4e257b"/>
    <g id="Group_6081" data-name="Group 6081" transform="translate(481 1800)">
      <g id="Group_6080" data-name="Group 6080" transform="translate(0 2)">
        <rect id="Rectangle_920" data-name="Rectangle 920" width="20" height="24" fill="#fff"/>
        <g id="Group_8914" data-name="Group 8914" transform="translate(2.992 5.424)">
          <path id="Path_1199" data-name="Path 1199" d="M7,0A7,7,0,1,1,0,7,7,7,0,0,1,7,0Z" fill="none" stroke="#df3a93" stroke-width="2"/>
          <rect id="Rectangle_1094" data-name="Rectangle 1094" width="2" height="13" transform="translate(6.214 0.576)" fill="#df3a93"/>
          <rect id="Rectangle_1095" data-name="Rectangle 1095" width="2" height="8" transform="translate(7.013 5.46) rotate(60)" fill="#df3a93"/>
        </g>
      </g>
      <path id="Path_1195" data-name="Path 1195" d="M8.424-1.89h2.34V-5.67h3.618V-7.92H10.764v-3.762H8.424V-7.92h-3.6v2.25h3.6ZM16.488,0h8.46V-2.592H22.536v-10.8H20.178a9.035,9.035,0,0,1-3.312,1.206v1.98h2.466v7.614H16.488Z" transform="translate(18 21)" fill="#fff"/>
    </g>
  </g>
</svg>
