<svg xmlns="http://www.w3.org/2000/svg" width="20" height="16.364" viewBox="0 0 20 16.364"><defs><style>.a{fill:#4e257b;}</style></defs><path class="a" d="M19.182,3H2.818A1.824,1.824,0,0,0,1,4.818V7.545H2.818V4.818H19.182V17.545H12.818v1.818h6.364A1.824,1.824,0,0,0,21,17.545V4.818A1.824,1.824,0,0,0,19.182,3ZM1,16.636v2.727H3.727A2.724,2.724,0,0,0,1,16.636ZM1,13v1.818a4.547,4.547,0,0,1,4.545,4.545H7.364A6.359,6.359,0,0,0,1,13ZM1,9.364v1.818a8.182,8.182,0,0,1,8.182,8.182H11A10,10,0,0,0,1,9.364Z" transform="translate(-1 -3)"/></svg>